<svg xmlns="http://www.w3.org/2000/svg" version="1.1" xmlns:xlink="http://www.w3.org/1999/xlink" xmlns:svgjs="http://svgjs.dev/svgjs" viewBox="0 0 800 800" opacity="0.3"><defs><symbol id="bbburst-shape-5" viewBox="0 0 145 145"><circle cx="72.5" cy="72.5" r="72.5"></circle></symbol><symbol id="bbburst-shape-10" viewBox="0 0 145 145"><circle cx="72.5" cy="72.5" r="61.5" fill="none" stroke-width="22"></circle></symbol></defs><use xlink:href="#bbburst-shape-5" width="9.514474846545065" opacity="0.741348666577257" transform="matrix(0.9907439329266423,0.1357440951535238,-0.1357440951535238,0.9907439329266423,406.5935809391137,-105.10590300501019)" fill="#2c289d"></use><use xlink:href="#bbburst-shape-10" width="6.646091816283375" opacity="0.9059052838109829" transform="matrix(0.923910297398972,0.382609150910094,-0.382609150910094,0.923910297398972,592.241389451262,31.678456861372013)" fill="none" stroke="#2c289d"></use><use xlink:href="#bbburst-shape-10" width="26.335429957156066" opacity="0.2935121498178963" transform="matrix(0.9888725584407247,-0.14876512750942478,0.14876512750942478,0.9888725584407247,593.5762159442676,-167.54928031280377)" fill="none" stroke="#2c289d"></use><use xlink:href="#bbburst-shape-5" width="9.813574341675816" opacity="0.7751605293812786" transform="matrix(0.8756638707429043,0.48292109653188087,-0.48292109653188087,0.8756638707429043,614.9031443675051,-50.40684016636072)" fill="#a020f0"></use><use xlink:href="#bbburst-shape-10" width="38.03205286048905" opacity="0.2459619510618528" transform="matrix(0.9930345826720173,0.11782324735557255,-0.11782324735557255,0.9930345826720173,593.7295041242159,296.7739592293404)" fill="none" stroke="#a020f0"></use><use xlink:href="#bbburst-shape-10" width="5.8020964259689425" opacity="0.920103600641577" transform="matrix(0.9920423602180402,0.12590454929437755,-0.12590454929437755,0.9920423602180402,417.153974602621,-16.48877503804266)" fill="none" stroke="#a020f0"></use><use xlink:href="#bbburst-shape-10" width="5.163793196818814" opacity="0.9337648400287059" transform="matrix(0.8837242173837345,-0.4680080208815934,0.4680080208815934,0.8837242173837345,181.87983151923555,55.98956929952726)" fill="none" stroke="#2c289d"></use><use xlink:href="#bbburst-shape-10" width="8.986830683050997" opacity="0.8642451241724767" transform="matrix(0.8343021580508472,0.5513074542137982,-0.5513074542137982,0.8343021580508472,602.6751645359559,123.24236062732746)" fill="none" stroke="#a020f0"></use><use xlink:href="#bbburst-shape-10" width="23.999778053857764" opacity="0.3925452886605406" transform="matrix(0.9527539386618274,0.303743201346754,-0.303743201346754,0.9527539386618274,262.1345570790208,130.37771511464206)" fill="none" stroke="#a020f0"></use><use xlink:href="#bbburst-shape-5" width="15.40150344180363" opacity="0.5229020676927261" transform="matrix(0.8381418728174758,0.5454522903334574,-0.5454522903334574,0.8381418728174758,410.5533946798571,135.52877044454726)" fill="#2c289d"></use><use xlink:href="#bbburst-shape-5" width="11.290573745347135" opacity="0.6787394108313505" transform="matrix(0.8588835460516466,0.5121709229561445,-0.5121709229561445,0.8588835460516466,464.94927716039564,2.0220178526489576)" fill="#a020f0"></use><use xlink:href="#bbburst-shape-5" width="30.496554866863526" opacity="0.2204052943653475" transform="matrix(0.9988770145038954,-0.047378369492677826,0.047378369492677826,0.9988770145038954,54.84328912264544,-161.21080287258889)" fill="#a020f0"></use><use xlink:href="#bbburst-shape-10" width="14.97393830714285" opacity="0.5692708383263336" transform="matrix(0.8577588036715169,-0.5140523657410868,0.5140523657410868,0.8577588036715169,261.9253315496454,-118.4140832289136)" fill="none" stroke="#a020f0"></use><use xlink:href="#bbburst-shape-10" width="6.9528412083646485" opacity="0.8722759190101297" transform="matrix(0.9525199970409322,0.3044760339290148,-0.3044760339290148,0.9525199970409322,574.9358205074803,28.70873120597855)" fill="none" stroke="#a020f0"></use><use xlink:href="#bbburst-shape-10" width="21.50260193677584" opacity="0.5380071739609463" transform="matrix(0.9911558937487747,0.13270265365495815,-0.13270265365495815,0.9911558937487747,507.5441093826057,199.54584075533472)" fill="none" stroke="#a020f0"></use><use xlink:href="#bbburst-shape-10" width="29.65518051212065" opacity="0.10568641343974416" transform="matrix(0.9831220124734176,-0.18295110983598134,0.18295110983598134,0.9831220124734176,-59.074904982833985,-145.7212774451014)" fill="none" stroke="#a020f0"></use><use xlink:href="#bbburst-shape-5" width="38.58105978643856" opacity="0.042496012107048564" transform="matrix(0.97853037820244,0.2061026417467511,-0.2061026417467511,0.97853037820244,199.02151396343692,344.7174873993679)" fill="#2c289d"></use><use xlink:href="#bbburst-shape-5" width="32.24151188622855" opacity="0.04388291542288425" transform="matrix(0.9551743061165219,-0.29604399155331773,0.29604399155331773,0.9551743061165219,494.68790732678076,387.2620058026789)" fill="#a020f0"></use><use xlink:href="#bbburst-shape-5" width="23.237969131691848" opacity="0.2046906735442634" transform="matrix(0.8718004841525249,-0.48986111892190753,0.48986111892190753,0.8718004841525249,381.7060511203364,-247.69777362667594)" fill="#2c289d"></use><use xlink:href="#bbburst-shape-10" width="5.258687405226594" opacity="0.9239024732643243" transform="matrix(0.9774157018763933,0.21132568638354787,-0.21132568638354787,0.9774157018763933,500.0578431105258,37.549073185805355)" fill="none" stroke="#2c289d"></use><use xlink:href="#bbburst-shape-5" width="31.199580764621416" opacity="0.1794090876105373" transform="matrix(0.963931107701149,0.26615187319655637,-0.26615187319655637,0.963931107701149,820.6569823500256,-156.94488308606387)" fill="#a020f0"></use><use xlink:href="#bbburst-shape-10" width="13.155448960905307" opacity="0.7367421101104912" transform="matrix(0.9235694966867125,-0.3834310691504439,0.3834310691504439,0.9235694966867125,192.8927498116765,141.55047563819215)" fill="none" stroke="#a020f0"></use><use xlink:href="#bbburst-shape-5" width="5.927907741925576" opacity="0.9434867487143161" transform="matrix(0.9015049012255544,-0.4327688910565355,0.4327688910565355,0.9015049012255544,199.14333467871853,36.453041936099964)" fill="#2c289d"></use><use xlink:href="#bbburst-shape-10" width="16.22255324871737" opacity="0.6253948169451804" transform="matrix(0.9999672293716769,0.008095689144978595,-0.008095689144978595,0.9999672293716769,283.601801144667,-126.4594704147076)" fill="none" stroke="#2c289d"></use><use xlink:href="#bbburst-shape-5" width="8.229798526372573" opacity="0.8663067824033425" transform="matrix(0.9414747341396358,-0.3370835578557667,0.3370835578557667,0.9414747341396358,258.9190696101294,-35.31794134681314)" fill="#a020f0"></use><use xlink:href="#bbburst-shape-10" width="19.496264906748838" opacity="0.30546328485239227" transform="matrix(0.9519668142539338,0.30620121580296894,-0.30620121580296894,0.9519668142539338,544.4874067469776,-294.7432224839248)" fill="none" stroke="#2c289d"></use><use xlink:href="#bbburst-shape-10" width="15.556173457947331" opacity="0.579772002034291" transform="matrix(0.9362112611483043,0.3514377249230673,-0.3514377249230673,0.9362112611483043,418.4703159705564,173.03346996241123)" fill="none" stroke="#2c289d"></use><use xlink:href="#bbburst-shape-5" width="8.620324784404689" opacity="0.838901575552282" transform="matrix(0.9609541902436318,-0.2767075066802596,0.2767075066802596,0.9609541902436318,311.22990450870384,84.46133602075457)" fill="#2c289d"></use><use xlink:href="#bbburst-shape-10" width="8.26880488155362" opacity="0.8001291782590265" transform="matrix(0.7096534825178138,0.7045508744940558,-0.7045508744940558,0.7096534825178138,759.7275828477954,152.64951691265685)" fill="none" stroke="#a020f0"></use><use xlink:href="#bbburst-shape-10" width="28.94154389434587" opacity="0.30608353498437735" transform="matrix(0.9904462567949499,0.13789928354009726,-0.13789928354009726,0.9904462567949499,128.56530981712208,1.2641504317224417)" fill="none" stroke="#a020f0"></use><use xlink:href="#bbburst-shape-10" width="39.842758881637394" opacity="0.0333030606404221" transform="matrix(0.9772850979867909,0.211928849506028,-0.211928849506028,0.9772850979867909,107.41806114426913,-242.43228300066136)" fill="none" stroke="#2c289d"></use><use xlink:href="#bbburst-shape-10" width="20.759432493999903" opacity="0.17316633253414693" transform="matrix(0.9298574369369047,-0.36792002795869955,0.36792002795869955,0.9298574369369047,-128.89479937270613,31.930639465402294)" fill="none" stroke="#2c289d"></use><use xlink:href="#bbburst-shape-10" width="17.664691175303794" opacity="0.4580782442879141" transform="matrix(0.9577655435049975,0.28755028025473506,-0.28755028025473506,0.9577655435049975,286.88969163686914,-91.5451771329956)" fill="none" stroke="#2c289d"></use><use xlink:href="#bbburst-shape-5" width="12.251423081853401" opacity="0.7709783794885158" transform="matrix(0.99981686177114,0.019137474183104963,-0.019137474183104963,0.99981686177114,401.4254247281196,103.01570062120288)" fill="#a020f0"></use><use xlink:href="#bbburst-shape-10" width="15.26117571671802" opacity="0.6533391490113398" transform="matrix(0.8445914130588172,-0.5354113792097721,0.5354113792097721,0.8445914130588172,234.93015735834362,212.02463953410785)" fill="none" stroke="#2c289d"></use><use xlink:href="#bbburst-shape-5" width="6.321074457868237" opacity="0.9397686028212148" transform="matrix(0.8586612803498667,0.5125434670619923,-0.5125434670619923,0.8586612803498667,590.5115828695356,79.32014801936856)" fill="#2c289d"></use><use xlink:href="#bbburst-shape-5" width="16.155993986870236" opacity="0.6061514877849021" transform="matrix(0.9630026975309769,-0.26949175228207234,0.26949175228207234,0.9630026975309769,112.57424608870221,-26.368417434024707)" fill="#2c289d"></use><use xlink:href="#bbburst-shape-5" width="10.43364528018351" opacity="0.7801415646468729" transform="matrix(0.910131482259427,-0.41431954455499487,0.41431954455499487,0.910131482259427,214.65187341254008,-59.703257343525536)" fill="#a020f0"></use><use xlink:href="#bbburst-shape-5" width="12.125400417202165" opacity="0.7894678398827067" transform="matrix(0.9979803546094672,-0.0635233170856349,0.0635233170856349,0.9979803546094672,463.1710117561788,-3.3435831822393993)" fill="#a020f0"></use><use xlink:href="#bbburst-shape-10" width="10.799736781392754" opacity="0.7697454655228373" transform="matrix(0.9817990311896916,0.1899227799790828,-0.1899227799790828,0.9817990311896916,570.9882225736478,32.172674660318194)" fill="none" stroke="#2c289d"></use><use xlink:href="#bbburst-shape-10" width="19.831846741593264" opacity="0.48595667875686877" transform="matrix(0.9454583228637817,-0.3257430885339012,0.3257430885339012,0.9454583228637817,36.013862778026095,-31.45119826880608)" fill="none" stroke="#2c289d"></use><use xlink:href="#bbburst-shape-10" width="16.818245510970268" opacity="0.5555788367118435" transform="matrix(0.9038554834038723,0.4278378958446203,-0.4278378958446203,0.9038554834038723,402.75390265032433,-84.07433375620337)" fill="none" stroke="#2c289d"></use><use xlink:href="#bbburst-shape-10" width="8.267229482599724" opacity="0.8402993172624513" transform="matrix(0.8269301768192769,-0.5623046173255555,0.5623046173255555,0.8269301768192769,174.08089702795203,143.37679793834803)" fill="none" stroke="#2c289d"></use><use xlink:href="#bbburst-shape-5" width="31.42616578594283" opacity="0.09046457835457988" transform="matrix(0.9761902717397211,-0.21691600531249325,0.21691600531249325,0.9761902717397211,117.42353511237656,380.2867209753348)" fill="#2c289d"></use><use xlink:href="#bbburst-shape-10" width="7.1236356732011945" opacity="0.8542548012136493" transform="matrix(0.9075474304332375,-0.4199495940157914,0.4199495940157914,0.9075474304332375,285.2326462842533,5.079235149374881)" fill="none" stroke="#2c289d"></use><use xlink:href="#bbburst-shape-10" width="8.555766748745306" opacity="0.7789673591203483" transform="matrix(0.9234920698941184,-0.38361751373298475,0.38361751373298475,0.9234920698941184,299.4971853724802,-49.341342194762206)" fill="none" stroke="#2c289d"></use><use xlink:href="#bbburst-shape-5" width="4.192798922458797" opacity="0.9795017637827317" transform="matrix(0.8670070971768197,0.4982957891102682,-0.4982957891102682,0.8670070971768197,594.7592741977235,43.345125236010404)" fill="#2c289d"></use><use xlink:href="#bbburst-shape-5" width="7.034069440705652" opacity="0.901279181487148" transform="matrix(0.7377894127781383,-0.6750309492108417,0.6750309492108417,0.7377894127781383,140.6666653988803,64.86342863799399)" fill="#a020f0"></use><use xlink:href="#bbburst-shape-10" width="16.66184613630079" opacity="0.5711295319135063" transform="matrix(0.9932923537167716,-0.11563001361150112,0.11563001361150112,0.9932923537167716,169.61779896451685,-75.85682979267318)" fill="none" stroke="#a020f0"></use><use xlink:href="#bbburst-shape-10" width="6.502985147879658" opacity="0.9377256989053131" transform="matrix(0.8001860908378655,0.5997517986881032,-0.5997517986881032,0.8001860908378655,644.8427303421564,50.986516103097415)" fill="none" stroke="#a020f0"></use><use xlink:href="#bbburst-shape-10" width="8.574580094535069" opacity="0.7986724157553678" transform="matrix(0.9453215787352317,0.3261397135853422,-0.3261397135853422,0.9453215787352317,448.0902383569402,66.02527886621027)" fill="none" stroke="#2c289d"></use><use xlink:href="#bbburst-shape-10" width="31.545641142050503" opacity="0.37861731964189616" transform="matrix(0.8190317272112886,-0.5737482285996999,0.5737482285996999,0.8190317272112886,-60.53980796761007,256.3978673362695)" fill="none" stroke="#a020f0"></use><use xlink:href="#bbburst-shape-5" width="9.945539940671162" opacity="0.7559169671446635" transform="matrix(0.975719168148093,-0.2190253522047012,0.2190253522047012,0.975719168148093,390.4191644074274,-61.274377207903)" fill="#2c289d"></use><use xlink:href="#bbburst-shape-10" width="10.356514239539981" opacity="0.7537410884755162" transform="matrix(0.8718203531214079,0.48982575665563316,-0.48982575665563316,0.8718203531214079,636.9641484461026,149.75841993957818)" fill="none" stroke="#2c289d"></use><use xlink:href="#bbburst-shape-10" width="7.016288691653283" opacity="0.8764625963845315" transform="matrix(0.8881209854361249,-0.45960974231185125,0.45960974231185125,0.8881209854361249,157.56464217472873,49.953822470552666)" fill="none" stroke="#a020f0"></use><use xlink:href="#bbburst-shape-5" width="14.597606899607605" opacity="0.6724015371182769" transform="matrix(0.9358624776303034,0.35236546789330814,-0.35236546789330814,0.9358624776303034,531.6727681390478,-124.31590481664762)" fill="#2c289d"></use><use xlink:href="#bbburst-shape-10" width="6.176976023093078" opacity="0.879310600658334" transform="matrix(0.9028672943692114,0.4299193514584099,-0.4299193514584099,0.9028672943692114,601.731795906902,-5.948072242133037)" fill="none" stroke="#2c289d"></use><use xlink:href="#bbburst-shape-5" width="19.129548047278824" opacity="0.3964522974158574" transform="matrix(0.8380920044941035,-0.5455289103274507,0.5455289103274507,0.8380920044941035,378.83652855420394,-108.10124089725934)" fill="#2c289d"></use><use xlink:href="#bbburst-shape-5" width="4.9978620507725315" opacity="0.926606551991396" transform="matrix(0.7797660432531144,-0.6260710165703106,0.6260710165703106,0.7797660432531144,178.23520830396328,77.26133213582534)" fill="#2c289d"></use><use xlink:href="#bbburst-shape-10" width="20.802820714670805" opacity="0.552389111111036" transform="matrix(0.9398243069161877,-0.34165812170868637,0.34165812170868637,0.9398243069161877,454.6712872688871,38.88227674101938)" fill="none" stroke="#a020f0"></use><use xlink:href="#bbburst-shape-5" width="24.480099056292396" opacity="0.42895735291661663" transform="matrix(0.9694089738878274,-0.24545109766662168,0.24545109766662168,0.9694089738878274,91.72011508448112,-148.27229309298568)" fill="#a020f0"></use><use xlink:href="#bbburst-shape-10" width="16.415582799563254" opacity="0.5957247085324953" transform="matrix(0.9299342716200045,-0.36772578161800346,0.36772578161800346,0.9299342716200045,240.6922730003298,-150.8215909867976)" fill="none" stroke="#2c289d"></use><use xlink:href="#bbburst-shape-10" width="28.764042093985747" opacity="0.11819748070302705" transform="matrix(0.9766936421075577,-0.2146381360957878,0.2146381360957878,0.9766936421075577,563.711395870967,309.001816078201)" fill="none" stroke="#a020f0"></use><use xlink:href="#bbburst-shape-10" width="9.608329757022736" opacity="0.7046073960178708" transform="matrix(0.9079962701833038,0.41897824923641186,-0.41897824923641186,0.9079962701833038,488.8263054717806,-75.36450994284587)" fill="none" stroke="#a020f0"></use><use xlink:href="#bbburst-shape-5" width="10.62382446065027" opacity="0.8191222863247696" transform="matrix(0.8229013839128074,-0.5681842239576759,0.5681842239576759,0.8229013839128074,175.30157198901642,-7.240433055697622)" fill="#a020f0"></use><use xlink:href="#bbburst-shape-10" width="5.953151699223078" opacity="0.9523961691519436" transform="matrix(0.8900413262155341,0.45587984999174197,-0.45587984999174197,0.8900413262155341,563.5813828613902,28.51996766933405)" fill="none" stroke="#a020f0"></use><use xlink:href="#bbburst-shape-10" width="31.033849805836063" opacity="0.24271893501170438" transform="matrix(0.9731142322748219,0.230323014360667,-0.230323014360667,0.9731142322748219,317.60684300696545,308.36644450207325)" fill="none" stroke="#2c289d"></use><use xlink:href="#bbburst-shape-10" width="9.165678829487174" opacity="0.7866094665801787" transform="matrix(0.9817602712991864,-0.19012303831610702,0.19012303831610702,0.9817602712991864,273.8783491343254,-76.35515432690528)" fill="none" stroke="#a020f0"></use><use xlink:href="#bbburst-shape-10" width="20.144036575126005" opacity="0.24827028322576095" transform="matrix(0.9052545742133113,0.42486957512379775,-0.42486957512379775,0.9052545742133113,653.8877363081878,-291.60801327957796)" fill="none" stroke="#a020f0"></use><use xlink:href="#bbburst-shape-5" width="20.111867430215472" opacity="0.3972951217539963" transform="matrix(0.725406021221576,-0.6883212217965405,0.6883212217965405,0.725406021221576,51.08710189405679,-146.23200450607607)" fill="#2c289d"></use><use xlink:href="#bbburst-shape-5" width="10.835890486808127" opacity="0.7321551625089016" transform="matrix(0.8736464376110495,-0.486561303485514,0.486561303485514,0.8736464376110495,311.00090587081536,4.71669041418113)" fill="#a020f0"></use><use xlink:href="#bbburst-shape-5" width="25.23975450239781" opacity="0.36955969470336025" transform="matrix(0.9931835658350496,0.11656073333320943,-0.11656073333320943,0.9931835658350496,595.8390824831207,-231.81522039244078)" fill="#a020f0"></use><use xlink:href="#bbburst-shape-5" width="10.289633592937369" opacity="0.8044131364159586" transform="matrix(0.9999977869399856,-0.0021038334370871627,0.0021038334370871627,0.9999977869399856,376.51505714016236,86.26875551262805)" fill="#2c289d"></use><use xlink:href="#bbburst-shape-5" width="15.64740910683735" opacity="0.6927870495667683" transform="matrix(0.994626110028236,0.1035321266568957,-0.1035321266568957,0.994626110028236,522.0502392692433,-104.93359346463956)" fill="#a020f0"></use><use xlink:href="#bbburst-shape-5" width="5.356121122426625" opacity="0.9576530770531512" transform="matrix(0.7249018540876438,-0.6888521626156779,0.6888521626156779,0.7249018540876438,131.59756668685827,128.63795419008233)" fill="#2c289d"></use><use xlink:href="#bbburst-shape-10" width="10.05103658665174" opacity="0.7746777671348963" transform="matrix(0.7690139805069879,-0.6392319592955268,0.6392319592955268,0.7690139805069879,58.38711196321407,36.043000584521394)" fill="none" stroke="#a020f0"></use><use xlink:href="#bbburst-shape-10" width="5.028396363951546" opacity="0.8872374004462146" transform="matrix(0.7833917904410718,-0.6215281994161905,0.6215281994161905,0.7833917904410718,116.26705247514357,126.62220142279989)" fill="none" stroke="#a020f0"></use><use xlink:href="#bbburst-shape-10" width="30.58699610039062" opacity="0.1882506034687239" transform="matrix(0.8065439788891933,-0.5911740945927761,0.5911740945927761,0.8065439788891933,-205.97423626317695,9.843166771786628)" fill="none" stroke="#2c289d"></use><use xlink:href="#bbburst-shape-5" width="10.055760355254133" opacity="0.784897830702473" transform="matrix(0.77940744577395,0.6265173848123666,-0.6265173848123666,0.77940744577395,549.9943329435929,89.53247795331208)" fill="#2c289d"></use><use xlink:href="#bbburst-shape-5" width="4.427315643822551" opacity="0.949333598665037" transform="matrix(0.8507085217083193,-0.5256377184837918,0.5256377184837918,0.8507085217083193,183.05829163949792,38.5920273279541)" fill="#a020f0"></use><use xlink:href="#bbburst-shape-10" width="14.351122428731077" opacity="0.6118675109381964" transform="matrix(0.7629045757896942,-0.6465111044979405,0.6465111044979405,0.7629045757896942,291.0241643429048,179.7834303986491)" fill="none" stroke="#a020f0"></use><use xlink:href="#bbburst-shape-5" width="9.590993426427168" opacity="0.7519094555286553" transform="matrix(0.7208229909744823,-0.6931191929838628,0.6931191929838628,0.7208229909744823,10.833710555804828,88.54337343197608)" fill="#2c289d"></use><use xlink:href="#bbburst-shape-5" width="20.244222008056568" opacity="0.5235321977072056" transform="matrix(0.8856734449595665,-0.4643086784601962,0.4643086784601962,0.8856734449595665,405.83278704103463,126.34576333386258)" fill="#2c289d"></use><use xlink:href="#bbburst-shape-10" width="26.220064823621925" opacity="0.4688980380539599" transform="matrix(0.9971414972491115,0.07555682936571748,-0.07555682936571748,0.9971414972491115,394.085027162583,238.03313614675113)" fill="none" stroke="#a020f0"></use><use xlink:href="#bbburst-shape-5" width="29.901551416214133" opacity="0.07439379763685472" transform="matrix(0.8183685778993407,0.5746937190425965,-0.5746937190425965,0.8183685778993407,811.852558107397,-304.41423018483334)" fill="#a020f0"></use><use xlink:href="#bbburst-shape-10" width="13.369232080734525" opacity="0.729797464333751" transform="matrix(0.7669622246160372,0.6416922517936611,-0.6416922517936611,0.7669622246160372,771.5394025488287,69.25423983641548)" fill="none" stroke="#2c289d"></use><use xlink:href="#bbburst-shape-5" width="36.86802304884972" opacity="0.177290354591351" transform="matrix(0.9953524485111618,0.09629903033174857,-0.09629903033174857,0.9953524485111618,340.439075723571,361.61549547278344)" fill="#2c289d"></use><use xlink:href="#bbburst-shape-10" width="32.75390604938384" opacity="-0.10967650732112944" transform="matrix(0.9790779630301345,0.20348548427040822,-0.20348548427040822,0.9790779630301345,112.30506785736844,358.1753268171035)" fill="none" stroke="#2c289d"></use><use xlink:href="#bbburst-shape-10" width="33.12168837240617" opacity="0.2650276963639505" transform="matrix(0.8724396915052096,0.48872178658854026,-0.48872178658854026,0.8724396915052096,877.6255784048908,189.30169087464924)" fill="none" stroke="#a020f0"></use><use xlink:href="#bbburst-shape-10" width="30.538743959825243" opacity="-0.1046027834052532" transform="matrix(0.8396988127361238,-0.5430523951604891,0.5430523951604891,0.8396988127361238,513.2176598285628,431.92917278410977)" fill="none" stroke="#a020f0"></use><use xlink:href="#bbburst-shape-10" width="19.61034390749612" opacity="0.4062303907058604" transform="matrix(0.9530558803328734,-0.3027944665328805,0.3027944665328805,0.9530558803328734,325.1214425782175,-239.60429235941746)" fill="none" stroke="#a020f0"></use><use xlink:href="#bbburst-shape-5" width="18.74426029182779" opacity="0.563070158666489" transform="matrix(0.8608953485017184,0.5087820741025619,-0.5087820741025619,0.8608953485017184,730.3199742270971,193.93774010746415)" fill="#a020f0"></use><use xlink:href="#bbburst-shape-5" width="4.9748774778762" opacity="0.9859895871837973" transform="matrix(0.9187116278773373,-0.39492903768015447,0.39492903768015447,0.9187116278773373,245.70373179319805,35.55208822043767)" fill="#2c289d"></use><use xlink:href="#bbburst-shape-10" width="12.176205346408498" opacity="0.715362341447167" transform="matrix(0.9978168599776069,-0.06604175909550575,0.06604175909550575,0.9978168599776069,495.0266392241826,13.332971428764665)" fill="none" stroke="#2c289d"></use><use xlink:href="#bbburst-shape-5" width="24.47918352712115" opacity="0.30216412065421017" transform="matrix(0.8501654927565466,0.5265155600037079,-0.5265155600037079,0.8501654927565466,904.0854228696368,-25.67111502473483)" fill="#2c289d"></use><use xlink:href="#bbburst-shape-5" width="5.1243967808902" opacity="0.8866883477773684" transform="matrix(0.9908402169617488,-0.13503949219096775,0.13503949219096775,0.9908402169617488,300.48244800059206,31.47231260799697)" fill="#a020f0"></use><use xlink:href="#bbburst-shape-10" width="7.385343099891603" opacity="0.8574279355857548" transform="matrix(0.9051236814506473,-0.4251483520810438,0.4251483520810438,0.9051236814506473,164.4660846797615,23.527991825937136)" fill="none" stroke="#2c289d"></use><use xlink:href="#bbburst-shape-5" width="11.503939994187451" opacity="0.7694064402234679" transform="matrix(0.9986512727239629,0.051919509693458,-0.051919509693458,0.9986512727239629,355.07898738462507,84.94181723895684)" fill="#a020f0"></use><use xlink:href="#bbburst-shape-5" width="27.376200437701524" opacity="0.4288349341564708" transform="matrix(0.9953023879447488,-0.09681506365995332,0.09681506365995332,0.9953023879447488,90.72111714690377,-3.7913828670297107)" fill="#a020f0"></use><use xlink:href="#bbburst-shape-5" width="21.340717148099316" opacity="0.4402490245664352" transform="matrix(0.8430419471244474,-0.5378478180569486,0.5378478180569486,0.8430419471244474,19.462578162202107,265.9702542773022)" fill="#a020f0"></use><use xlink:href="#bbburst-shape-5" width="26.19805320083364" opacity="0.42878266657408104" transform="matrix(0.8472491413186574,0.5311957196126468,-0.5311957196126468,0.8472491413186574,646.0662730206458,307.27598316126773)" fill="#a020f0"></use><use xlink:href="#bbburst-shape-5" width="16.37800438559403" opacity="0.6919530771182645" transform="matrix(0.9124921266415356,0.4090942664193765,-0.4090942664193765,0.9124921266415356,473.9308455330079,143.2474611435511)" fill="#a020f0"></use><use xlink:href="#bbburst-shape-5" width="15.552296632900433" opacity="0.7025626637016953" transform="matrix(0.9043809931731656,-0.42672592982746976,0.42672592982746976,0.9043809931731656,251.76130825153555,-88.99307718895471)" fill="#a020f0"></use><use xlink:href="#bbburst-shape-5" width="6.3692964350978265" opacity="0.8904329854724191" transform="matrix(0.96330574022806,-0.2684065029831977,0.2684065029831977,0.96330574022806,318.6432225866704,55.35362668067063)" fill="#a020f0"></use><use xlink:href="#bbburst-shape-5" width="5.169141194643535" opacity="0.9629026535021257" transform="matrix(0.9875628367826155,-0.15722481803415492,0.15722481803415492,0.9875628367826155,343.4015892115991,-8.77744322229779)" fill="#2c289d"></use><use xlink:href="#bbburst-shape-10" width="25.32898347316611" opacity="0.3468543337253339" transform="matrix(0.8560736659585235,-0.5168538269688386,0.5168538269688386,0.8560736659585235,-72.14733352323606,-82.79697973410921)" fill="none" stroke="#a020f0"></use><use xlink:href="#bbburst-shape-5" width="9.068055588138884" opacity="0.8515829202967053" transform="matrix(0.8841519819991276,0.4671993929009479,-0.4671993929009479,0.8841519819991276,622.697859168282,97.8344833541932)" fill="#2c289d"></use><use xlink:href="#bbburst-shape-10" width="6.473110487655683" opacity="0.9213314463113844" transform="matrix(0.8725110056877984,-0.4885944585785502,0.4885944585785502,0.8725110056877984,175.46434146178962,76.30247267647701)" fill="none" stroke="#2c289d"></use><use xlink:href="#bbburst-shape-10" width="4.913223708094144" opacity="0.9592153067634424" transform="matrix(0.7223532434220423,-0.6915242524435825,0.6915242524435825,0.7223532434220423,138.95850841035605,106.75203115906203)" fill="none" stroke="#2c289d"></use><use xlink:href="#bbburst-shape-10" width="8.467063528343475" opacity="0.7836770747084298" transform="matrix(0.9829977282422933,-0.18361771774665567,0.18361771774665567,0.9829977282422933,228.9367663784015,34.82434351607873)" fill="none" stroke="#a020f0"></use><use xlink:href="#bbburst-shape-5" width="13.82417472309519" opacity="0.638540216289478" transform="matrix(0.7607892810116155,-0.6489989752671642,0.6489989752671642,0.7607892810116155,-27.170990462765303,89.59481208687475)" fill="#2c289d"></use><use xlink:href="#bbburst-shape-10" width="19.702795506761074" opacity="0.5042510624173516" transform="matrix(0.7520777056226772,0.6590744454955978,-0.6590744454955978,0.7520777056226772,811.0765969052934,-67.90872279877613)" fill="none" stroke="#a020f0"></use><use xlink:href="#bbburst-shape-5" width="27.48942918754057" opacity="0.29454744539330613" transform="matrix(0.9621187184117737,0.27263083406263183,-0.27263083406263183,0.9621187184117737,366.9143763154363,-278.6947335564)" fill="#a020f0"></use><use xlink:href="#bbburst-shape-5" width="37.32259388113172" opacity="-0.0037776415472421387" transform="matrix(0.9076833225166531,-0.4196557946998105,0.4196557946998105,0.9076833225166531,574.4543830853593,318.56175264946137)" fill="#a020f0"></use><use xlink:href="#bbburst-shape-5" width="5.51301165711589" opacity="0.8952814110044733" transform="matrix(0.9983789725594785,0.05691596569575334,-0.05691596569575334,0.9983789725594785,389.72599114682345,-35.60871187238877)" fill="#a020f0"></use><use xlink:href="#bbburst-shape-5" width="5.612455397159243" opacity="0.8845760493223587" transform="matrix(0.8250930298702647,0.5649968956193534,-0.5649968956193534,0.8250930298702647,674.2606239713101,56.55422712791011)" fill="#a020f0"></use><use xlink:href="#bbburst-shape-10" width="5.941747445089649" opacity="0.9071504604008929" transform="matrix(0.9167508676896732,-0.39945944298543157,0.39945944298543157,0.9167508676896732,196.235913683403,27.880338712114337)" fill="none" stroke="#a020f0"></use><use xlink:href="#bbburst-shape-5" width="13.47608335632923" opacity="0.6553129802181912" transform="matrix(0.7780565614672549,0.6281942272559911,-0.6281942272559911,0.7780565614672549,744.2169910185328,204.62441477417906)" fill="#2c289d"></use><use xlink:href="#bbburst-shape-10" width="23.032708898459305" opacity="0.5233107285641705" transform="matrix(0.9598854883881087,-0.2803923129865047,0.2803923129865047,0.9598854883881087,310.79633370035117,-192.52239574630153)" fill="none" stroke="#a020f0"></use><use xlink:href="#bbburst-shape-10" width="24.435211018647994" opacity="0.17788355363516162" transform="matrix(0.9922365994882815,-0.12436450713902167,0.12436450713902167,0.9922365994882815,359.52020062949543,373.95838525392224)" fill="none" stroke="#a020f0"></use><use xlink:href="#bbburst-shape-10" width="23.96992521006243" opacity="0.42132529875540314" transform="matrix(0.8913287170287616,-0.45335760520792184,0.45335760520792184,0.8913287170287616,205.77710095567295,-211.49236362319368)" fill="none" stroke="#2c289d"></use><use xlink:href="#bbburst-shape-10" width="21.211977263860174" opacity="0.38789902357607076" transform="matrix(0.9147038077030929,0.40412491159722297,-0.40412491159722297,0.9147038077030929,810.0752379784884,125.961601299265)" fill="none" stroke="#a020f0"></use><use xlink:href="#bbburst-shape-10" width="14.198913366815521" opacity="0.5862663621892672" transform="matrix(0.8946571790057734,-0.4467533234945563,0.4467533234945563,0.8946571790057734,29.739779951314034,64.31654769030018)" fill="none" stroke="#2c289d"></use><use xlink:href="#bbburst-shape-10" width="24.370240959370836" opacity="0.28761560191142455" transform="matrix(0.9999512328564419,0.009875824465925349,-0.009875824465925349,0.9999512328564419,471.9094876970567,310.29251332452424)" fill="none" stroke="#2c289d"></use><use xlink:href="#bbburst-shape-10" width="5.65180863785544" opacity="0.9375444793758034" transform="matrix(0.8451053529998661,-0.5345997964187524,0.5345997964187524,0.8451053529998661,185.33817898123655,91.52989299111988)" fill="none" stroke="#a020f0"></use><use xlink:href="#bbburst-shape-10" width="7.369164677035965" opacity="0.8796783254806927" transform="matrix(0.9989530100860124,0.045748045205178035,-0.045748045205178035,0.9989530100860124,427.3666689364121,52.87283724273732)" fill="none" stroke="#a020f0"></use><use xlink:href="#bbburst-shape-10" width="29.278828758704435" opacity="0.007896828460084993" transform="matrix(0.984555959486623,-0.17507016490360408,0.17507016490360408,0.984555959486623,588.8436638224576,-344.28878056781275)" fill="none" stroke="#2c289d"></use><use xlink:href="#bbburst-shape-10" width="22.82012801295189" opacity="0.48068661239042876" transform="matrix(0.9999974224022891,-0.0022705040801406307,0.0022705040801406307,0.9999974224022891,157.5743698798916,40.79550211586559)" fill="none" stroke="#a020f0"></use><use xlink:href="#bbburst-shape-5" width="20.151797206130784" opacity="0.3282346710733436" transform="matrix(0.8733293141427122,0.48713027934939523,-0.48713027934939523,0.8733293141427122,705.3590553987447,-231.99503177750682)" fill="#2c289d"></use><use xlink:href="#bbburst-shape-10" width="25.598621061211283" opacity="0.36582552612655983" transform="matrix(0.9553463347712547,0.29548837648734977,-0.29548837648734977,0.9553463347712547,326.24750284637776,-207.59959705753573)" fill="none" stroke="#a020f0"></use><use xlink:href="#bbburst-shape-5" width="30.581773050721328" opacity="0.32224292334506976" transform="matrix(0.9036455872793395,0.428281043930942,-0.428281043930942,0.9036455872793395,860.9702347021619,62.35768584393912)" fill="#2c289d"></use><use xlink:href="#bbburst-shape-10" width="20.013565538981542" opacity="0.5160093630745288" transform="matrix(0.842070510040448,0.539367459270783,-0.539367459270783,0.842070510040448,444.47210097951915,202.39598232784425)" fill="none" stroke="#a020f0"></use><use xlink:href="#bbburst-shape-10" width="8.303933034252749" opacity="0.8116180951743703" transform="matrix(0.9999669885960965,-0.008125374948531716,0.008125374948531716,0.9999669885960965,334.6670229096962,61.93609265126696)" fill="none" stroke="#2c289d"></use><use xlink:href="#bbburst-shape-10" width="31.080755820578418" opacity="0.18372132402067187" transform="matrix(0.9640726236243876,-0.2656388081173192,0.2656388081173192,0.9640726236243876,631.7392132759776,120.16187692319477)" fill="none" stroke="#a020f0"></use><use xlink:href="#bbburst-shape-10" width="8.205266587586364" opacity="0.8328016869803905" transform="matrix(0.980125160904176,-0.19838011231613714,0.19838011231613714,0.980125160904176,374.69423814286995,56.60859609920857)" fill="none" stroke="#2c289d"></use><use xlink:href="#bbburst-shape-10" width="7.488153612897705" opacity="0.9241523741271062" transform="matrix(0.8698933077352194,-0.49323993467427074,0.49323993467427074,0.8698933077352194,221.03022330316307,27.44847824757801)" fill="none" stroke="#a020f0"></use><use xlink:href="#bbburst-shape-5" width="29.430542452183577" opacity="0.026298517107838704" transform="matrix(0.8390380829859644,-0.5440726930284573,0.5440726930284573,0.8390380829859644,537.5737710673588,-166.13897027187926)" fill="#2c289d"></use><use xlink:href="#bbburst-shape-10" width="8.994738118340484" opacity="0.8564749248845487" transform="matrix(0.811385256941207,0.5845117319767427,-0.5845117319767427,0.811385256941207,595.5089918753404,127.3240219307304)" fill="none" stroke="#a020f0"></use><use xlink:href="#bbburst-shape-10" width="24.484185693010353" opacity="0.45032219590041267" transform="matrix(0.9821524152345429,0.1880867705314597,-0.1880867705314597,0.9821524152345429,620.0239240797889,196.1326674131589)" fill="none" stroke="#2c289d"></use><use xlink:href="#bbburst-shape-5" width="34.741193484407525" opacity="-0.1091278322659821" transform="matrix(0.9142818637788596,0.40507860171213045,-0.40507860171213045,0.9142818637788596,191.77654441590826,-324.21457212475275)" fill="#a020f0"></use><use xlink:href="#bbburst-shape-10" width="14.781202100790432" opacity="0.6358127489887634" transform="matrix(0.8717314165731795,-0.4899840174529347,0.4899840174529347,0.8717314165731795,326.4716781783189,156.12556709796098)" fill="none" stroke="#a020f0"></use><use xlink:href="#bbburst-shape-5" width="10.5235551030473" opacity="0.7386313782572869" transform="matrix(0.9307719740582271,0.3656002356505684,-0.3656002356505684,0.9307719740582271,436.64337707969946,-27.81959842643107)" fill="#2c289d"></use><use xlink:href="#bbburst-shape-5" width="10.18617514127701" opacity="0.7365771929285123" transform="matrix(0.7154802838489203,-0.6986329246632086,0.6986329246632086,0.7154802838489203,-1.624907590436976,119.09015649384094)" fill="#a020f0"></use><use xlink:href="#bbburst-shape-5" width="19.41202863029797" opacity="0.5907377003498657" transform="matrix(0.8589783877669876,-0.5120118449305902,0.5120118449305902,0.8589783877669876,159.64791443466694,243.525083080093)" fill="#2c289d"></use><use xlink:href="#bbburst-shape-10" width="17.540423769962775" opacity="0.6138154140194352" transform="matrix(0.9700204103238863,0.2430234629723623,-0.2430234629723623,0.9700204103238863,444.5989859239965,-158.23315563585084)" fill="none" stroke="#a020f0"></use><use xlink:href="#bbburst-shape-5" width="10.78227973583073" opacity="0.694744484901467" transform="matrix(0.9943267639360294,-0.10636863504108575,0.10636863504108575,0.9943267639360294,420.63864033655204,121.88262672202404)" fill="#2c289d"></use><use xlink:href="#bbburst-shape-5" width="7.232378208177108" opacity="0.9041060089870792" transform="matrix(0.9921654839194848,-0.12493059080471246,0.12493059080471246,0.9921654839194848,304.98073695860126,15.554624526757834)" fill="#2c289d"></use><use xlink:href="#bbburst-shape-5" width="4.919711542918919" opacity="0.9258208715397412" transform="matrix(0.7905554669303804,0.6123904422070027,-0.6123904422070027,0.7905554669303804,626.3261655010809,53.36011304450159)" fill="#2c289d"></use><use xlink:href="#bbburst-shape-5" width="9.900765650093103" opacity="0.8255010597928771" transform="matrix(0.8292545452214216,0.558871093571329,-0.558871093571329,0.8292545452214216,600.2389395927339,-10.608401600311083)" fill="#a020f0"></use><use xlink:href="#bbburst-shape-10" width="24.175257820084116" opacity="0.2515026911290019" transform="matrix(0.8648748788332543,-0.5019874938314336,0.5019874938314336,0.8648748788332543,417.98977251534404,-186.6607706690357)" fill="none" stroke="#2c289d"></use><use xlink:href="#bbburst-shape-5" width="6.9828654692665815" opacity="0.8976944300569214" transform="matrix(0.7957349196096624,0.6056450591838459,-0.6056450591838459,0.7957349196096624,626.0797951009615,35.54724808913517)" fill="#2c289d"></use><use xlink:href="#bbburst-shape-5" width="18.566071123145246" opacity="0.5405593667110016" transform="matrix(0.7353162398137922,-0.6777241529310473,0.6777241529310473,0.7353162398137922,-84.15847293440453,97.71678889056392)" fill="#2c289d"></use><use xlink:href="#bbburst-shape-5" width="32.767934689672366" opacity="0.11485629121519314" transform="matrix(0.7926116053854902,0.6097268593462453,-0.6097268593462453,0.7926116053854902,927.5034519875334,-192.89847201446315)" fill="#2c289d"></use><use xlink:href="#bbburst-shape-10" width="10.013726441184737" opacity="0.7548676118495943" transform="matrix(0.9838022280748102,0.17925729004712498,-0.17925729004712498,0.9838022280748102,394.3004022294501,-77.57681461619285)" fill="none" stroke="#2c289d"></use><use xlink:href="#bbburst-shape-10" width="24.74803308800036" opacity="0.4248523144639782" transform="matrix(0.9723808773603694,0.23339972010239912,-0.23339972010239912,0.9723808773603694,360.92229392613484,-220.94414962887225)" fill="none" stroke="#a020f0"></use><use xlink:href="#bbburst-shape-10" width="29.858205407164895" opacity="0.4113183602784598" transform="matrix(0.8568163553247683,0.515621695866243,-0.515621695866243,0.8568163553247683,837.743949605079,-52.891643515710484)" fill="none" stroke="#a020f0"></use><use xlink:href="#bbburst-shape-10" width="23.822147679419437" opacity="0.32032085483963013" transform="matrix(0.7598356664762022,-0.6501151897553739,0.6501151897553739,0.7598356664762022,127.23686352577556,409.64292451239817)" fill="none" stroke="#a020f0"></use><use xlink:href="#bbburst-shape-10" width="18.849477607561475" opacity="0.38224761723441125" transform="matrix(0.9993483636876085,-0.03609498573069903,0.03609498573069903,0.9993483636876085,242.90544298848465,244.57890111738658)" fill="none" stroke="#a020f0"></use><use xlink:href="#bbburst-shape-5" width="6.190083346380238" opacity="0.9567469398963069" transform="matrix(0.9745745593099376,0.22406344714352844,-0.22406344714352844,0.9745745593099376,470.35621986654303,20.185968335660277)" fill="#2c289d"></use><use xlink:href="#bbburst-shape-10" width="30.52594379515859" opacity="0.2474188193052549" transform="matrix(0.9648594035707811,0.2627666861324632,-0.2627666861324632,0.9648594035707811,233.9949832940382,-211.21962317647223)" fill="none" stroke="#a020f0"></use><use xlink:href="#bbburst-shape-10" width="6.496375679289951" opacity="0.8964706422576282" transform="matrix(0.9814261361345814,0.19184040062496246,-0.19184040062496246,0.9814261361345814,512.0938681330852,-19.36037504871041)" fill="none" stroke="#a020f0"></use><use xlink:href="#bbburst-shape-5" width="31.644273171199547" opacity="0.34514235871909216" transform="matrix(0.7912457280643098,0.6114983220091289,-0.6114983220091289,0.7912457280643098,347.40940624351674,-2.3469111320627576)" fill="#2c289d"></use><use xlink:href="#bbburst-shape-5" width="6.8228792151487925" opacity="0.8601114316887676" transform="matrix(0.9967833126614061,0.08014379327030575,-0.08014379327030575,0.9967833126614061,385.03988790195115,-44.37645899211253)" fill="#2c289d"></use><use xlink:href="#bbburst-shape-10" width="27.43608934802706" opacity="0.09515069724165104" transform="matrix(0.9292932652979897,-0.3693426959773267,0.3693426959773267,0.9292932652979897,-45.801965091873996,-257.15306967855355)" fill="none" stroke="#a020f0"></use><use xlink:href="#bbburst-shape-10" width="8.689791697928277" opacity="0.8297226512248436" transform="matrix(0.8965749033361585,0.4428921343936445,-0.4428921343936445,0.8965749033361585,648.7115220931662,52.81095621545029)" fill="none" stroke="#2c289d"></use><use xlink:href="#bbburst-shape-5" width="14.364738050277998" opacity="0.6242013493076835" transform="matrix(0.9880738066220335,-0.1539810139836868,0.1539810139836868,0.9880738066220335,496.06731142095293,43.998757643142085)" fill="#a020f0"></use><use xlink:href="#bbburst-shape-10" width="33.28543972936888" opacity="-0.10935289306828277" transform="matrix(0.9536952527636275,0.3007746080641127,-0.3007746080641127,0.9536952527636275,863.0572225447355,-333.7611017336488)" fill="none" stroke="#2c289d"></use><use xlink:href="#bbburst-shape-5" width="10.220584267306844" opacity="0.8098892753436251" transform="matrix(0.843996645204979,-0.5363484528575997,0.5363484528575997,0.843996645204979,121.97626276990587,3.3560607656134493)" fill="#2c289d"></use><use xlink:href="#bbburst-shape-5" width="5.779716884840367" opacity="0.9359552878802917" transform="matrix(0.8642363600634284,0.503085990606294,-0.503085990606294,0.8642363600634284,627.4442537986065,55.39831192486463)" fill="#2c289d"></use><use xlink:href="#bbburst-shape-10" width="8.11182124094407" opacity="0.8335603015600561" transform="matrix(0.9508029959071684,-0.3097961635881777,0.3097961635881777,0.9508029959071684,234.1178173584711,-43.54352889615609)" fill="none" stroke="#2c289d"></use><use xlink:href="#bbburst-shape-10" width="14.779600894922734" opacity="0.5639709642709971" transform="matrix(0.9544050674678923,-0.29851460130386903,0.29851460130386903,0.9544050674678923,371.8230100455206,190.26817522815497)" fill="none" stroke="#2c289d"></use><use xlink:href="#bbburst-shape-10" width="16.454761931297316" opacity="0.6501999043078254" transform="matrix(0.9973634922476089,0.07256765348041604,-0.07256765348041604,0.9973634922476089,288.1202336897537,-84.20845823790654)" fill="none" stroke="#a020f0"></use><use xlink:href="#bbburst-shape-5" width="28.448013287711863" opacity="0.5092280117019468" transform="matrix(0.9419594180283896,-0.335726756139003,0.335726756139003,0.9419594180283896,171.8756322425344,233.67035189579548)" fill="#a020f0"></use><use xlink:href="#bbburst-shape-5" width="8.481432319995719" opacity="0.8357635589829996" transform="matrix(0.9805777336428493,-0.19613084480482262,0.19613084480482262,0.9805777336428493,365.09429580737793,-47.84747789760536)" fill="#a020f0"></use><use xlink:href="#bbburst-shape-5" width="8.284936743127513" opacity="0.9039239800284763" transform="matrix(0.984975205027875,0.1726958177846114,-0.1726958177846114,0.984975205027875,449.21612429345555,45.54532162040073)" fill="#2c289d"></use><use xlink:href="#bbburst-shape-10" width="24.800412782620164" opacity="0.17374155587450435" transform="matrix(0.8948056276972192,-0.44645592015493046,0.44645592015493046,0.8948056276972192,239.03475402618366,-323.0920975610157)" fill="none" stroke="#2c289d"></use><use xlink:href="#bbburst-shape-5" width="13.904077031545405" opacity="0.7015105086336973" transform="matrix(0.8795838148768196,0.475743956983944,-0.475743956983944,0.8795838148768196,482.8375272343121,-43.29474689945283)" fill="#a020f0"></use><use xlink:href="#bbburst-shape-5" width="6.054663980856304" opacity="0.8833870499743977" transform="matrix(0.9435370035983914,-0.3312671472400621,0.3312671472400621,0.9435370035983914,218.35200014019463,-1.1391587004891335)" fill="#a020f0"></use><use xlink:href="#bbburst-shape-10" width="8.682685667307757" opacity="0.7977448738427276" transform="matrix(0.7559383778614384,0.654642779595267,-0.654642779595267,0.7559383778614384,679.1399507253478,183.443721315049)" fill="none" stroke="#2c289d"></use><use xlink:href="#bbburst-shape-5" width="16.729010531243766" opacity="0.6997529444713174" transform="matrix(0.9217799598895552,0.3877134322486262,-0.3877134322486262,0.9217799598895552,674.160464704534,74.74094142442908)" fill="#2c289d"></use><use xlink:href="#bbburst-shape-5" width="25.095741151928003" opacity="0.014621776599725744" transform="matrix(0.9289044443216573,0.37031950167318095,-0.37031950167318095,0.9289044443216573,282.9882968777215,-340.0318857908112)" fill="#2c289d"></use><use xlink:href="#bbburst-shape-10" width="14.239086711800415" opacity="0.6435740345666453" transform="matrix(0.9064354834106553,0.4223443078982973,-0.4223443078982973,0.9064354834106553,722.7720419361974,28.64520923349056)" fill="none" stroke="#2c289d"></use><use xlink:href="#bbburst-shape-10" width="14.619608932278407" opacity="0.648328838315497" transform="matrix(0.7518618156025901,-0.6593207187998696,0.6593207187998696,0.7518618156025901,60.64500550864091,-37.78917578472772)" fill="none" stroke="#a020f0"></use><use xlink:href="#bbburst-shape-10" width="13.684887787383456" opacity="0.6786675113441025" transform="matrix(0.9055177039650021,-0.4243084818925388,0.4243084818925388,0.9055177039650021,80.41698409381516,57.12187338803608)" fill="none" stroke="#a020f0"></use><use xlink:href="#bbburst-shape-5" width="24.326917787136303" opacity="0.4967578891856529" transform="matrix(0.8474303975521293,0.5309065090057193,-0.5309065090057193,0.8474303975521293,787.7560510930123,184.18017088119342)" fill="#a020f0"></use><use xlink:href="#bbburst-shape-10" width="12.599128701223643" opacity="0.7289641331202297" transform="matrix(0.7308680208073487,-0.6825188174410644,0.6825188174410644,0.7308680208073487,15.632603234605881,170.9350075133222)" fill="none" stroke="#2c289d"></use><use xlink:href="#bbburst-shape-5" width="12.8340323421865" opacity="0.7329903897456308" transform="matrix(0.9182587521406629,-0.3959808885755379,0.3959808885755379,0.9182587521406629,288.81909397308215,-72.54484571831398)" fill="#a020f0"></use><use xlink:href="#bbburst-shape-10" width="18.786519584123482" opacity="0.5511225354125241" transform="matrix(0.9219277667083975,-0.3873618372685499,0.3873618372685499,0.9219277667083975,136.52094873037936,-140.70878185377995)" fill="none" stroke="#a020f0"></use><use xlink:href="#bbburst-shape-10" width="7.278136311155807" opacity="0.8054791393445451" transform="matrix(0.902967182707746,0.42970951461753326,-0.42970951461753326,0.902967182707746,639.0762484503533,-14.6646183570208)" fill="none" stroke="#2c289d"></use><use xlink:href="#bbburst-shape-5" width="33.881551446499124" opacity="0.11118238866705488" transform="matrix(0.8824477015560628,-0.470410516483658,0.470410516483658,0.8824477015560628,35.632236156875194,-311.0310263514882)" fill="#a020f0"></use><use xlink:href="#bbburst-shape-5" width="34.51039144073323" opacity="0.11042059332289444" transform="matrix(0.7612797502855218,-0.64842358208598,0.64842358208598,0.7612797502855218,-238.146956021954,269.6337794377742)" fill="#2c289d"></use><use xlink:href="#bbburst-shape-10" width="8.76468325935207" opacity="0.8325865857554786" transform="matrix(0.9972417342043135,0.07422212312493669,-0.07422212312493669,0.9972417342043135,350.0102187745642,-1.2631838708693408)" fill="none" stroke="#2c289d"></use><use xlink:href="#bbburst-shape-5" width="32.714132887813996" opacity="0.36541900301520513" transform="matrix(0.8443625872986369,-0.5357721728219484,0.5357721728219484,0.8443625872986369,402.1802586629866,239.85896391954003)" fill="#a020f0"></use><use xlink:href="#bbburst-shape-10" width="12.916162951878423" opacity="0.6281098424191448" transform="matrix(0.9244275037726177,0.3813578244493312,-0.3813578244493312,0.9244275037726177,693.8643409107757,-51.67879448044761)" fill="none" stroke="#2c289d"></use><use xlink:href="#bbburst-shape-5" width="11.592466676256564" opacity="0.7828423650102285" transform="matrix(0.9431915245417398,0.3322495267605788,-0.3322495267605788,0.9431915245417398,602.2075409300327,83.71121961375115)" fill="#a020f0"></use><use xlink:href="#bbburst-shape-5" width="6.599604496210879" opacity="0.8387631583185088" transform="matrix(0.9999292303288494,0.011896820329604998,-0.011896820329604998,0.9999292303288494,340.34766187606675,-39.12414019742886)" fill="#2c289d"></use><use xlink:href="#bbburst-shape-5" width="21.745957066479615" opacity="0.13377093447903676" transform="matrix(0.9985236396465136,-0.054318883153831474,0.054318883153831474,0.9985236396465136,483.1808860089707,-371.03493435753705)" fill="#2c289d"></use><use xlink:href="#bbburst-shape-10" width="13.44023441822309" opacity="0.6380461550421515" transform="matrix(0.9667181932899344,0.2558435747917955,-0.2558435747917955,0.9667181932899344,520.0168642593691,172.66847478730392)" fill="none" stroke="#a020f0"></use><use xlink:href="#bbburst-shape-5" width="10.883643140255238" opacity="0.8432235904647106" transform="matrix(0.9800960286855064,0.1985239898725065,-0.1985239898725065,0.9800960286855064,543.5670078006959,-5.293740147120445)" fill="#2c289d"></use><use xlink:href="#bbburst-shape-10" width="15.73576268309456" opacity="0.5461842557362857" transform="matrix(0.8839966248098482,-0.4674932805129892,0.4674932805129892,0.8839966248098482,396.0402239512035,-24.80289504164324)" fill="none" stroke="#2c289d"></use><use xlink:href="#bbburst-shape-5" width="8.836949552305143" opacity="0.8064731306607844" transform="matrix(0.9609683395567182,-0.2766583639971939,0.2766583639971939,0.9609683395567182,205.24231305603317,-17.927065032293342)" fill="#2c289d"></use><use xlink:href="#bbburst-shape-5" width="8.55896421578144" opacity="0.8632567457575515" transform="matrix(0.9788416785294985,-0.204619081157046,0.204619081157046,0.9788416785294985,331.97646814710686,-49.49994863241227)" fill="#2c289d"></use><use xlink:href="#bbburst-shape-10" width="13.480728105054698" opacity="0.7420968547223752" transform="matrix(0.71283736111009,-0.7013293781138811,0.7013293781138811,0.71283736111009,27.659085418523944,196.39934169026503)" fill="none" stroke="#2c289d"></use><use xlink:href="#bbburst-shape-10" width="7.974003754666473" opacity="0.812467546900057" transform="matrix(0.8073640446775721,-0.5900536410885635,0.5900536410885635,0.8073640446775721,125.31712301708689,155.99306871794073)" fill="none" stroke="#a020f0"></use><use xlink:href="#bbburst-shape-10" width="29.502485361350743" opacity="0.29853967748622057" transform="matrix(0.9402106110500629,0.34059360955377205,-0.34059360955377205,0.9402106110500629,491.5050073657676,-295.25313612961594)" fill="none" stroke="#a020f0"></use><use xlink:href="#bbburst-shape-5" width="4.435760499949819" opacity="0.9493976296817775" transform="matrix(0.9998477228742301,-0.01745081841109099,0.01745081841109099,0.9998477228742301,410.63881608431217,11.281178758952024)" fill="#a020f0"></use><use xlink:href="#bbburst-shape-10" width="16.704882804375742" opacity="0.6198516364670111" transform="matrix(0.980531785370841,0.19636042849176888,-0.19636042849176888,0.980531785370841,395.4584580876782,159.94721539486073)" fill="none" stroke="#a020f0"></use><use xlink:href="#bbburst-shape-10" width="30.99806869794255" opacity="0.33972045175603705" transform="matrix(0.8582982585632446,-0.51315114668809,0.51315114668809,0.8582982585632446,-107.31166573218091,134.69189303298924)" fill="none" stroke="#a020f0"></use><use xlink:href="#bbburst-shape-5" width="18.83159383278312" opacity="0.5163325447306366" transform="matrix(0.7240846445074063,-0.6897111189393593,0.6897111189393593,0.7240846445074063,49.92772285790147,-90.10093055899782)" fill="#2c289d"></use><use xlink:href="#bbburst-shape-10" width="26.693784654768756" opacity="0.35003868011284034" transform="matrix(0.8386582267643116,0.544658038296086,-0.544658038296086,0.8386582267643116,533.7535741664524,340.51498853522435)" fill="none" stroke="#2c289d"></use><use xlink:href="#bbburst-shape-5" width="15.92193638230244" opacity="0.5119285232434624" transform="matrix(0.901041013392084,0.4337338955919474,-0.4337338955919474,0.901041013392084,422.77194281160496,-130.09846893341484)" fill="#a020f0"></use><use xlink:href="#bbburst-shape-10" width="30.077497147344673" opacity="0.23299579829659678" transform="matrix(0.8775362672668611,0.4795102706213333,-0.4795102706213333,0.8775362672668611,340.7071199812882,291.8411414558321)" fill="none" stroke="#2c289d"></use><use xlink:href="#bbburst-shape-10" width="5.937658506443034" opacity="0.9099422175216341" transform="matrix(0.9992080679048058,-0.039789911208057326,0.039789911208057326,0.9992080679048058,416.33622617378654,20.484893880914967)" fill="none" stroke="#a020f0"></use><use xlink:href="#bbburst-shape-5" width="11.634610039121636" opacity="0.6959404684489087" transform="matrix(0.9133118583673365,0.4072609106771755,-0.4072609106771755,0.9133118583673365,422.4948581916349,10.614931410251131)" fill="#a020f0"></use><use xlink:href="#bbburst-shape-5" width="15.076418589105437" opacity="0.5353245448963828" transform="matrix(0.9621298748804742,0.27259145962865927,-0.27259145962865927,0.9621298748804742,322.8794002747416,121.34133943630087)" fill="#2c289d"></use><use xlink:href="#bbburst-shape-10" width="4.055494190298871" opacity="0.9766424977181863" transform="matrix(0.7799897576056216,-0.6257922802578534,0.6257922802578534,0.7799897576056216,137.59501959440635,88.9679792477902)" fill="none" stroke="#2c289d"></use><use xlink:href="#bbburst-shape-10" width="10.651343121614069" opacity="0.7437467340259509" transform="matrix(0.8641546902351407,0.5032262625744091,-0.5032262625744091,0.8641546902351407,599.4469760559149,-63.622850234162684)" fill="none" stroke="#a020f0"></use><use xlink:href="#bbburst-shape-10" width="7.799922970373201" opacity="0.8337753952353315" transform="matrix(0.7217228285644843,-0.6921821716346643,0.6921821716346643,0.7217228285644843,47.4225509922764,130.81107430964926)" fill="none" stroke="#a020f0"></use><use xlink:href="#bbburst-shape-10" width="23.359152761814755" opacity="0.09254562374465247" transform="matrix(0.790971325602897,0.6118532193868036,-0.6118532193868036,0.790971325602897,1001.4502485418944,257.6724089248851)" fill="none" stroke="#2c289d"></use><use xlink:href="#bbburst-shape-10" width="15.36589020842406" opacity="0.5309725921637788" transform="matrix(0.9995934647357844,-0.02851149342827008,0.02851149342827008,0.9995934647357844,588.6524057682171,-36.93747058924663)" fill="none" stroke="#a020f0"></use><use xlink:href="#bbburst-shape-5" width="33.510851474669295" opacity="0.04000426278563318" transform="matrix(0.9914675509053532,0.13035373221254887,-0.13035373221254887,0.9914675509053532,88.23669234937637,258.15371599160284)" fill="#2c289d"></use><use xlink:href="#bbburst-shape-5" width="5.913861343593448" opacity="0.8669327935478408" transform="matrix(0.9682908949945849,0.249825424387883,-0.249825424387883,0.9682908949945849,548.8430450589818,42.02622883904104)" fill="#a020f0"></use><use xlink:href="#bbburst-shape-5" width="14.93732488536" opacity="0.6604614374455673" transform="matrix(0.7805349464983777,0.6251121477741212,-0.6251121477741212,0.7805349464983777,709.4764255857074,-55.036589014504784)" fill="#a020f0"></use><use xlink:href="#bbburst-shape-10" width="5.8279202706756505" opacity="0.9719940598491954" transform="matrix(0.8583019737702932,-0.5131449325697555,0.5131449325697555,0.8583019737702932,189.1081630379641,70.38157794358938)" fill="none" stroke="#a020f0"></use><use xlink:href="#bbburst-shape-5" width="9.183189056648617" opacity="0.8003330662523636" transform="matrix(0.7303822375086988,0.6830386424879538,-0.6830386424879538,0.7303822375086988,581.6595920492557,87.5817114661856)" fill="#a020f0"></use><use xlink:href="#bbburst-shape-10" width="7.677997260554594" opacity="0.8673837096046302" transform="matrix(0.7446823215360717,-0.6674190887228554,0.6674190887228554,0.7446823215360717,107.023395895237,49.685155868620825)" fill="none" stroke="#a020f0"></use><use xlink:href="#bbburst-shape-10" width="11.372073925535359" opacity="0.7981301133772395" transform="matrix(0.8855227433773347,-0.4645960298597901,0.4645960298597901,0.8855227433773347,259.4256031356549,124.0776134493957)" fill="none" stroke="#a020f0"></use><use xlink:href="#bbburst-shape-5" width="20.345923620645834" opacity="0.45902028864547384" transform="matrix(0.9274199887714264,-0.374021609572505,0.374021609572505,0.9274199887714264,332.83435737693947,-192.60036574959176)" fill="#a020f0"></use><use xlink:href="#bbburst-shape-5" width="24.431401657909237" opacity="0.1364070575562487" transform="matrix(0.8543207670885156,-0.5197461177548999,0.5197461177548999,0.8543207670885156,308.3627518025874,432.0045113227645)" fill="#a020f0"></use><use xlink:href="#bbburst-shape-10" width="27.794008334616727" opacity="0.411310794242861" transform="matrix(0.9649721183277644,0.26235245539164864,-0.26235245539164864,0.9649721183277644,605.4049968724571,249.55145034692447)" fill="none" stroke="#2c289d"></use><use xlink:href="#bbburst-shape-10" width="25.643679286358296" opacity="0.1350960004847186" transform="matrix(0.9904282891780603,-0.1380282724510474,0.1380282724510474,0.9904282891780603,703.261433121915,-111.5056810859864)" fill="none" stroke="#2c289d"></use><use xlink:href="#bbburst-shape-5" width="16.45130624251695" opacity="0.6471103611289413" transform="matrix(0.9981868532238151,0.060191411772260214,-0.060191411772260214,0.9981868532238151,274.1436320485978,71.87067863675748)" fill="#a020f0"></use><use xlink:href="#bbburst-shape-5" width="23.414899755821942" opacity="0.5486473936408243" transform="matrix(0.8061051110576032,-0.5917723801655576,0.5917723801655576,0.8061051110576032,171.25148459523678,286.8482690979559)" fill="#a020f0"></use><use xlink:href="#bbburst-shape-10" width="12.75143352548232" opacity="0.6206879476999636" transform="matrix(0.7937191038635927,0.6082844599050475,-0.6082844599050475,0.7937191038635927,474.2609389910773,125.98109848640195)" fill="none" stroke="#2c289d"></use><use xlink:href="#bbburst-shape-10" width="14.446061006585676" opacity="0.6950138807642143" transform="matrix(0.9007489204396342,0.434340168907774,-0.434340168907774,0.9007489204396342,679.048406331999,-43.01366266878807)" fill="none" stroke="#a020f0"></use><use xlink:href="#bbburst-shape-10" width="14.374004498160595" opacity="0.726893626105304" transform="matrix(0.8831860039952325,-0.46902290172968436,0.46902290172968436,0.8831860039952325,229.65676044067524,170.70448528198216)" fill="none" stroke="#2c289d"></use><use xlink:href="#bbburst-shape-5" width="11.660760718330916" opacity="0.7975675103783874" transform="matrix(0.9438792509542889,0.33029071984839425,-0.33029071984839425,0.9438792509542889,611.9633496975475,-11.313943650411261)" fill="#2c289d"></use><use xlink:href="#bbburst-shape-5" width="30.31342924724503" opacity="0.18523667726863735" transform="matrix(0.9519825783281045,-0.3061522016249014,0.3061522016249014,0.9519825783281045,554.7936726857868,245.99178952824292)" fill="#a020f0"></use><use xlink:href="#bbburst-shape-10" width="17.318242928362984" opacity="0.6490259769749218" transform="matrix(0.982712620203208,0.18513753291362967,-0.18513753291362967,0.982712620203208,617.9539413351217,-36.11533126408966)" fill="none" stroke="#2c289d"></use><use xlink:href="#bbburst-shape-10" width="15.52625886411636" opacity="0.5123416301407955" transform="matrix(0.9976434087383695,0.06861216365110812,-0.06861216365110812,0.9976434087383695,397.98546059415713,-217.9592894526446)" fill="none" stroke="#2c289d"></use><use xlink:href="#bbburst-shape-5" width="13.987285547698322" opacity="0.6077103276495526" transform="matrix(0.9582569409251372,-0.28590843843580055,0.28590843843580055,0.9582569409251372,412.39776028729057,-96.84817316523402)" fill="#2c289d"></use><use xlink:href="#bbburst-shape-10" width="10.96134707840881" opacity="0.7201624482016411" transform="matrix(0.9426164516413262,0.3338775600352849,-0.3338775600352849,0.9426164516413262,633.8168065954657,89.98349166928972)" fill="none" stroke="#2c289d"></use><use xlink:href="#bbburst-shape-5" width="17.796663336170965" opacity="0.6018337111926089" transform="matrix(0.7071538850716276,-0.7070596741634354,0.7070596741634354,0.7071538850716276,215.94124070820703,-21.712983441382477)" fill="#2c289d"></use><use xlink:href="#bbburst-shape-5" width="7.565917858865419" opacity="0.8223328427510467" transform="matrix(0.7327772630160773,0.680468575914176,-0.680468575914176,0.7327772630160773,701.6563722592703,31.153750723644976)" fill="#2c289d"></use><use xlink:href="#bbburst-shape-10" width="23.554672194551284" opacity="0.4137928612314369" transform="matrix(0.7479181112008746,0.6637910054661152,-0.6637910054661152,0.7479181112008746,919.2551472905866,67.40633520286298)" fill="none" stroke="#2c289d"></use><use xlink:href="#bbburst-shape-10" width="28.58566467678193" opacity="0.19554823697439472" transform="matrix(0.9665061475903766,-0.2566434621610479,0.2566434621610479,0.9665061475903766,643.9961893496352,-16.242254354031957)" fill="none" stroke="#2c289d"></use><use xlink:href="#bbburst-shape-5" width="17.80830967463366" opacity="0.6450272283676697" transform="matrix(0.9844453268173974,-0.17569120213427805,0.17569120213427805,0.9844453268173974,198.46573228330186,110.31343683031133)" fill="#a020f0"></use><use xlink:href="#bbburst-shape-10" width="25.32684055699091" opacity="0.17307496285311996" transform="matrix(0.8348404426200089,-0.5504919939163762,0.5504919939163762,0.8348404426200089,539.3741620732878,111.30717924400363)" fill="none" stroke="#2c289d"></use><use xlink:href="#bbburst-shape-5" width="14.393468265659617" opacity="0.7013292483859925" transform="matrix(0.7734077002900707,-0.6339089281056265,0.6339089281056265,0.7734077002900707,111.2646461624364,-35.90154153829883)" fill="#a020f0"></use><use xlink:href="#bbburst-shape-10" width="28.460696954242174" opacity="0.21339650973201651" transform="matrix(0.8339141259505913,0.5518942204263977,-0.5518942204263977,0.8339141259505913,408.66140093420125,-233.3166440777092)" fill="none" stroke="#2c289d"></use><use xlink:href="#bbburst-shape-10" width="27.316813729647116" opacity="0.18430573545863016" transform="matrix(0.7250530994595359,0.6886929671225925,-0.6886929671225925,0.7250530994595359,307.49524082669313,181.28374200471973)" fill="none" stroke="#a020f0"></use><use xlink:href="#bbburst-shape-5" width="13.199695507879984" opacity="0.7359651057625405" transform="matrix(0.955571895096184,0.2947581267790382,-0.2947581267790382,0.955571895096184,489.1987226208953,132.51138012679746)" fill="#a020f0"></use><use xlink:href="#bbburst-shape-10" width="14.811248859239228" opacity="0.6842049342964096" transform="matrix(0.9506621061241318,0.31022823852710446,-0.31022823852710446,0.9506621061241318,512.6557527344919,159.47752222409986)" fill="none" stroke="#2c289d"></use><use xlink:href="#bbburst-shape-5" width="8.041946234185641" opacity="0.8577852961182333" transform="matrix(0.9907686734882057,-0.13556340079247475,0.13556340079247475,0.9907686734882057,282.8784555415643,29.23571897370755)" fill="#2c289d"></use><use xlink:href="#bbburst-shape-5" width="22.001443224661614" opacity="0.21108576565052595" transform="matrix(0.7666087706990277,0.6421144700809395,-0.6421144700809395,0.7666087706990277,553.8554494145662,-255.89437595296408)" fill="#2c289d"></use><use xlink:href="#bbburst-shape-5" width="21.52634036868391" opacity="0.4562326816009651" transform="matrix(0.7747768112801413,-0.6322348398360979,0.6322348398360979,0.7747768112801413,380.6165128837546,134.1044848668871)" fill="#2c289d"></use><use xlink:href="#bbburst-shape-5" width="16.855869933435844" opacity="0.1582674388959483" transform="matrix(0.8661069126196798,-0.4998587959738294,0.4998587959738294,0.8661069126196798,143.39044496445538,-317.77887279843293)" fill="#2c289d"></use><use xlink:href="#bbburst-shape-5" width="10.71309488341172" opacity="0.7196088084987262" transform="matrix(0.9525899084914271,-0.30425723695632056,0.30425723695632056,0.9525899084914271,151.9052745358695,55.36899200990962)" fill="#a020f0"></use><use xlink:href="#bbburst-shape-10" width="12.190635530212083" opacity="0.6655832072259069" transform="matrix(0.9052558105248891,-0.4248669409484881,0.4248669409484881,0.9052558105248891,182.68402774830463,185.03827870977165)" fill="none" stroke="#a020f0"></use><use xlink:href="#bbburst-shape-5" width="14.676214519801515" opacity="0.7338076611332883" transform="matrix(0.9706378342309439,-0.24054561887397333,0.24054561887397333,0.9706378342309439,376.72752341564046,102.60472848850469)" fill="#a020f0"></use><use xlink:href="#bbburst-shape-5" width="13.427131625476635" opacity="0.6232739486413341" transform="matrix(0.9699179614506188,-0.2434320193718895,0.2434320193718895,0.9699179614506188,329.8377345625961,-152.47177153515207)" fill="#2c289d"></use><use xlink:href="#bbburst-shape-10" width="20.45256175660426" opacity="0.5030353645491545" transform="matrix(0.8798131362038152,-0.4753197296170304,0.4753197296170304,0.8798131362038152,388.597161185955,-68.60686186368656)" fill="none" stroke="#2c289d"></use><use xlink:href="#bbburst-shape-5" width="5.915551277386277" opacity="0.9051482176996228" transform="matrix(0.8703915012733384,0.49236026902172375,-0.49236026902172375,0.8703915012733384,595.6953419068152,93.04981950695111)" fill="#2c289d"></use><use xlink:href="#bbburst-shape-10" width="36.02040514497174" opacity="0.23970479283555235" transform="matrix(0.8140960973193305,0.5807301820376095,-0.5807301820376095,0.8140960973193305,323.3681454508493,238.44423832070242)" fill="none" stroke="#2c289d"></use><use xlink:href="#bbburst-shape-5" width="32.236632167462474" opacity="0.30511675637002267" transform="matrix(0.9969536248715932,-0.07799660156308524,0.07799660156308524,0.9969536248715932,559.2193830772391,237.30061251485364)" fill="#2c289d"></use><use xlink:href="#bbburst-shape-5" width="7.50557119787445" opacity="0.84484434378436" transform="matrix(0.8843270224476337,-0.4668679870893938,0.4668679870893938,0.8843270224476337,154.777730057014,90.83026175491244)" fill="#2c289d"></use><use xlink:href="#bbburst-shape-10" width="17.569507148586474" opacity="0.49458011387593537" transform="matrix(0.8296486348725504,-0.5582858968791112,0.5582858968791112,0.8296486348725504,292.86325543276246,-117.96461857409452)" fill="none" stroke="#2c289d"></use><use xlink:href="#bbburst-shape-10" width="6.404921820729421" opacity="0.913629483554953" transform="matrix(0.7286338220864541,0.6849034627680646,-0.6849034627680646,0.7286338220864541,670.4815886925771,67.50327259941287)" fill="none" stroke="#a020f0"></use></svg>