<svg xmlns="http://www.w3.org/2000/svg" version="1.1" xmlns:xlink="http://www.w3.org/1999/xlink" xmlns:svgjs="http://svgjs.com/svgjs" width="1440" height="6000" preserveAspectRatio="none" viewBox="0 0 1440 6000"><g mask="url(&quot;#SvgjsMask1015&quot;)" fill="none"><path d="M0 -121L104.79 -60.5L104.79 60.5L0 121L-104.79 60.5L-104.79 -60.5zM104.79 60.5L209.58 121L209.58 242L104.79 302.5L0 242L0 121zM0 242L104.79 302.5L104.79 423.5L0 484L-104.79 423.5L-104.79 302.5zM104.79 423.5L209.58 484L209.58 605L104.79 665.5L0 605L0 484zM0 605L104.79 665.5L104.79 786.5L0 847L-104.79 786.5L-104.79 665.5zM104.79 786.5L209.58 847L209.58 968L104.79 1028.5L0 968L0 847zM0 968L104.79 1028.5L104.79 1149.5L0 1210L-104.79 1149.5L-104.79 1028.5zM104.79 1149.5L209.58 1210L209.58 1331L104.79 1391.5L0 1331L0 1210zM0 1331L104.79 1391.5L104.79 1512.5L0 1573L-104.79 1512.5L-104.79 1391.5zM104.79 1512.5L209.58 1573L209.58 1694L104.79 1754.5L0 1694L0 1573zM0 1694L104.79 1754.5L104.79 1875.5L0 1936L-104.79 1875.5L-104.79 1754.5zM104.79 1875.5L209.58 1936L209.58 2057L104.79 2117.5L0 2057L0 1936zM0 2057L104.79 2117.5L104.79 2238.5L0 2299L-104.79 2238.5L-104.79 2117.5zM104.79 2238.5L209.58 2299L209.58 2420L104.79 2480.5L0 2420L0 2299zM0 2420L104.79 2480.5L104.79 2601.5L0 2662L-104.79 2601.5L-104.79 2480.5zM104.79 2601.5L209.58 2662L209.58 2783L104.79 2843.5L0 2783L0 2662zM0 2783L104.79 2843.5L104.79 2964.5L0 3025L-104.79 2964.5L-104.79 2843.5zM104.79 2964.5L209.58 3025L209.58 3146L104.79 3206.5L0 3146L0 3025zM0 3146L104.79 3206.5L104.79 3327.5L0 3388L-104.79 3327.5L-104.79 3206.5zM104.79 3327.5L209.58 3388L209.58 3509L104.79 3569.5L0 3509L0 3388zM0 3509L104.79 3569.5L104.79 3690.5L0 3751L-104.79 3690.5L-104.79 3569.5zM104.79 3690.5L209.58 3751L209.58 3872L104.79 3932.5L0 3872L0 3751zM0 3872L104.79 3932.5L104.79 4053.5L0 4114L-104.79 4053.5L-104.79 3932.5zM104.79 4053.5L209.58 4114L209.58 4235L104.79 4295.5L0 4235L0 4114zM0 4235L104.79 4295.5L104.79 4416.5L0 4477L-104.79 4416.5L-104.79 4295.5zM104.79 4416.5L209.58 4477L209.58 4598L104.79 4658.5L0 4598L0 4477zM0 4598L104.79 4658.5L104.79 4779.5L0 4840L-104.79 4779.5L-104.79 4658.5zM104.79 4779.5L209.58 4840L209.58 4961L104.79 5021.5L0 4961L0 4840zM0 4961L104.79 5021.5L104.79 5142.5L0 5203L-104.79 5142.5L-104.79 5021.5zM104.79 5142.5L209.58 5203L209.58 5324L104.79 5384.5L0 5324L0 5203zM0 5324L104.79 5384.5L104.79 5505.5L0 5566L-104.79 5505.5L-104.79 5384.5zM104.79 5505.5L209.58 5566L209.58 5687L104.79 5747.5L0 5687L0 5566zM0 5687L104.79 5747.5L104.79 5868.5L0 5929L-104.79 5868.5L-104.79 5747.5zM104.79 5868.5L209.58 5929L209.58 6050L104.79 6110.5L0 6050L0 5929zM209.58 -121L314.38 -60.5L314.38 60.5L209.58 121L104.79 60.5L104.79 -60.5zM314.38 60.5L419.17 121L419.17 242L314.38 302.5L209.58 242L209.58 121zM209.58 242L314.38 302.5L314.38 423.5L209.58 484L104.79 423.5L104.79 302.5zM314.38 423.5L419.17 484L419.17 605L314.38 665.5L209.58 605L209.58 484zM209.58 605L314.38 665.5L314.38 786.5L209.58 847L104.79 786.5L104.79 665.5zM314.38 786.5L419.17 847L419.17 968L314.38 1028.5L209.58 968L209.58 847zM209.58 968L314.38 1028.5L314.38 1149.5L209.58 1210L104.79 1149.5L104.79 1028.5zM314.38 1149.5L419.17 1210L419.17 1331L314.38 1391.5L209.58 1331L209.58 1210zM209.58 1331L314.38 1391.5L314.38 1512.5L209.58 1573L104.79 1512.5L104.79 1391.5zM314.38 1512.5L419.17 1573L419.17 1694L314.38 1754.5L209.58 1694L209.58 1573zM209.58 1694L314.38 1754.5L314.38 1875.5L209.58 1936L104.79 1875.5L104.79 1754.5zM314.38 1875.5L419.17 1936L419.17 2057L314.38 2117.5L209.58 2057L209.58 1936zM209.58 2057L314.38 2117.5L314.38 2238.5L209.58 2299L104.79 2238.5L104.79 2117.5zM314.38 2238.5L419.17 2299L419.17 2420L314.38 2480.5L209.58 2420L209.58 2299zM209.58 2420L314.38 2480.5L314.38 2601.5L209.58 2662L104.79 2601.5L104.79 2480.5zM314.38 2601.5L419.17 2662L419.17 2783L314.38 2843.5L209.58 2783L209.58 2662zM209.58 2783L314.38 2843.5L314.38 2964.5L209.58 3025L104.79 2964.5L104.79 2843.5zM314.38 2964.5L419.17 3025L419.17 3146L314.38 3206.5L209.58 3146L209.58 3025zM209.58 3146L314.38 3206.5L314.38 3327.5L209.58 3388L104.79 3327.5L104.79 3206.5zM314.38 3327.5L419.17 3388L419.17 3509L314.38 3569.5L209.58 3509L209.58 3388zM209.58 3509L314.38 3569.5L314.38 3690.5L209.58 3751L104.79 3690.5L104.79 3569.5zM314.38 3690.5L419.17 3751L419.17 3872L314.38 3932.5L209.58 3872L209.58 3751zM209.58 3872L314.38 3932.5L314.38 4053.5L209.58 4114L104.79 4053.5L104.79 3932.5zM314.38 4053.5L419.17 4114L419.17 4235L314.38 4295.5L209.58 4235L209.58 4114zM209.58 4235L314.38 4295.5L314.38 4416.5L209.58 4477L104.79 4416.5L104.79 4295.5zM314.38 4416.5L419.17 4477L419.17 4598L314.38 4658.5L209.58 4598L209.58 4477zM209.58 4598L314.38 4658.5L314.38 4779.5L209.58 4840L104.79 4779.5L104.79 4658.5zM314.38 4779.5L419.17 4840L419.17 4961L314.38 5021.5L209.58 4961L209.58 4840zM209.58 4961L314.38 5021.5L314.38 5142.5L209.58 5203L104.79 5142.5L104.79 5021.5zM314.38 5142.5L419.17 5203L419.17 5324L314.38 5384.5L209.58 5324L209.58 5203zM209.58 5324L314.38 5384.5L314.38 5505.5L209.58 5566L104.79 5505.5L104.79 5384.5zM314.38 5505.5L419.17 5566L419.17 5687L314.38 5747.5L209.58 5687L209.58 5566zM209.58 5687L314.38 5747.5L314.38 5868.5L209.58 5929L104.79 5868.5L104.79 5747.5zM314.38 5868.5L419.17 5929L419.17 6050L314.38 6110.5L209.58 6050L209.58 5929zM419.17 -121L523.96 -60.5L523.96 60.5L419.17 121L314.38 60.5L314.38 -60.5zM523.96 60.5L628.75 121L628.75 242L523.96 302.5L419.17 242L419.17 121zM419.17 242L523.96 302.5L523.96 423.5L419.17 484L314.38 423.5L314.38 302.5zM523.96 423.5L628.75 484L628.75 605L523.96 665.5L419.17 605L419.17 484zM419.17 605L523.96 665.5L523.96 786.5L419.17 847L314.38 786.5L314.38 665.5zM523.96 786.5L628.75 847L628.75 968L523.96 1028.5L419.17 968L419.17 847zM419.17 968L523.96 1028.5L523.96 1149.5L419.17 1210L314.38 1149.5L314.38 1028.5zM523.96 1149.5L628.75 1210L628.75 1331L523.96 1391.5L419.17 1331L419.17 1210zM419.17 1331L523.96 1391.5L523.96 1512.5L419.17 1573L314.38 1512.5L314.38 1391.5zM523.96 1512.5L628.75 1573L628.75 1694L523.96 1754.5L419.17 1694L419.17 1573zM419.17 1694L523.96 1754.5L523.96 1875.5L419.17 1936L314.38 1875.5L314.38 1754.5zM523.96 1875.5L628.75 1936L628.75 2057L523.96 2117.5L419.17 2057L419.17 1936zM419.17 2057L523.96 2117.5L523.96 2238.5L419.17 2299L314.38 2238.5L314.38 2117.5zM523.96 2238.5L628.75 2299L628.75 2420L523.96 2480.5L419.17 2420L419.17 2299zM419.17 2420L523.96 2480.5L523.96 2601.5L419.17 2662L314.38 2601.5L314.38 2480.5zM523.96 2601.5L628.75 2662L628.75 2783L523.96 2843.5L419.17 2783L419.17 2662zM419.17 2783L523.96 2843.5L523.96 2964.5L419.17 3025L314.38 2964.5L314.38 2843.5zM523.96 2964.5L628.75 3025L628.75 3146L523.96 3206.5L419.17 3146L419.17 3025zM419.17 3146L523.96 3206.5L523.96 3327.5L419.17 3388L314.38 3327.5L314.38 3206.5zM523.96 3327.5L628.75 3388L628.75 3509L523.96 3569.5L419.17 3509L419.17 3388zM419.17 3509L523.96 3569.5L523.96 3690.5L419.17 3751L314.38 3690.5L314.38 3569.5zM523.96 3690.5L628.75 3751L628.75 3872L523.96 3932.5L419.17 3872L419.17 3751zM419.17 3872L523.96 3932.5L523.96 4053.5L419.17 4114L314.38 4053.5L314.38 3932.5zM523.96 4053.5L628.75 4114L628.75 4235L523.96 4295.5L419.17 4235L419.17 4114zM419.17 4235L523.96 4295.5L523.96 4416.5L419.17 4477L314.38 4416.5L314.38 4295.5zM523.96 4416.5L628.75 4477L628.75 4598L523.96 4658.5L419.17 4598L419.17 4477zM419.17 4598L523.96 4658.5L523.96 4779.5L419.17 4840L314.38 4779.5L314.38 4658.5zM523.96 4779.5L628.75 4840L628.75 4961L523.96 5021.5L419.17 4961L419.17 4840zM419.17 4961L523.96 5021.5L523.96 5142.5L419.17 5203L314.38 5142.5L314.38 5021.5zM523.96 5142.5L628.75 5203L628.75 5324L523.96 5384.5L419.17 5324L419.17 5203zM419.17 5324L523.96 5384.5L523.96 5505.5L419.17 5566L314.38 5505.5L314.38 5384.5zM523.96 5505.5L628.75 5566L628.75 5687L523.96 5747.5L419.17 5687L419.17 5566zM419.17 5687L523.96 5747.5L523.96 5868.5L419.17 5929L314.38 5868.5L314.38 5747.5zM523.96 5868.5L628.75 5929L628.75 6050L523.96 6110.5L419.17 6050L419.17 5929zM628.75 -121L733.54 -60.5L733.54 60.5L628.75 121L523.96 60.5L523.96 -60.5zM733.54 60.5L838.34 121L838.34 242L733.54 302.5L628.75 242L628.75 121zM628.75 242L733.54 302.5L733.54 423.5L628.75 484L523.96 423.5L523.96 302.5zM733.54 423.5L838.34 484L838.34 605L733.54 665.5L628.75 605L628.75 484zM628.75 605L733.54 665.5L733.54 786.5L628.75 847L523.96 786.5L523.96 665.5zM733.54 786.5L838.34 847L838.34 968L733.54 1028.5L628.75 968L628.75 847zM628.75 968L733.54 1028.5L733.54 1149.5L628.75 1210L523.96 1149.5L523.96 1028.5zM733.54 1149.5L838.34 1210L838.34 1331L733.54 1391.5L628.75 1331L628.75 1210zM628.75 1331L733.54 1391.5L733.54 1512.5L628.75 1573L523.96 1512.5L523.96 1391.5zM733.54 1512.5L838.34 1573L838.34 1694L733.54 1754.5L628.75 1694L628.75 1573zM628.75 1694L733.54 1754.5L733.54 1875.5L628.75 1936L523.96 1875.5L523.96 1754.5zM733.54 1875.5L838.34 1936L838.34 2057L733.54 2117.5L628.75 2057L628.75 1936zM628.75 2057L733.54 2117.5L733.54 2238.5L628.75 2299L523.96 2238.5L523.96 2117.5zM733.54 2238.5L838.34 2299L838.34 2420L733.54 2480.5L628.75 2420L628.75 2299zM628.75 2420L733.54 2480.5L733.54 2601.5L628.75 2662L523.96 2601.5L523.96 2480.5zM733.54 2601.5L838.34 2662L838.34 2783L733.54 2843.5L628.75 2783L628.75 2662zM628.75 2783L733.54 2843.5L733.54 2964.5L628.75 3025L523.96 2964.5L523.96 2843.5zM733.54 2964.5L838.34 3025L838.34 3146L733.54 3206.5L628.75 3146L628.75 3025zM628.75 3146L733.54 3206.5L733.54 3327.5L628.75 3388L523.96 3327.5L523.96 3206.5zM733.54 3327.5L838.34 3388L838.34 3509L733.54 3569.5L628.75 3509L628.75 3388zM628.75 3509L733.54 3569.5L733.54 3690.5L628.75 3751L523.96 3690.5L523.96 3569.5zM733.54 3690.5L838.34 3751L838.34 3872L733.54 3932.5L628.75 3872L628.75 3751zM628.75 3872L733.54 3932.5L733.54 4053.5L628.75 4114L523.96 4053.5L523.96 3932.5zM733.54 4053.5L838.34 4114L838.34 4235L733.54 4295.5L628.75 4235L628.75 4114zM628.75 4235L733.54 4295.5L733.54 4416.5L628.75 4477L523.96 4416.5L523.96 4295.5zM733.54 4416.5L838.34 4477L838.34 4598L733.54 4658.5L628.75 4598L628.75 4477zM628.75 4598L733.54 4658.5L733.54 4779.5L628.75 4840L523.96 4779.5L523.96 4658.5zM733.54 4779.5L838.34 4840L838.34 4961L733.54 5021.5L628.75 4961L628.75 4840zM628.75 4961L733.54 5021.5L733.54 5142.5L628.75 5203L523.96 5142.5L523.96 5021.5zM733.54 5142.5L838.34 5203L838.34 5324L733.54 5384.5L628.75 5324L628.75 5203zM628.75 5324L733.54 5384.5L733.54 5505.5L628.75 5566L523.96 5505.5L523.96 5384.5zM733.54 5505.5L838.34 5566L838.34 5687L733.54 5747.5L628.75 5687L628.75 5566zM628.75 5687L733.54 5747.5L733.54 5868.5L628.75 5929L523.96 5868.5L523.96 5747.5zM733.54 5868.5L838.34 5929L838.34 6050L733.54 6110.5L628.75 6050L628.75 5929zM838.34 -121L943.13 -60.5L943.13 60.5L838.34 121L733.54 60.5L733.54 -60.5zM943.13 60.5L1047.92 121L1047.92 242L943.13 302.5L838.34 242L838.34 121zM838.34 242L943.13 302.5L943.13 423.5L838.34 484L733.54 423.5L733.54 302.5zM943.13 423.5L1047.92 484L1047.92 605L943.13 665.5L838.34 605L838.34 484zM838.34 605L943.13 665.5L943.13 786.5L838.34 847L733.54 786.5L733.54 665.5zM943.13 786.5L1047.92 847L1047.92 968L943.13 1028.5L838.34 968L838.34 847zM838.34 968L943.13 1028.5L943.13 1149.5L838.34 1210L733.54 1149.5L733.54 1028.5zM943.13 1149.5L1047.92 1210L1047.92 1331L943.13 1391.5L838.34 1331L838.34 1210zM838.34 1331L943.13 1391.5L943.13 1512.5L838.34 1573L733.54 1512.5L733.54 1391.5zM943.13 1512.5L1047.92 1573L1047.92 1694L943.13 1754.5L838.34 1694L838.34 1573zM838.34 1694L943.13 1754.5L943.13 1875.5L838.34 1936L733.54 1875.5L733.54 1754.5zM943.13 1875.5L1047.92 1936L1047.92 2057L943.13 2117.5L838.34 2057L838.34 1936zM838.34 2057L943.13 2117.5L943.13 2238.5L838.34 2299L733.54 2238.5L733.54 2117.5zM943.13 2238.5L1047.92 2299L1047.92 2420L943.13 2480.5L838.34 2420L838.34 2299zM838.34 2420L943.13 2480.5L943.13 2601.5L838.34 2662L733.54 2601.5L733.54 2480.5zM943.13 2601.5L1047.92 2662L1047.92 2783L943.13 2843.5L838.34 2783L838.34 2662zM838.34 2783L943.13 2843.5L943.13 2964.5L838.34 3025L733.54 2964.5L733.54 2843.5zM943.13 2964.5L1047.92 3025L1047.92 3146L943.13 3206.5L838.34 3146L838.34 3025zM838.34 3146L943.13 3206.5L943.13 3327.5L838.34 3388L733.54 3327.5L733.54 3206.5zM943.13 3327.5L1047.92 3388L1047.92 3509L943.13 3569.5L838.34 3509L838.34 3388zM838.34 3509L943.13 3569.5L943.13 3690.5L838.34 3751L733.54 3690.5L733.54 3569.5zM943.13 3690.5L1047.92 3751L1047.92 3872L943.13 3932.5L838.34 3872L838.34 3751zM838.34 3872L943.13 3932.5L943.13 4053.5L838.34 4114L733.54 4053.5L733.54 3932.5zM943.13 4053.5L1047.92 4114L1047.92 4235L943.13 4295.5L838.34 4235L838.34 4114zM838.34 4235L943.13 4295.5L943.13 4416.5L838.34 4477L733.54 4416.5L733.54 4295.5zM943.13 4416.5L1047.92 4477L1047.92 4598L943.13 4658.5L838.34 4598L838.34 4477zM838.34 4598L943.13 4658.5L943.13 4779.5L838.34 4840L733.54 4779.5L733.54 4658.5zM943.13 4779.5L1047.92 4840L1047.92 4961L943.13 5021.5L838.34 4961L838.34 4840zM838.34 4961L943.13 5021.5L943.13 5142.5L838.34 5203L733.54 5142.5L733.54 5021.5zM943.13 5142.5L1047.92 5203L1047.92 5324L943.13 5384.5L838.34 5324L838.34 5203zM838.34 5324L943.13 5384.5L943.13 5505.5L838.34 5566L733.54 5505.5L733.54 5384.5zM943.13 5505.5L1047.92 5566L1047.92 5687L943.13 5747.5L838.34 5687L838.34 5566zM838.34 5687L943.13 5747.5L943.13 5868.5L838.34 5929L733.54 5868.5L733.54 5747.5zM943.13 5868.5L1047.92 5929L1047.92 6050L943.13 6110.5L838.34 6050L838.34 5929zM1047.92 -121L1152.71 -60.5L1152.71 60.5L1047.92 121L943.13 60.5L943.13 -60.5zM1152.71 60.5L1257.5 121L1257.5 242L1152.71 302.5L1047.92 242L1047.92 121zM1047.92 242L1152.71 302.5L1152.71 423.5L1047.92 484L943.13 423.5L943.13 302.5zM1152.71 423.5L1257.5 484L1257.5 605L1152.71 665.5L1047.92 605L1047.92 484zM1047.92 605L1152.71 665.5L1152.71 786.5L1047.92 847L943.13 786.5L943.13 665.5zM1152.71 786.5L1257.5 847L1257.5 968L1152.71 1028.5L1047.92 968L1047.92 847zM1047.92 968L1152.71 1028.5L1152.71 1149.5L1047.92 1210L943.13 1149.5L943.13 1028.5zM1152.71 1149.5L1257.5 1210L1257.5 1331L1152.71 1391.5L1047.92 1331L1047.92 1210zM1047.92 1331L1152.71 1391.5L1152.71 1512.5L1047.92 1573L943.13 1512.5L943.13 1391.5zM1152.71 1512.5L1257.5 1573L1257.5 1694L1152.71 1754.5L1047.92 1694L1047.92 1573zM1047.92 1694L1152.71 1754.5L1152.71 1875.5L1047.92 1936L943.13 1875.5L943.13 1754.5zM1152.71 1875.5L1257.5 1936L1257.5 2057L1152.71 2117.5L1047.92 2057L1047.92 1936zM1047.92 2057L1152.71 2117.5L1152.71 2238.5L1047.92 2299L943.13 2238.5L943.13 2117.5zM1152.71 2238.5L1257.5 2299L1257.5 2420L1152.71 2480.5L1047.92 2420L1047.92 2299zM1047.92 2420L1152.71 2480.5L1152.71 2601.5L1047.92 2662L943.13 2601.5L943.13 2480.5zM1152.71 2601.5L1257.5 2662L1257.5 2783L1152.71 2843.5L1047.92 2783L1047.92 2662zM1047.92 2783L1152.71 2843.5L1152.71 2964.5L1047.92 3025L943.13 2964.5L943.13 2843.5zM1152.71 2964.5L1257.5 3025L1257.5 3146L1152.71 3206.5L1047.92 3146L1047.92 3025zM1047.92 3146L1152.71 3206.5L1152.71 3327.5L1047.92 3388L943.13 3327.5L943.13 3206.5zM1152.71 3327.5L1257.5 3388L1257.5 3509L1152.71 3569.5L1047.92 3509L1047.92 3388zM1047.92 3509L1152.71 3569.5L1152.71 3690.5L1047.92 3751L943.13 3690.5L943.13 3569.5zM1152.71 3690.5L1257.5 3751L1257.5 3872L1152.71 3932.5L1047.92 3872L1047.92 3751zM1047.92 3872L1152.71 3932.5L1152.71 4053.5L1047.92 4114L943.13 4053.5L943.13 3932.5zM1152.71 4053.5L1257.5 4114L1257.5 4235L1152.71 4295.5L1047.92 4235L1047.92 4114zM1047.92 4235L1152.71 4295.5L1152.71 4416.5L1047.92 4477L943.13 4416.5L943.13 4295.5zM1152.71 4416.5L1257.5 4477L1257.5 4598L1152.71 4658.5L1047.92 4598L1047.92 4477zM1047.92 4598L1152.71 4658.5L1152.71 4779.5L1047.92 4840L943.13 4779.5L943.13 4658.5zM1152.71 4779.5L1257.5 4840L1257.5 4961L1152.71 5021.5L1047.92 4961L1047.92 4840zM1047.92 4961L1152.71 5021.5L1152.71 5142.5L1047.92 5203L943.13 5142.5L943.13 5021.5zM1152.71 5142.5L1257.5 5203L1257.5 5324L1152.71 5384.5L1047.92 5324L1047.92 5203zM1047.92 5324L1152.71 5384.5L1152.71 5505.5L1047.92 5566L943.13 5505.5L943.13 5384.5zM1152.71 5505.5L1257.5 5566L1257.5 5687L1152.71 5747.5L1047.92 5687L1047.92 5566zM1047.92 5687L1152.71 5747.5L1152.71 5868.5L1047.92 5929L943.13 5868.5L943.13 5747.5zM1152.71 5868.5L1257.5 5929L1257.5 6050L1152.71 6110.5L1047.92 6050L1047.92 5929zM1257.5 -121L1362.3 -60.5L1362.3 60.5L1257.5 121L1152.71 60.5L1152.71 -60.5zM1362.3 60.5L1467.09 121L1467.09 242L1362.3 302.5L1257.5 242L1257.5 121zM1257.5 242L1362.3 302.5L1362.3 423.5L1257.5 484L1152.71 423.5L1152.71 302.5zM1362.3 423.5L1467.09 484L1467.09 605L1362.3 665.5L1257.5 605L1257.5 484zM1257.5 605L1362.3 665.5L1362.3 786.5L1257.5 847L1152.71 786.5L1152.71 665.5zM1362.3 786.5L1467.09 847L1467.09 968L1362.3 1028.5L1257.5 968L1257.5 847zM1257.5 968L1362.3 1028.5L1362.3 1149.5L1257.5 1210L1152.71 1149.5L1152.71 1028.5zM1362.3 1149.5L1467.09 1210L1467.09 1331L1362.3 1391.5L1257.5 1331L1257.5 1210zM1257.5 1331L1362.3 1391.5L1362.3 1512.5L1257.5 1573L1152.71 1512.5L1152.71 1391.5zM1362.3 1512.5L1467.09 1573L1467.09 1694L1362.3 1754.5L1257.5 1694L1257.5 1573zM1257.5 1694L1362.3 1754.5L1362.3 1875.5L1257.5 1936L1152.71 1875.5L1152.71 1754.5zM1362.3 1875.5L1467.09 1936L1467.09 2057L1362.3 2117.5L1257.5 2057L1257.5 1936zM1257.5 2057L1362.3 2117.5L1362.3 2238.5L1257.5 2299L1152.71 2238.5L1152.71 2117.5zM1362.3 2238.5L1467.09 2299L1467.09 2420L1362.3 2480.5L1257.5 2420L1257.5 2299zM1257.5 2420L1362.3 2480.5L1362.3 2601.5L1257.5 2662L1152.71 2601.5L1152.71 2480.5zM1362.3 2601.5L1467.09 2662L1467.09 2783L1362.3 2843.5L1257.5 2783L1257.5 2662zM1257.5 2783L1362.3 2843.5L1362.3 2964.5L1257.5 3025L1152.71 2964.5L1152.71 2843.5zM1362.3 2964.5L1467.09 3025L1467.09 3146L1362.3 3206.5L1257.5 3146L1257.5 3025zM1257.5 3146L1362.3 3206.5L1362.3 3327.5L1257.5 3388L1152.71 3327.5L1152.71 3206.5zM1362.3 3327.5L1467.09 3388L1467.09 3509L1362.3 3569.5L1257.5 3509L1257.5 3388zM1257.5 3509L1362.3 3569.5L1362.3 3690.5L1257.5 3751L1152.71 3690.5L1152.71 3569.5zM1362.3 3690.5L1467.09 3751L1467.09 3872L1362.3 3932.5L1257.5 3872L1257.5 3751zM1257.5 3872L1362.3 3932.5L1362.3 4053.5L1257.5 4114L1152.71 4053.5L1152.71 3932.5zM1362.3 4053.5L1467.09 4114L1467.09 4235L1362.3 4295.5L1257.5 4235L1257.5 4114zM1257.5 4235L1362.3 4295.5L1362.3 4416.5L1257.5 4477L1152.71 4416.5L1152.71 4295.5zM1362.3 4416.5L1467.09 4477L1467.09 4598L1362.3 4658.5L1257.5 4598L1257.5 4477zM1257.5 4598L1362.3 4658.5L1362.3 4779.5L1257.5 4840L1152.71 4779.5L1152.71 4658.5zM1362.3 4779.5L1467.09 4840L1467.09 4961L1362.3 5021.5L1257.5 4961L1257.5 4840zM1257.5 4961L1362.3 5021.5L1362.3 5142.5L1257.5 5203L1152.71 5142.5L1152.71 5021.5zM1362.3 5142.5L1467.09 5203L1467.09 5324L1362.3 5384.5L1257.5 5324L1257.5 5203zM1257.5 5324L1362.3 5384.5L1362.3 5505.5L1257.5 5566L1152.71 5505.5L1152.71 5384.5zM1362.3 5505.5L1467.09 5566L1467.09 5687L1362.3 5747.5L1257.5 5687L1257.5 5566zM1257.5 5687L1362.3 5747.5L1362.3 5868.5L1257.5 5929L1152.71 5868.5L1152.71 5747.5zM1362.3 5868.5L1467.09 5929L1467.09 6050L1362.3 6110.5L1257.5 6050L1257.5 5929z" stroke="rgba(30, 141, 209, 0.1)" stroke-width="2"></path><path d="M-12.1 -121 a12.1 12.1 0 1 0 24.2 0 a12.1 12.1 0 1 0 -24.2 0zM92.69 -60.5 a12.1 12.1 0 1 0 24.2 0 a12.1 12.1 0 1 0 -24.2 0zM92.69 60.5 a12.1 12.1 0 1 0 24.2 0 a12.1 12.1 0 1 0 -24.2 0zM-12.1 121 a12.1 12.1 0 1 0 24.2 0 a12.1 12.1 0 1 0 -24.2 0zM-116.89 60.5 a12.1 12.1 0 1 0 24.2 0 a12.1 12.1 0 1 0 -24.2 0zM-116.89 -60.5 a12.1 12.1 0 1 0 24.2 0 a12.1 12.1 0 1 0 -24.2 0zM197.48 121 a12.1 12.1 0 1 0 24.2 0 a12.1 12.1 0 1 0 -24.2 0zM197.48 242 a12.1 12.1 0 1 0 24.2 0 a12.1 12.1 0 1 0 -24.2 0zM92.69 302.5 a12.1 12.1 0 1 0 24.2 0 a12.1 12.1 0 1 0 -24.2 0zM-12.1 242 a12.1 12.1 0 1 0 24.2 0 a12.1 12.1 0 1 0 -24.2 0zM92.69 423.5 a12.1 12.1 0 1 0 24.2 0 a12.1 12.1 0 1 0 -24.2 0zM-12.1 484 a12.1 12.1 0 1 0 24.2 0 a12.1 12.1 0 1 0 -24.2 0zM-116.89 423.5 a12.1 12.1 0 1 0 24.2 0 a12.1 12.1 0 1 0 -24.2 0zM-116.89 302.5 a12.1 12.1 0 1 0 24.2 0 a12.1 12.1 0 1 0 -24.2 0zM197.48 484 a12.1 12.1 0 1 0 24.2 0 a12.1 12.1 0 1 0 -24.2 0zM197.48 605 a12.1 12.1 0 1 0 24.2 0 a12.1 12.1 0 1 0 -24.2 0zM92.69 665.5 a12.1 12.1 0 1 0 24.2 0 a12.1 12.1 0 1 0 -24.2 0zM-12.1 605 a12.1 12.1 0 1 0 24.2 0 a12.1 12.1 0 1 0 -24.2 0zM92.69 786.5 a12.1 12.1 0 1 0 24.2 0 a12.1 12.1 0 1 0 -24.2 0zM-12.1 847 a12.1 12.1 0 1 0 24.2 0 a12.1 12.1 0 1 0 -24.2 0zM-116.89 786.5 a12.1 12.1 0 1 0 24.2 0 a12.1 12.1 0 1 0 -24.2 0zM-116.89 665.5 a12.1 12.1 0 1 0 24.2 0 a12.1 12.1 0 1 0 -24.2 0zM197.48 847 a12.1 12.1 0 1 0 24.2 0 a12.1 12.1 0 1 0 -24.2 0zM197.48 968 a12.1 12.1 0 1 0 24.2 0 a12.1 12.1 0 1 0 -24.2 0zM92.69 1028.5 a12.1 12.1 0 1 0 24.2 0 a12.1 12.1 0 1 0 -24.2 0zM-12.1 968 a12.1 12.1 0 1 0 24.2 0 a12.1 12.1 0 1 0 -24.2 0zM92.69 1149.5 a12.1 12.1 0 1 0 24.2 0 a12.1 12.1 0 1 0 -24.2 0zM-12.1 1210 a12.1 12.1 0 1 0 24.2 0 a12.1 12.1 0 1 0 -24.2 0zM-116.89 1149.5 a12.1 12.1 0 1 0 24.2 0 a12.1 12.1 0 1 0 -24.2 0zM-116.89 1028.5 a12.1 12.1 0 1 0 24.2 0 a12.1 12.1 0 1 0 -24.2 0zM197.48 1210 a12.1 12.1 0 1 0 24.2 0 a12.1 12.1 0 1 0 -24.2 0zM197.48 1331 a12.1 12.1 0 1 0 24.2 0 a12.1 12.1 0 1 0 -24.2 0zM92.69 1391.5 a12.1 12.1 0 1 0 24.2 0 a12.1 12.1 0 1 0 -24.2 0zM-12.1 1331 a12.1 12.1 0 1 0 24.2 0 a12.1 12.1 0 1 0 -24.2 0zM92.69 1512.5 a12.1 12.1 0 1 0 24.2 0 a12.1 12.1 0 1 0 -24.2 0zM-12.1 1573 a12.1 12.1 0 1 0 24.2 0 a12.1 12.1 0 1 0 -24.2 0zM-116.89 1512.5 a12.1 12.1 0 1 0 24.2 0 a12.1 12.1 0 1 0 -24.2 0zM-116.89 1391.5 a12.1 12.1 0 1 0 24.2 0 a12.1 12.1 0 1 0 -24.2 0zM197.48 1573 a12.1 12.1 0 1 0 24.2 0 a12.1 12.1 0 1 0 -24.2 0zM197.48 1694 a12.1 12.1 0 1 0 24.2 0 a12.1 12.1 0 1 0 -24.2 0zM92.69 1754.5 a12.1 12.1 0 1 0 24.2 0 a12.1 12.1 0 1 0 -24.2 0zM-12.1 1694 a12.1 12.1 0 1 0 24.2 0 a12.1 12.1 0 1 0 -24.2 0zM92.69 1875.5 a12.1 12.1 0 1 0 24.2 0 a12.1 12.1 0 1 0 -24.2 0zM-12.1 1936 a12.1 12.1 0 1 0 24.2 0 a12.1 12.1 0 1 0 -24.2 0zM-116.89 1875.5 a12.1 12.1 0 1 0 24.2 0 a12.1 12.1 0 1 0 -24.2 0zM-116.89 1754.5 a12.1 12.1 0 1 0 24.2 0 a12.1 12.1 0 1 0 -24.2 0zM197.48 1936 a12.1 12.1 0 1 0 24.2 0 a12.1 12.1 0 1 0 -24.2 0zM197.48 2057 a12.1 12.1 0 1 0 24.2 0 a12.1 12.1 0 1 0 -24.2 0zM92.69 2117.5 a12.1 12.1 0 1 0 24.2 0 a12.1 12.1 0 1 0 -24.2 0zM-12.1 2057 a12.1 12.1 0 1 0 24.2 0 a12.1 12.1 0 1 0 -24.2 0zM92.69 2238.5 a12.1 12.1 0 1 0 24.2 0 a12.1 12.1 0 1 0 -24.2 0zM-12.1 2299 a12.1 12.1 0 1 0 24.2 0 a12.1 12.1 0 1 0 -24.2 0zM-116.89 2238.5 a12.1 12.1 0 1 0 24.2 0 a12.1 12.1 0 1 0 -24.2 0zM-116.89 2117.5 a12.1 12.1 0 1 0 24.2 0 a12.1 12.1 0 1 0 -24.2 0zM197.48 2299 a12.1 12.1 0 1 0 24.2 0 a12.1 12.1 0 1 0 -24.2 0zM197.48 2420 a12.1 12.1 0 1 0 24.2 0 a12.1 12.1 0 1 0 -24.2 0zM92.69 2480.5 a12.1 12.1 0 1 0 24.2 0 a12.1 12.1 0 1 0 -24.2 0zM-12.1 2420 a12.1 12.1 0 1 0 24.2 0 a12.1 12.1 0 1 0 -24.2 0zM92.69 2601.5 a12.1 12.1 0 1 0 24.2 0 a12.1 12.1 0 1 0 -24.2 0zM-12.1 2662 a12.1 12.1 0 1 0 24.2 0 a12.1 12.1 0 1 0 -24.2 0zM-116.89 2601.5 a12.1 12.1 0 1 0 24.2 0 a12.1 12.1 0 1 0 -24.2 0zM-116.89 2480.5 a12.1 12.1 0 1 0 24.2 0 a12.1 12.1 0 1 0 -24.2 0zM197.48 2662 a12.1 12.1 0 1 0 24.2 0 a12.1 12.1 0 1 0 -24.2 0zM197.48 2783 a12.1 12.1 0 1 0 24.2 0 a12.1 12.1 0 1 0 -24.2 0zM92.69 2843.5 a12.1 12.1 0 1 0 24.2 0 a12.1 12.1 0 1 0 -24.2 0zM-12.1 2783 a12.1 12.1 0 1 0 24.2 0 a12.1 12.1 0 1 0 -24.2 0zM92.69 2964.5 a12.1 12.1 0 1 0 24.2 0 a12.1 12.1 0 1 0 -24.2 0zM-12.1 3025 a12.1 12.1 0 1 0 24.2 0 a12.1 12.1 0 1 0 -24.2 0zM-116.89 2964.5 a12.1 12.1 0 1 0 24.2 0 a12.1 12.1 0 1 0 -24.2 0zM-116.89 2843.5 a12.1 12.1 0 1 0 24.2 0 a12.1 12.1 0 1 0 -24.2 0zM197.48 3025 a12.1 12.1 0 1 0 24.2 0 a12.1 12.1 0 1 0 -24.2 0zM197.48 3146 a12.1 12.1 0 1 0 24.2 0 a12.1 12.1 0 1 0 -24.2 0zM92.69 3206.5 a12.1 12.1 0 1 0 24.2 0 a12.1 12.1 0 1 0 -24.2 0zM-12.1 3146 a12.1 12.1 0 1 0 24.2 0 a12.1 12.1 0 1 0 -24.2 0zM92.69 3327.5 a12.1 12.1 0 1 0 24.2 0 a12.1 12.1 0 1 0 -24.2 0zM-12.1 3388 a12.1 12.1 0 1 0 24.2 0 a12.1 12.1 0 1 0 -24.2 0zM-116.89 3327.5 a12.1 12.1 0 1 0 24.2 0 a12.1 12.1 0 1 0 -24.2 0zM-116.89 3206.5 a12.1 12.1 0 1 0 24.2 0 a12.1 12.1 0 1 0 -24.2 0zM197.48 3388 a12.1 12.1 0 1 0 24.2 0 a12.1 12.1 0 1 0 -24.2 0zM197.48 3509 a12.1 12.1 0 1 0 24.2 0 a12.1 12.1 0 1 0 -24.2 0zM92.69 3569.5 a12.1 12.1 0 1 0 24.2 0 a12.1 12.1 0 1 0 -24.2 0zM-12.1 3509 a12.1 12.1 0 1 0 24.2 0 a12.1 12.1 0 1 0 -24.2 0zM92.69 3690.5 a12.1 12.1 0 1 0 24.2 0 a12.1 12.1 0 1 0 -24.2 0zM-12.1 3751 a12.1 12.1 0 1 0 24.2 0 a12.1 12.1 0 1 0 -24.2 0zM-116.89 3690.5 a12.1 12.1 0 1 0 24.2 0 a12.1 12.1 0 1 0 -24.2 0zM-116.89 3569.5 a12.1 12.1 0 1 0 24.2 0 a12.1 12.1 0 1 0 -24.2 0zM197.48 3751 a12.1 12.1 0 1 0 24.2 0 a12.1 12.1 0 1 0 -24.2 0zM197.48 3872 a12.1 12.1 0 1 0 24.2 0 a12.1 12.1 0 1 0 -24.2 0zM92.69 3932.5 a12.1 12.1 0 1 0 24.2 0 a12.1 12.1 0 1 0 -24.2 0zM-12.1 3872 a12.1 12.1 0 1 0 24.2 0 a12.1 12.1 0 1 0 -24.2 0zM92.69 4053.5 a12.1 12.1 0 1 0 24.2 0 a12.1 12.1 0 1 0 -24.2 0zM-12.1 4114 a12.1 12.1 0 1 0 24.2 0 a12.1 12.1 0 1 0 -24.2 0zM-116.89 4053.5 a12.1 12.1 0 1 0 24.2 0 a12.1 12.1 0 1 0 -24.2 0zM-116.89 3932.5 a12.1 12.1 0 1 0 24.2 0 a12.1 12.1 0 1 0 -24.2 0zM197.48 4114 a12.1 12.1 0 1 0 24.2 0 a12.1 12.1 0 1 0 -24.2 0zM197.48 4235 a12.1 12.1 0 1 0 24.2 0 a12.1 12.1 0 1 0 -24.2 0zM92.69 4295.5 a12.1 12.1 0 1 0 24.2 0 a12.1 12.1 0 1 0 -24.2 0zM-12.1 4235 a12.1 12.1 0 1 0 24.2 0 a12.1 12.1 0 1 0 -24.2 0zM92.69 4416.5 a12.1 12.1 0 1 0 24.2 0 a12.1 12.1 0 1 0 -24.2 0zM-12.1 4477 a12.1 12.1 0 1 0 24.2 0 a12.1 12.1 0 1 0 -24.2 0zM-116.89 4416.5 a12.1 12.1 0 1 0 24.2 0 a12.1 12.1 0 1 0 -24.2 0zM-116.89 4295.5 a12.1 12.1 0 1 0 24.2 0 a12.1 12.1 0 1 0 -24.2 0zM197.48 4477 a12.1 12.1 0 1 0 24.2 0 a12.1 12.1 0 1 0 -24.2 0zM197.48 4598 a12.1 12.1 0 1 0 24.2 0 a12.1 12.1 0 1 0 -24.2 0zM92.69 4658.5 a12.1 12.1 0 1 0 24.2 0 a12.1 12.1 0 1 0 -24.2 0zM-12.1 4598 a12.1 12.1 0 1 0 24.2 0 a12.1 12.1 0 1 0 -24.2 0zM92.69 4779.5 a12.1 12.1 0 1 0 24.2 0 a12.1 12.1 0 1 0 -24.2 0zM-12.1 4840 a12.1 12.1 0 1 0 24.2 0 a12.1 12.1 0 1 0 -24.2 0zM-116.89 4779.5 a12.1 12.1 0 1 0 24.2 0 a12.1 12.1 0 1 0 -24.2 0zM-116.89 4658.5 a12.1 12.1 0 1 0 24.2 0 a12.1 12.1 0 1 0 -24.2 0zM197.48 4840 a12.1 12.1 0 1 0 24.2 0 a12.1 12.1 0 1 0 -24.2 0zM197.48 4961 a12.1 12.1 0 1 0 24.2 0 a12.1 12.1 0 1 0 -24.2 0zM92.69 5021.5 a12.1 12.1 0 1 0 24.2 0 a12.1 12.1 0 1 0 -24.2 0zM-12.1 4961 a12.1 12.1 0 1 0 24.2 0 a12.1 12.1 0 1 0 -24.2 0zM92.69 5142.5 a12.1 12.1 0 1 0 24.2 0 a12.1 12.1 0 1 0 -24.2 0zM-12.1 5203 a12.1 12.1 0 1 0 24.2 0 a12.1 12.1 0 1 0 -24.2 0zM-116.89 5142.5 a12.1 12.1 0 1 0 24.2 0 a12.1 12.1 0 1 0 -24.2 0zM-116.89 5021.5 a12.1 12.1 0 1 0 24.2 0 a12.1 12.1 0 1 0 -24.2 0zM197.48 5203 a12.1 12.1 0 1 0 24.2 0 a12.1 12.1 0 1 0 -24.2 0zM197.48 5324 a12.1 12.1 0 1 0 24.2 0 a12.1 12.1 0 1 0 -24.2 0zM92.69 5384.5 a12.1 12.1 0 1 0 24.2 0 a12.1 12.1 0 1 0 -24.2 0zM-12.1 5324 a12.1 12.1 0 1 0 24.2 0 a12.1 12.1 0 1 0 -24.2 0zM92.69 5505.5 a12.1 12.1 0 1 0 24.2 0 a12.1 12.1 0 1 0 -24.2 0zM-12.1 5566 a12.1 12.1 0 1 0 24.2 0 a12.1 12.1 0 1 0 -24.2 0zM-116.89 5505.5 a12.1 12.1 0 1 0 24.2 0 a12.1 12.1 0 1 0 -24.2 0zM-116.89 5384.5 a12.1 12.1 0 1 0 24.2 0 a12.1 12.1 0 1 0 -24.2 0zM197.48 5566 a12.1 12.1 0 1 0 24.2 0 a12.1 12.1 0 1 0 -24.2 0zM197.48 5687 a12.1 12.1 0 1 0 24.2 0 a12.1 12.1 0 1 0 -24.2 0zM92.69 5747.5 a12.1 12.1 0 1 0 24.2 0 a12.1 12.1 0 1 0 -24.2 0zM-12.1 5687 a12.1 12.1 0 1 0 24.2 0 a12.1 12.1 0 1 0 -24.2 0zM92.69 5868.5 a12.1 12.1 0 1 0 24.2 0 a12.1 12.1 0 1 0 -24.2 0zM-12.1 5929 a12.1 12.1 0 1 0 24.2 0 a12.1 12.1 0 1 0 -24.2 0zM-116.89 5868.5 a12.1 12.1 0 1 0 24.2 0 a12.1 12.1 0 1 0 -24.2 0zM-116.89 5747.5 a12.1 12.1 0 1 0 24.2 0 a12.1 12.1 0 1 0 -24.2 0zM197.48 5929 a12.1 12.1 0 1 0 24.2 0 a12.1 12.1 0 1 0 -24.2 0zM197.48 6050 a12.1 12.1 0 1 0 24.2 0 a12.1 12.1 0 1 0 -24.2 0zM92.69 6110.5 a12.1 12.1 0 1 0 24.2 0 a12.1 12.1 0 1 0 -24.2 0zM-12.1 6050 a12.1 12.1 0 1 0 24.2 0 a12.1 12.1 0 1 0 -24.2 0zM197.48 -121 a12.1 12.1 0 1 0 24.2 0 a12.1 12.1 0 1 0 -24.2 0zM302.28 -60.5 a12.1 12.1 0 1 0 24.2 0 a12.1 12.1 0 1 0 -24.2 0zM302.28 60.5 a12.1 12.1 0 1 0 24.2 0 a12.1 12.1 0 1 0 -24.2 0zM407.07 121 a12.1 12.1 0 1 0 24.2 0 a12.1 12.1 0 1 0 -24.2 0zM407.07 242 a12.1 12.1 0 1 0 24.2 0 a12.1 12.1 0 1 0 -24.2 0zM302.28 302.5 a12.1 12.1 0 1 0 24.2 0 a12.1 12.1 0 1 0 -24.2 0zM302.28 423.5 a12.1 12.1 0 1 0 24.2 0 a12.1 12.1 0 1 0 -24.2 0zM407.07 484 a12.1 12.1 0 1 0 24.2 0 a12.1 12.1 0 1 0 -24.2 0zM407.07 605 a12.1 12.1 0 1 0 24.2 0 a12.1 12.1 0 1 0 -24.2 0zM302.28 665.5 a12.1 12.1 0 1 0 24.2 0 a12.1 12.1 0 1 0 -24.2 0zM302.28 786.5 a12.1 12.1 0 1 0 24.2 0 a12.1 12.1 0 1 0 -24.2 0zM407.07 847 a12.1 12.1 0 1 0 24.2 0 a12.1 12.1 0 1 0 -24.2 0zM407.07 968 a12.1 12.1 0 1 0 24.2 0 a12.1 12.1 0 1 0 -24.2 0zM302.28 1028.5 a12.1 12.1 0 1 0 24.2 0 a12.1 12.1 0 1 0 -24.2 0zM302.28 1149.5 a12.1 12.1 0 1 0 24.2 0 a12.1 12.1 0 1 0 -24.2 0zM407.07 1210 a12.1 12.1 0 1 0 24.2 0 a12.1 12.1 0 1 0 -24.2 0zM407.07 1331 a12.1 12.1 0 1 0 24.2 0 a12.1 12.1 0 1 0 -24.2 0zM302.28 1391.5 a12.1 12.1 0 1 0 24.2 0 a12.1 12.1 0 1 0 -24.2 0zM302.28 1512.5 a12.1 12.1 0 1 0 24.2 0 a12.1 12.1 0 1 0 -24.2 0zM407.07 1573 a12.1 12.1 0 1 0 24.2 0 a12.1 12.1 0 1 0 -24.2 0zM407.07 1694 a12.1 12.1 0 1 0 24.2 0 a12.1 12.1 0 1 0 -24.2 0zM302.28 1754.5 a12.1 12.1 0 1 0 24.2 0 a12.1 12.1 0 1 0 -24.2 0zM302.28 1875.5 a12.1 12.1 0 1 0 24.2 0 a12.1 12.1 0 1 0 -24.2 0zM407.07 1936 a12.1 12.1 0 1 0 24.2 0 a12.1 12.1 0 1 0 -24.2 0zM407.07 2057 a12.1 12.1 0 1 0 24.2 0 a12.1 12.1 0 1 0 -24.2 0zM302.28 2117.5 a12.1 12.1 0 1 0 24.2 0 a12.1 12.1 0 1 0 -24.2 0zM302.28 2238.5 a12.1 12.1 0 1 0 24.2 0 a12.1 12.1 0 1 0 -24.2 0zM407.07 2299 a12.1 12.1 0 1 0 24.2 0 a12.1 12.1 0 1 0 -24.2 0zM407.07 2420 a12.1 12.1 0 1 0 24.2 0 a12.1 12.1 0 1 0 -24.2 0zM302.28 2480.5 a12.1 12.1 0 1 0 24.2 0 a12.1 12.1 0 1 0 -24.2 0zM302.28 2601.5 a12.1 12.1 0 1 0 24.2 0 a12.1 12.1 0 1 0 -24.2 0zM407.07 2662 a12.1 12.1 0 1 0 24.2 0 a12.1 12.1 0 1 0 -24.2 0zM407.07 2783 a12.1 12.1 0 1 0 24.2 0 a12.1 12.1 0 1 0 -24.2 0zM302.28 2843.5 a12.1 12.1 0 1 0 24.2 0 a12.1 12.1 0 1 0 -24.2 0zM302.28 2964.5 a12.1 12.1 0 1 0 24.2 0 a12.1 12.1 0 1 0 -24.2 0zM407.07 3025 a12.1 12.1 0 1 0 24.2 0 a12.1 12.1 0 1 0 -24.2 0zM407.07 3146 a12.1 12.1 0 1 0 24.2 0 a12.1 12.1 0 1 0 -24.2 0zM302.28 3206.5 a12.1 12.1 0 1 0 24.2 0 a12.1 12.1 0 1 0 -24.2 0zM302.28 3327.5 a12.1 12.1 0 1 0 24.2 0 a12.1 12.1 0 1 0 -24.2 0zM407.07 3388 a12.1 12.1 0 1 0 24.2 0 a12.1 12.1 0 1 0 -24.2 0zM407.07 3509 a12.1 12.1 0 1 0 24.2 0 a12.1 12.1 0 1 0 -24.2 0zM302.28 3569.5 a12.1 12.1 0 1 0 24.2 0 a12.1 12.1 0 1 0 -24.2 0zM302.28 3690.5 a12.1 12.1 0 1 0 24.2 0 a12.1 12.1 0 1 0 -24.2 0zM407.07 3751 a12.1 12.1 0 1 0 24.2 0 a12.1 12.1 0 1 0 -24.2 0zM407.07 3872 a12.1 12.1 0 1 0 24.2 0 a12.1 12.1 0 1 0 -24.2 0zM302.28 3932.5 a12.1 12.1 0 1 0 24.2 0 a12.1 12.1 0 1 0 -24.2 0zM302.28 4053.5 a12.1 12.1 0 1 0 24.2 0 a12.1 12.1 0 1 0 -24.2 0zM407.07 4114 a12.1 12.1 0 1 0 24.2 0 a12.1 12.1 0 1 0 -24.2 0zM407.07 4235 a12.1 12.1 0 1 0 24.2 0 a12.1 12.1 0 1 0 -24.2 0zM302.28 4295.5 a12.1 12.1 0 1 0 24.2 0 a12.1 12.1 0 1 0 -24.2 0zM302.28 4416.5 a12.1 12.1 0 1 0 24.2 0 a12.1 12.1 0 1 0 -24.2 0zM407.07 4477 a12.1 12.1 0 1 0 24.2 0 a12.1 12.1 0 1 0 -24.2 0zM407.07 4598 a12.1 12.1 0 1 0 24.2 0 a12.1 12.1 0 1 0 -24.2 0zM302.28 4658.5 a12.1 12.1 0 1 0 24.2 0 a12.1 12.1 0 1 0 -24.2 0zM302.28 4779.5 a12.1 12.1 0 1 0 24.2 0 a12.1 12.1 0 1 0 -24.2 0zM407.07 4840 a12.1 12.1 0 1 0 24.2 0 a12.1 12.1 0 1 0 -24.2 0zM407.07 4961 a12.1 12.1 0 1 0 24.2 0 a12.1 12.1 0 1 0 -24.2 0zM302.28 5021.5 a12.1 12.1 0 1 0 24.2 0 a12.1 12.1 0 1 0 -24.2 0zM302.28 5142.5 a12.1 12.1 0 1 0 24.2 0 a12.1 12.1 0 1 0 -24.2 0zM407.07 5203 a12.1 12.1 0 1 0 24.2 0 a12.1 12.1 0 1 0 -24.2 0zM407.07 5324 a12.1 12.1 0 1 0 24.2 0 a12.1 12.1 0 1 0 -24.2 0zM302.28 5384.5 a12.1 12.1 0 1 0 24.2 0 a12.1 12.1 0 1 0 -24.2 0zM302.28 5505.5 a12.1 12.1 0 1 0 24.2 0 a12.1 12.1 0 1 0 -24.2 0zM407.07 5566 a12.1 12.1 0 1 0 24.2 0 a12.1 12.1 0 1 0 -24.2 0zM407.07 5687 a12.1 12.1 0 1 0 24.2 0 a12.1 12.1 0 1 0 -24.2 0zM302.28 5747.5 a12.1 12.1 0 1 0 24.2 0 a12.1 12.1 0 1 0 -24.2 0zM302.28 5868.5 a12.1 12.1 0 1 0 24.2 0 a12.1 12.1 0 1 0 -24.2 0zM407.07 5929 a12.1 12.1 0 1 0 24.2 0 a12.1 12.1 0 1 0 -24.2 0zM407.07 6050 a12.1 12.1 0 1 0 24.2 0 a12.1 12.1 0 1 0 -24.2 0zM302.28 6110.5 a12.1 12.1 0 1 0 24.2 0 a12.1 12.1 0 1 0 -24.2 0zM407.07 -121 a12.1 12.1 0 1 0 24.2 0 a12.1 12.1 0 1 0 -24.2 0zM511.86 -60.5 a12.1 12.1 0 1 0 24.2 0 a12.1 12.1 0 1 0 -24.2 0zM511.86 60.5 a12.1 12.1 0 1 0 24.2 0 a12.1 12.1 0 1 0 -24.2 0zM616.65 121 a12.1 12.1 0 1 0 24.2 0 a12.1 12.1 0 1 0 -24.2 0zM616.65 242 a12.1 12.1 0 1 0 24.2 0 a12.1 12.1 0 1 0 -24.2 0zM511.86 302.5 a12.1 12.1 0 1 0 24.2 0 a12.1 12.1 0 1 0 -24.2 0zM511.86 423.5 a12.1 12.1 0 1 0 24.2 0 a12.1 12.1 0 1 0 -24.2 0zM616.65 484 a12.1 12.1 0 1 0 24.2 0 a12.1 12.1 0 1 0 -24.2 0zM616.65 605 a12.1 12.1 0 1 0 24.2 0 a12.1 12.1 0 1 0 -24.2 0zM511.86 665.5 a12.1 12.1 0 1 0 24.2 0 a12.1 12.1 0 1 0 -24.2 0zM511.86 786.5 a12.1 12.1 0 1 0 24.2 0 a12.1 12.1 0 1 0 -24.2 0zM616.65 847 a12.1 12.1 0 1 0 24.2 0 a12.1 12.1 0 1 0 -24.2 0zM616.65 968 a12.1 12.1 0 1 0 24.2 0 a12.1 12.1 0 1 0 -24.2 0zM511.86 1028.5 a12.1 12.1 0 1 0 24.2 0 a12.1 12.1 0 1 0 -24.2 0zM511.86 1149.5 a12.1 12.1 0 1 0 24.2 0 a12.1 12.1 0 1 0 -24.2 0zM616.65 1210 a12.1 12.1 0 1 0 24.2 0 a12.1 12.1 0 1 0 -24.2 0zM616.65 1331 a12.1 12.1 0 1 0 24.2 0 a12.1 12.1 0 1 0 -24.2 0zM511.86 1391.5 a12.1 12.1 0 1 0 24.2 0 a12.1 12.1 0 1 0 -24.2 0zM511.86 1512.5 a12.1 12.1 0 1 0 24.2 0 a12.1 12.1 0 1 0 -24.2 0zM616.65 1573 a12.1 12.1 0 1 0 24.2 0 a12.1 12.1 0 1 0 -24.2 0zM616.65 1694 a12.1 12.1 0 1 0 24.2 0 a12.1 12.1 0 1 0 -24.2 0zM511.86 1754.5 a12.1 12.1 0 1 0 24.2 0 a12.1 12.1 0 1 0 -24.2 0zM511.86 1875.5 a12.1 12.1 0 1 0 24.2 0 a12.1 12.1 0 1 0 -24.2 0zM616.65 1936 a12.1 12.1 0 1 0 24.2 0 a12.1 12.1 0 1 0 -24.2 0zM616.65 2057 a12.1 12.1 0 1 0 24.2 0 a12.1 12.1 0 1 0 -24.2 0zM511.86 2117.5 a12.1 12.1 0 1 0 24.2 0 a12.1 12.1 0 1 0 -24.2 0zM511.86 2238.5 a12.1 12.1 0 1 0 24.2 0 a12.1 12.1 0 1 0 -24.2 0zM616.65 2299 a12.1 12.1 0 1 0 24.2 0 a12.1 12.1 0 1 0 -24.2 0zM616.65 2420 a12.1 12.1 0 1 0 24.2 0 a12.1 12.1 0 1 0 -24.2 0zM511.86 2480.5 a12.1 12.1 0 1 0 24.2 0 a12.1 12.1 0 1 0 -24.2 0zM511.86 2601.5 a12.1 12.1 0 1 0 24.2 0 a12.1 12.1 0 1 0 -24.2 0zM616.65 2662 a12.1 12.1 0 1 0 24.2 0 a12.1 12.1 0 1 0 -24.2 0zM616.65 2783 a12.1 12.1 0 1 0 24.2 0 a12.1 12.1 0 1 0 -24.2 0zM511.86 2843.5 a12.1 12.1 0 1 0 24.2 0 a12.1 12.1 0 1 0 -24.2 0zM511.86 2964.5 a12.1 12.1 0 1 0 24.2 0 a12.1 12.1 0 1 0 -24.2 0zM616.65 3025 a12.1 12.1 0 1 0 24.2 0 a12.1 12.1 0 1 0 -24.2 0zM616.65 3146 a12.1 12.1 0 1 0 24.2 0 a12.1 12.1 0 1 0 -24.2 0zM511.86 3206.5 a12.1 12.1 0 1 0 24.2 0 a12.1 12.1 0 1 0 -24.2 0zM511.86 3327.5 a12.1 12.1 0 1 0 24.2 0 a12.1 12.1 0 1 0 -24.2 0zM616.65 3388 a12.1 12.1 0 1 0 24.2 0 a12.1 12.1 0 1 0 -24.2 0zM616.65 3509 a12.1 12.1 0 1 0 24.2 0 a12.1 12.1 0 1 0 -24.2 0zM511.86 3569.5 a12.1 12.1 0 1 0 24.2 0 a12.1 12.1 0 1 0 -24.2 0zM511.86 3690.5 a12.1 12.1 0 1 0 24.2 0 a12.1 12.1 0 1 0 -24.2 0zM616.65 3751 a12.1 12.1 0 1 0 24.2 0 a12.1 12.1 0 1 0 -24.2 0zM616.65 3872 a12.1 12.1 0 1 0 24.2 0 a12.1 12.1 0 1 0 -24.2 0zM511.86 3932.5 a12.1 12.1 0 1 0 24.2 0 a12.1 12.1 0 1 0 -24.2 0zM511.86 4053.5 a12.1 12.1 0 1 0 24.2 0 a12.1 12.1 0 1 0 -24.2 0zM616.65 4114 a12.1 12.1 0 1 0 24.2 0 a12.1 12.1 0 1 0 -24.2 0zM616.65 4235 a12.1 12.1 0 1 0 24.2 0 a12.1 12.1 0 1 0 -24.2 0zM511.86 4295.5 a12.1 12.1 0 1 0 24.2 0 a12.1 12.1 0 1 0 -24.2 0zM511.86 4416.5 a12.1 12.1 0 1 0 24.2 0 a12.1 12.1 0 1 0 -24.2 0zM616.65 4477 a12.1 12.1 0 1 0 24.2 0 a12.1 12.1 0 1 0 -24.2 0zM616.65 4598 a12.1 12.1 0 1 0 24.2 0 a12.1 12.1 0 1 0 -24.2 0zM511.86 4658.5 a12.1 12.1 0 1 0 24.2 0 a12.1 12.1 0 1 0 -24.2 0zM511.86 4779.5 a12.1 12.1 0 1 0 24.2 0 a12.1 12.1 0 1 0 -24.2 0zM616.65 4840 a12.1 12.1 0 1 0 24.2 0 a12.1 12.1 0 1 0 -24.2 0zM616.65 4961 a12.1 12.1 0 1 0 24.2 0 a12.1 12.1 0 1 0 -24.2 0zM511.86 5021.5 a12.1 12.1 0 1 0 24.2 0 a12.1 12.1 0 1 0 -24.2 0zM511.86 5142.5 a12.1 12.1 0 1 0 24.2 0 a12.1 12.1 0 1 0 -24.2 0zM616.65 5203 a12.1 12.1 0 1 0 24.2 0 a12.1 12.1 0 1 0 -24.2 0zM616.65 5324 a12.1 12.1 0 1 0 24.2 0 a12.1 12.1 0 1 0 -24.2 0zM511.86 5384.5 a12.1 12.1 0 1 0 24.2 0 a12.1 12.1 0 1 0 -24.2 0zM511.86 5505.5 a12.1 12.1 0 1 0 24.2 0 a12.1 12.1 0 1 0 -24.2 0zM616.65 5566 a12.1 12.1 0 1 0 24.2 0 a12.1 12.1 0 1 0 -24.2 0zM616.65 5687 a12.1 12.1 0 1 0 24.2 0 a12.1 12.1 0 1 0 -24.2 0zM511.86 5747.5 a12.1 12.1 0 1 0 24.2 0 a12.1 12.1 0 1 0 -24.2 0zM511.86 5868.5 a12.1 12.1 0 1 0 24.2 0 a12.1 12.1 0 1 0 -24.2 0zM616.65 5929 a12.1 12.1 0 1 0 24.2 0 a12.1 12.1 0 1 0 -24.2 0zM616.65 6050 a12.1 12.1 0 1 0 24.2 0 a12.1 12.1 0 1 0 -24.2 0zM511.86 6110.5 a12.1 12.1 0 1 0 24.2 0 a12.1 12.1 0 1 0 -24.2 0zM616.65 -121 a12.1 12.1 0 1 0 24.2 0 a12.1 12.1 0 1 0 -24.2 0zM721.44 -60.5 a12.1 12.1 0 1 0 24.2 0 a12.1 12.1 0 1 0 -24.2 0zM721.44 60.5 a12.1 12.1 0 1 0 24.2 0 a12.1 12.1 0 1 0 -24.2 0zM826.24 121 a12.1 12.1 0 1 0 24.2 0 a12.1 12.1 0 1 0 -24.2 0zM826.24 242 a12.1 12.1 0 1 0 24.2 0 a12.1 12.1 0 1 0 -24.2 0zM721.44 302.5 a12.1 12.1 0 1 0 24.2 0 a12.1 12.1 0 1 0 -24.2 0zM721.44 423.5 a12.1 12.1 0 1 0 24.2 0 a12.1 12.1 0 1 0 -24.2 0zM826.24 484 a12.1 12.1 0 1 0 24.2 0 a12.1 12.1 0 1 0 -24.2 0zM826.24 605 a12.1 12.1 0 1 0 24.2 0 a12.1 12.1 0 1 0 -24.2 0zM721.44 665.5 a12.1 12.1 0 1 0 24.2 0 a12.1 12.1 0 1 0 -24.2 0zM721.44 786.5 a12.1 12.1 0 1 0 24.2 0 a12.1 12.1 0 1 0 -24.2 0zM826.24 847 a12.1 12.1 0 1 0 24.2 0 a12.1 12.1 0 1 0 -24.2 0zM826.24 968 a12.1 12.1 0 1 0 24.2 0 a12.1 12.1 0 1 0 -24.2 0zM721.44 1028.5 a12.1 12.1 0 1 0 24.2 0 a12.1 12.1 0 1 0 -24.2 0zM721.44 1149.5 a12.1 12.1 0 1 0 24.2 0 a12.1 12.1 0 1 0 -24.2 0zM826.24 1210 a12.1 12.1 0 1 0 24.2 0 a12.1 12.1 0 1 0 -24.2 0zM826.24 1331 a12.1 12.1 0 1 0 24.2 0 a12.1 12.1 0 1 0 -24.2 0zM721.44 1391.5 a12.1 12.1 0 1 0 24.2 0 a12.1 12.1 0 1 0 -24.2 0zM721.44 1512.5 a12.1 12.1 0 1 0 24.2 0 a12.1 12.1 0 1 0 -24.2 0zM826.24 1573 a12.1 12.1 0 1 0 24.2 0 a12.1 12.1 0 1 0 -24.2 0zM826.24 1694 a12.1 12.1 0 1 0 24.2 0 a12.1 12.1 0 1 0 -24.2 0zM721.44 1754.5 a12.1 12.1 0 1 0 24.2 0 a12.1 12.1 0 1 0 -24.2 0zM721.44 1875.5 a12.1 12.1 0 1 0 24.2 0 a12.1 12.1 0 1 0 -24.2 0zM826.24 1936 a12.1 12.1 0 1 0 24.2 0 a12.1 12.1 0 1 0 -24.2 0zM826.24 2057 a12.1 12.1 0 1 0 24.2 0 a12.1 12.1 0 1 0 -24.2 0zM721.44 2117.5 a12.1 12.1 0 1 0 24.2 0 a12.1 12.1 0 1 0 -24.2 0zM721.44 2238.5 a12.1 12.1 0 1 0 24.2 0 a12.1 12.1 0 1 0 -24.2 0zM826.24 2299 a12.1 12.1 0 1 0 24.2 0 a12.1 12.1 0 1 0 -24.2 0zM826.24 2420 a12.1 12.1 0 1 0 24.2 0 a12.1 12.1 0 1 0 -24.2 0zM721.44 2480.5 a12.1 12.1 0 1 0 24.2 0 a12.1 12.1 0 1 0 -24.2 0zM721.44 2601.5 a12.1 12.1 0 1 0 24.2 0 a12.1 12.1 0 1 0 -24.2 0zM826.24 2662 a12.1 12.1 0 1 0 24.2 0 a12.1 12.1 0 1 0 -24.2 0zM826.24 2783 a12.1 12.1 0 1 0 24.2 0 a12.1 12.1 0 1 0 -24.2 0zM721.44 2843.5 a12.1 12.1 0 1 0 24.2 0 a12.1 12.1 0 1 0 -24.2 0zM721.44 2964.5 a12.1 12.1 0 1 0 24.2 0 a12.1 12.1 0 1 0 -24.2 0zM826.24 3025 a12.1 12.1 0 1 0 24.2 0 a12.1 12.1 0 1 0 -24.2 0zM826.24 3146 a12.1 12.1 0 1 0 24.2 0 a12.1 12.1 0 1 0 -24.2 0zM721.44 3206.5 a12.1 12.1 0 1 0 24.2 0 a12.1 12.1 0 1 0 -24.2 0zM721.44 3327.5 a12.1 12.1 0 1 0 24.2 0 a12.1 12.1 0 1 0 -24.2 0zM826.24 3388 a12.1 12.1 0 1 0 24.2 0 a12.1 12.1 0 1 0 -24.2 0zM826.24 3509 a12.1 12.1 0 1 0 24.2 0 a12.1 12.1 0 1 0 -24.2 0zM721.44 3569.5 a12.1 12.1 0 1 0 24.2 0 a12.1 12.1 0 1 0 -24.2 0zM721.44 3690.5 a12.1 12.1 0 1 0 24.2 0 a12.1 12.1 0 1 0 -24.2 0zM826.24 3751 a12.1 12.1 0 1 0 24.2 0 a12.1 12.1 0 1 0 -24.2 0zM826.24 3872 a12.1 12.1 0 1 0 24.2 0 a12.1 12.1 0 1 0 -24.2 0zM721.44 3932.5 a12.1 12.1 0 1 0 24.2 0 a12.1 12.1 0 1 0 -24.2 0zM721.44 4053.5 a12.1 12.1 0 1 0 24.2 0 a12.1 12.1 0 1 0 -24.2 0zM826.24 4114 a12.1 12.1 0 1 0 24.2 0 a12.1 12.1 0 1 0 -24.2 0zM826.24 4235 a12.1 12.1 0 1 0 24.2 0 a12.1 12.1 0 1 0 -24.2 0zM721.44 4295.5 a12.1 12.1 0 1 0 24.2 0 a12.1 12.1 0 1 0 -24.2 0zM721.44 4416.5 a12.1 12.1 0 1 0 24.2 0 a12.1 12.1 0 1 0 -24.2 0zM826.24 4477 a12.1 12.1 0 1 0 24.2 0 a12.1 12.1 0 1 0 -24.2 0zM826.24 4598 a12.1 12.1 0 1 0 24.2 0 a12.1 12.1 0 1 0 -24.2 0zM721.44 4658.5 a12.1 12.1 0 1 0 24.2 0 a12.1 12.1 0 1 0 -24.2 0zM721.44 4779.5 a12.1 12.1 0 1 0 24.2 0 a12.1 12.1 0 1 0 -24.2 0zM826.24 4840 a12.1 12.1 0 1 0 24.2 0 a12.1 12.1 0 1 0 -24.2 0zM826.24 4961 a12.1 12.1 0 1 0 24.2 0 a12.1 12.1 0 1 0 -24.2 0zM721.44 5021.5 a12.1 12.1 0 1 0 24.2 0 a12.1 12.1 0 1 0 -24.2 0zM721.44 5142.5 a12.1 12.1 0 1 0 24.2 0 a12.1 12.1 0 1 0 -24.2 0zM826.24 5203 a12.1 12.1 0 1 0 24.2 0 a12.1 12.1 0 1 0 -24.2 0zM826.24 5324 a12.1 12.1 0 1 0 24.2 0 a12.1 12.1 0 1 0 -24.2 0zM721.44 5384.5 a12.1 12.1 0 1 0 24.2 0 a12.1 12.1 0 1 0 -24.2 0zM721.44 5505.5 a12.1 12.1 0 1 0 24.2 0 a12.1 12.1 0 1 0 -24.2 0zM826.24 5566 a12.1 12.1 0 1 0 24.2 0 a12.1 12.1 0 1 0 -24.2 0zM826.24 5687 a12.1 12.1 0 1 0 24.2 0 a12.1 12.1 0 1 0 -24.2 0zM721.44 5747.5 a12.1 12.1 0 1 0 24.2 0 a12.1 12.1 0 1 0 -24.2 0zM721.44 5868.5 a12.1 12.1 0 1 0 24.2 0 a12.1 12.1 0 1 0 -24.2 0zM826.24 5929 a12.1 12.1 0 1 0 24.2 0 a12.1 12.1 0 1 0 -24.2 0zM826.24 6050 a12.1 12.1 0 1 0 24.2 0 a12.1 12.1 0 1 0 -24.2 0zM721.44 6110.5 a12.1 12.1 0 1 0 24.2 0 a12.1 12.1 0 1 0 -24.2 0zM826.24 -121 a12.1 12.1 0 1 0 24.2 0 a12.1 12.1 0 1 0 -24.2 0zM931.03 -60.5 a12.1 12.1 0 1 0 24.2 0 a12.1 12.1 0 1 0 -24.2 0zM931.03 60.5 a12.1 12.1 0 1 0 24.2 0 a12.1 12.1 0 1 0 -24.2 0zM1035.82 121 a12.1 12.1 0 1 0 24.2 0 a12.1 12.1 0 1 0 -24.2 0zM1035.82 242 a12.1 12.1 0 1 0 24.2 0 a12.1 12.1 0 1 0 -24.2 0zM931.03 302.5 a12.1 12.1 0 1 0 24.2 0 a12.1 12.1 0 1 0 -24.2 0zM931.03 423.5 a12.1 12.1 0 1 0 24.2 0 a12.1 12.1 0 1 0 -24.2 0zM1035.82 484 a12.1 12.1 0 1 0 24.2 0 a12.1 12.1 0 1 0 -24.2 0zM1035.82 605 a12.1 12.1 0 1 0 24.2 0 a12.1 12.1 0 1 0 -24.2 0zM931.03 665.5 a12.1 12.1 0 1 0 24.2 0 a12.1 12.1 0 1 0 -24.2 0zM931.03 786.5 a12.1 12.1 0 1 0 24.2 0 a12.1 12.1 0 1 0 -24.2 0zM1035.82 847 a12.1 12.1 0 1 0 24.2 0 a12.1 12.1 0 1 0 -24.2 0zM1035.82 968 a12.1 12.1 0 1 0 24.2 0 a12.1 12.1 0 1 0 -24.2 0zM931.03 1028.5 a12.1 12.1 0 1 0 24.2 0 a12.1 12.1 0 1 0 -24.2 0zM931.03 1149.5 a12.1 12.1 0 1 0 24.2 0 a12.1 12.1 0 1 0 -24.2 0zM1035.82 1210 a12.1 12.1 0 1 0 24.2 0 a12.1 12.1 0 1 0 -24.2 0zM1035.82 1331 a12.1 12.1 0 1 0 24.2 0 a12.1 12.1 0 1 0 -24.2 0zM931.03 1391.5 a12.1 12.1 0 1 0 24.2 0 a12.1 12.1 0 1 0 -24.2 0zM931.03 1512.5 a12.1 12.1 0 1 0 24.2 0 a12.1 12.1 0 1 0 -24.2 0zM1035.82 1573 a12.1 12.1 0 1 0 24.2 0 a12.1 12.1 0 1 0 -24.2 0zM1035.82 1694 a12.1 12.1 0 1 0 24.2 0 a12.1 12.1 0 1 0 -24.2 0zM931.03 1754.5 a12.1 12.1 0 1 0 24.2 0 a12.1 12.1 0 1 0 -24.2 0zM931.03 1875.5 a12.1 12.1 0 1 0 24.2 0 a12.1 12.1 0 1 0 -24.2 0zM1035.82 1936 a12.1 12.1 0 1 0 24.2 0 a12.1 12.1 0 1 0 -24.2 0zM1035.82 2057 a12.1 12.1 0 1 0 24.2 0 a12.1 12.1 0 1 0 -24.2 0zM931.03 2117.5 a12.1 12.1 0 1 0 24.2 0 a12.1 12.1 0 1 0 -24.2 0zM931.03 2238.5 a12.1 12.1 0 1 0 24.2 0 a12.1 12.1 0 1 0 -24.2 0zM1035.82 2299 a12.1 12.1 0 1 0 24.2 0 a12.1 12.1 0 1 0 -24.2 0zM1035.82 2420 a12.1 12.1 0 1 0 24.2 0 a12.1 12.1 0 1 0 -24.2 0zM931.03 2480.5 a12.1 12.1 0 1 0 24.2 0 a12.1 12.1 0 1 0 -24.2 0zM931.03 2601.5 a12.1 12.1 0 1 0 24.2 0 a12.1 12.1 0 1 0 -24.2 0zM1035.82 2662 a12.1 12.1 0 1 0 24.2 0 a12.1 12.1 0 1 0 -24.2 0zM1035.82 2783 a12.1 12.1 0 1 0 24.2 0 a12.1 12.1 0 1 0 -24.2 0zM931.03 2843.5 a12.1 12.1 0 1 0 24.2 0 a12.1 12.1 0 1 0 -24.2 0zM931.03 2964.5 a12.1 12.1 0 1 0 24.2 0 a12.1 12.1 0 1 0 -24.2 0zM1035.82 3025 a12.1 12.1 0 1 0 24.2 0 a12.1 12.1 0 1 0 -24.2 0zM1035.82 3146 a12.1 12.1 0 1 0 24.2 0 a12.1 12.1 0 1 0 -24.2 0zM931.03 3206.5 a12.1 12.1 0 1 0 24.2 0 a12.1 12.1 0 1 0 -24.2 0zM931.03 3327.5 a12.1 12.1 0 1 0 24.2 0 a12.1 12.1 0 1 0 -24.2 0zM1035.82 3388 a12.1 12.1 0 1 0 24.2 0 a12.1 12.1 0 1 0 -24.2 0zM1035.82 3509 a12.1 12.1 0 1 0 24.2 0 a12.1 12.1 0 1 0 -24.2 0zM931.03 3569.5 a12.1 12.1 0 1 0 24.2 0 a12.1 12.1 0 1 0 -24.2 0zM931.03 3690.5 a12.1 12.1 0 1 0 24.2 0 a12.1 12.1 0 1 0 -24.2 0zM1035.82 3751 a12.1 12.1 0 1 0 24.2 0 a12.1 12.1 0 1 0 -24.2 0zM1035.82 3872 a12.1 12.1 0 1 0 24.2 0 a12.1 12.1 0 1 0 -24.2 0zM931.03 3932.5 a12.1 12.1 0 1 0 24.2 0 a12.1 12.1 0 1 0 -24.2 0zM931.03 4053.5 a12.1 12.1 0 1 0 24.2 0 a12.1 12.1 0 1 0 -24.2 0zM1035.82 4114 a12.1 12.1 0 1 0 24.2 0 a12.1 12.1 0 1 0 -24.2 0zM1035.82 4235 a12.1 12.1 0 1 0 24.2 0 a12.1 12.1 0 1 0 -24.2 0zM931.03 4295.5 a12.1 12.1 0 1 0 24.2 0 a12.1 12.1 0 1 0 -24.2 0zM931.03 4416.5 a12.1 12.1 0 1 0 24.2 0 a12.1 12.1 0 1 0 -24.2 0zM1035.82 4477 a12.1 12.1 0 1 0 24.2 0 a12.1 12.1 0 1 0 -24.2 0zM1035.82 4598 a12.1 12.1 0 1 0 24.2 0 a12.1 12.1 0 1 0 -24.2 0zM931.03 4658.5 a12.1 12.1 0 1 0 24.2 0 a12.1 12.1 0 1 0 -24.2 0zM931.03 4779.5 a12.1 12.1 0 1 0 24.2 0 a12.1 12.1 0 1 0 -24.2 0zM1035.82 4840 a12.1 12.1 0 1 0 24.2 0 a12.1 12.1 0 1 0 -24.2 0zM1035.82 4961 a12.1 12.1 0 1 0 24.2 0 a12.1 12.1 0 1 0 -24.2 0zM931.03 5021.5 a12.1 12.1 0 1 0 24.2 0 a12.1 12.1 0 1 0 -24.2 0zM931.03 5142.5 a12.1 12.1 0 1 0 24.2 0 a12.1 12.1 0 1 0 -24.2 0zM1035.82 5203 a12.1 12.1 0 1 0 24.2 0 a12.1 12.1 0 1 0 -24.2 0zM1035.82 5324 a12.1 12.1 0 1 0 24.2 0 a12.1 12.1 0 1 0 -24.2 0zM931.03 5384.5 a12.1 12.1 0 1 0 24.2 0 a12.1 12.1 0 1 0 -24.2 0zM931.03 5505.5 a12.1 12.1 0 1 0 24.2 0 a12.1 12.1 0 1 0 -24.2 0zM1035.82 5566 a12.1 12.1 0 1 0 24.2 0 a12.1 12.1 0 1 0 -24.2 0zM1035.82 5687 a12.1 12.1 0 1 0 24.2 0 a12.1 12.1 0 1 0 -24.2 0zM931.03 5747.5 a12.1 12.1 0 1 0 24.2 0 a12.1 12.1 0 1 0 -24.2 0zM931.03 5868.5 a12.1 12.1 0 1 0 24.2 0 a12.1 12.1 0 1 0 -24.2 0zM1035.82 5929 a12.1 12.1 0 1 0 24.2 0 a12.1 12.1 0 1 0 -24.2 0zM1035.82 6050 a12.1 12.1 0 1 0 24.2 0 a12.1 12.1 0 1 0 -24.2 0zM931.03 6110.5 a12.1 12.1 0 1 0 24.2 0 a12.1 12.1 0 1 0 -24.2 0zM1035.82 -121 a12.1 12.1 0 1 0 24.2 0 a12.1 12.1 0 1 0 -24.2 0zM1140.61 -60.5 a12.1 12.1 0 1 0 24.2 0 a12.1 12.1 0 1 0 -24.2 0zM1140.61 60.5 a12.1 12.1 0 1 0 24.2 0 a12.1 12.1 0 1 0 -24.2 0zM1245.4 121 a12.1 12.1 0 1 0 24.2 0 a12.1 12.1 0 1 0 -24.2 0zM1245.4 242 a12.1 12.1 0 1 0 24.2 0 a12.1 12.1 0 1 0 -24.2 0zM1140.61 302.5 a12.1 12.1 0 1 0 24.2 0 a12.1 12.1 0 1 0 -24.2 0zM1140.61 423.5 a12.1 12.1 0 1 0 24.2 0 a12.1 12.1 0 1 0 -24.2 0zM1245.4 484 a12.1 12.1 0 1 0 24.2 0 a12.1 12.1 0 1 0 -24.2 0zM1245.4 605 a12.1 12.1 0 1 0 24.2 0 a12.1 12.1 0 1 0 -24.2 0zM1140.61 665.5 a12.1 12.1 0 1 0 24.2 0 a12.1 12.1 0 1 0 -24.2 0zM1140.61 786.5 a12.1 12.1 0 1 0 24.2 0 a12.1 12.1 0 1 0 -24.2 0zM1245.4 847 a12.1 12.1 0 1 0 24.2 0 a12.1 12.1 0 1 0 -24.2 0zM1245.4 968 a12.1 12.1 0 1 0 24.2 0 a12.1 12.1 0 1 0 -24.2 0zM1140.61 1028.5 a12.1 12.1 0 1 0 24.2 0 a12.1 12.1 0 1 0 -24.2 0zM1140.61 1149.5 a12.1 12.1 0 1 0 24.2 0 a12.1 12.1 0 1 0 -24.2 0zM1245.4 1210 a12.1 12.1 0 1 0 24.2 0 a12.1 12.1 0 1 0 -24.2 0zM1245.4 1331 a12.1 12.1 0 1 0 24.2 0 a12.1 12.1 0 1 0 -24.2 0zM1140.61 1391.5 a12.1 12.1 0 1 0 24.2 0 a12.1 12.1 0 1 0 -24.2 0zM1140.61 1512.5 a12.1 12.1 0 1 0 24.2 0 a12.1 12.1 0 1 0 -24.2 0zM1245.4 1573 a12.1 12.1 0 1 0 24.2 0 a12.1 12.1 0 1 0 -24.2 0zM1245.4 1694 a12.1 12.1 0 1 0 24.2 0 a12.1 12.1 0 1 0 -24.2 0zM1140.61 1754.5 a12.1 12.1 0 1 0 24.2 0 a12.1 12.1 0 1 0 -24.2 0zM1140.61 1875.5 a12.1 12.1 0 1 0 24.2 0 a12.1 12.1 0 1 0 -24.2 0zM1245.4 1936 a12.1 12.1 0 1 0 24.2 0 a12.1 12.1 0 1 0 -24.2 0zM1245.4 2057 a12.1 12.1 0 1 0 24.2 0 a12.1 12.1 0 1 0 -24.2 0zM1140.61 2117.5 a12.1 12.1 0 1 0 24.2 0 a12.1 12.1 0 1 0 -24.2 0zM1140.61 2238.5 a12.1 12.1 0 1 0 24.2 0 a12.1 12.1 0 1 0 -24.2 0zM1245.4 2299 a12.1 12.1 0 1 0 24.2 0 a12.1 12.1 0 1 0 -24.2 0zM1245.4 2420 a12.1 12.1 0 1 0 24.2 0 a12.1 12.1 0 1 0 -24.2 0zM1140.61 2480.5 a12.1 12.1 0 1 0 24.2 0 a12.1 12.1 0 1 0 -24.2 0zM1140.61 2601.5 a12.1 12.1 0 1 0 24.2 0 a12.1 12.1 0 1 0 -24.2 0zM1245.4 2662 a12.1 12.1 0 1 0 24.2 0 a12.1 12.1 0 1 0 -24.2 0zM1245.4 2783 a12.1 12.1 0 1 0 24.2 0 a12.1 12.1 0 1 0 -24.2 0zM1140.61 2843.5 a12.1 12.1 0 1 0 24.2 0 a12.1 12.1 0 1 0 -24.2 0zM1140.61 2964.5 a12.1 12.1 0 1 0 24.2 0 a12.1 12.1 0 1 0 -24.2 0zM1245.4 3025 a12.1 12.1 0 1 0 24.2 0 a12.1 12.1 0 1 0 -24.2 0zM1245.4 3146 a12.1 12.1 0 1 0 24.2 0 a12.1 12.1 0 1 0 -24.2 0zM1140.61 3206.5 a12.1 12.1 0 1 0 24.2 0 a12.1 12.1 0 1 0 -24.2 0zM1140.61 3327.5 a12.1 12.1 0 1 0 24.2 0 a12.1 12.1 0 1 0 -24.2 0zM1245.4 3388 a12.1 12.1 0 1 0 24.2 0 a12.1 12.1 0 1 0 -24.2 0zM1245.4 3509 a12.1 12.1 0 1 0 24.2 0 a12.1 12.1 0 1 0 -24.2 0zM1140.61 3569.5 a12.1 12.1 0 1 0 24.2 0 a12.1 12.1 0 1 0 -24.2 0zM1140.61 3690.5 a12.1 12.1 0 1 0 24.2 0 a12.1 12.1 0 1 0 -24.2 0zM1245.4 3751 a12.1 12.1 0 1 0 24.2 0 a12.1 12.1 0 1 0 -24.2 0zM1245.4 3872 a12.1 12.1 0 1 0 24.2 0 a12.1 12.1 0 1 0 -24.2 0zM1140.61 3932.5 a12.1 12.1 0 1 0 24.2 0 a12.1 12.1 0 1 0 -24.2 0zM1140.61 4053.5 a12.1 12.1 0 1 0 24.2 0 a12.1 12.1 0 1 0 -24.2 0zM1245.4 4114 a12.1 12.1 0 1 0 24.2 0 a12.1 12.1 0 1 0 -24.2 0zM1245.4 4235 a12.1 12.1 0 1 0 24.2 0 a12.1 12.1 0 1 0 -24.2 0zM1140.61 4295.5 a12.1 12.1 0 1 0 24.2 0 a12.1 12.1 0 1 0 -24.2 0zM1140.61 4416.5 a12.1 12.1 0 1 0 24.2 0 a12.1 12.1 0 1 0 -24.2 0zM1245.4 4477 a12.1 12.1 0 1 0 24.2 0 a12.1 12.1 0 1 0 -24.2 0zM1245.4 4598 a12.1 12.1 0 1 0 24.2 0 a12.1 12.1 0 1 0 -24.2 0zM1140.61 4658.5 a12.1 12.1 0 1 0 24.2 0 a12.1 12.1 0 1 0 -24.2 0zM1140.61 4779.5 a12.1 12.1 0 1 0 24.2 0 a12.1 12.1 0 1 0 -24.2 0zM1245.4 4840 a12.1 12.1 0 1 0 24.2 0 a12.1 12.1 0 1 0 -24.2 0zM1245.4 4961 a12.1 12.1 0 1 0 24.2 0 a12.1 12.1 0 1 0 -24.2 0zM1140.61 5021.5 a12.1 12.1 0 1 0 24.2 0 a12.1 12.1 0 1 0 -24.2 0zM1140.61 5142.5 a12.1 12.1 0 1 0 24.2 0 a12.1 12.1 0 1 0 -24.2 0zM1245.4 5203 a12.1 12.1 0 1 0 24.2 0 a12.1 12.1 0 1 0 -24.2 0zM1245.4 5324 a12.1 12.1 0 1 0 24.2 0 a12.1 12.1 0 1 0 -24.2 0zM1140.61 5384.5 a12.1 12.1 0 1 0 24.2 0 a12.1 12.1 0 1 0 -24.2 0zM1140.61 5505.5 a12.1 12.1 0 1 0 24.2 0 a12.1 12.1 0 1 0 -24.2 0zM1245.4 5566 a12.1 12.1 0 1 0 24.2 0 a12.1 12.1 0 1 0 -24.2 0zM1245.4 5687 a12.1 12.1 0 1 0 24.2 0 a12.1 12.1 0 1 0 -24.2 0zM1140.61 5747.5 a12.1 12.1 0 1 0 24.2 0 a12.1 12.1 0 1 0 -24.2 0zM1140.61 5868.5 a12.1 12.1 0 1 0 24.2 0 a12.1 12.1 0 1 0 -24.2 0zM1245.4 5929 a12.1 12.1 0 1 0 24.2 0 a12.1 12.1 0 1 0 -24.2 0zM1245.4 6050 a12.1 12.1 0 1 0 24.2 0 a12.1 12.1 0 1 0 -24.2 0zM1140.61 6110.5 a12.1 12.1 0 1 0 24.2 0 a12.1 12.1 0 1 0 -24.2 0zM1245.4 -121 a12.1 12.1 0 1 0 24.2 0 a12.1 12.1 0 1 0 -24.2 0zM1350.2 -60.5 a12.1 12.1 0 1 0 24.2 0 a12.1 12.1 0 1 0 -24.2 0zM1350.2 60.5 a12.1 12.1 0 1 0 24.2 0 a12.1 12.1 0 1 0 -24.2 0zM1454.99 121 a12.1 12.1 0 1 0 24.2 0 a12.1 12.1 0 1 0 -24.2 0zM1454.99 242 a12.1 12.1 0 1 0 24.2 0 a12.1 12.1 0 1 0 -24.2 0zM1350.2 302.5 a12.1 12.1 0 1 0 24.2 0 a12.1 12.1 0 1 0 -24.2 0zM1350.2 423.5 a12.1 12.1 0 1 0 24.2 0 a12.1 12.1 0 1 0 -24.2 0zM1454.99 484 a12.1 12.1 0 1 0 24.2 0 a12.1 12.1 0 1 0 -24.2 0zM1454.99 605 a12.1 12.1 0 1 0 24.2 0 a12.1 12.1 0 1 0 -24.2 0zM1350.2 665.5 a12.1 12.1 0 1 0 24.2 0 a12.1 12.1 0 1 0 -24.2 0zM1350.2 786.5 a12.1 12.1 0 1 0 24.2 0 a12.1 12.1 0 1 0 -24.2 0zM1454.99 847 a12.1 12.1 0 1 0 24.2 0 a12.1 12.1 0 1 0 -24.2 0zM1454.99 968 a12.1 12.1 0 1 0 24.2 0 a12.1 12.1 0 1 0 -24.2 0zM1350.2 1028.5 a12.1 12.1 0 1 0 24.2 0 a12.1 12.1 0 1 0 -24.2 0zM1350.2 1149.5 a12.1 12.1 0 1 0 24.2 0 a12.1 12.1 0 1 0 -24.2 0zM1454.99 1210 a12.1 12.1 0 1 0 24.2 0 a12.1 12.1 0 1 0 -24.2 0zM1454.99 1331 a12.1 12.1 0 1 0 24.2 0 a12.1 12.1 0 1 0 -24.2 0zM1350.2 1391.5 a12.1 12.1 0 1 0 24.2 0 a12.1 12.1 0 1 0 -24.2 0zM1350.2 1512.5 a12.1 12.1 0 1 0 24.2 0 a12.1 12.1 0 1 0 -24.2 0zM1454.99 1573 a12.1 12.1 0 1 0 24.2 0 a12.1 12.1 0 1 0 -24.2 0zM1454.99 1694 a12.1 12.1 0 1 0 24.2 0 a12.1 12.1 0 1 0 -24.2 0zM1350.2 1754.5 a12.1 12.1 0 1 0 24.2 0 a12.1 12.1 0 1 0 -24.2 0zM1350.2 1875.5 a12.1 12.1 0 1 0 24.2 0 a12.1 12.1 0 1 0 -24.2 0zM1454.99 1936 a12.1 12.1 0 1 0 24.2 0 a12.1 12.1 0 1 0 -24.2 0zM1454.99 2057 a12.1 12.1 0 1 0 24.2 0 a12.1 12.1 0 1 0 -24.2 0zM1350.2 2117.5 a12.1 12.1 0 1 0 24.2 0 a12.1 12.1 0 1 0 -24.2 0zM1350.2 2238.5 a12.1 12.1 0 1 0 24.2 0 a12.1 12.1 0 1 0 -24.2 0zM1454.99 2299 a12.1 12.1 0 1 0 24.2 0 a12.1 12.1 0 1 0 -24.2 0zM1454.99 2420 a12.1 12.1 0 1 0 24.2 0 a12.1 12.1 0 1 0 -24.2 0zM1350.2 2480.5 a12.1 12.1 0 1 0 24.2 0 a12.1 12.1 0 1 0 -24.2 0zM1350.2 2601.5 a12.1 12.1 0 1 0 24.2 0 a12.1 12.1 0 1 0 -24.2 0zM1454.99 2662 a12.1 12.1 0 1 0 24.2 0 a12.1 12.1 0 1 0 -24.2 0zM1454.99 2783 a12.1 12.1 0 1 0 24.2 0 a12.1 12.1 0 1 0 -24.2 0zM1350.2 2843.5 a12.1 12.1 0 1 0 24.2 0 a12.1 12.1 0 1 0 -24.2 0zM1350.2 2964.5 a12.1 12.1 0 1 0 24.2 0 a12.1 12.1 0 1 0 -24.2 0zM1454.99 3025 a12.1 12.1 0 1 0 24.2 0 a12.1 12.1 0 1 0 -24.2 0zM1454.99 3146 a12.1 12.1 0 1 0 24.2 0 a12.1 12.1 0 1 0 -24.2 0zM1350.2 3206.5 a12.1 12.1 0 1 0 24.2 0 a12.1 12.1 0 1 0 -24.2 0zM1350.2 3327.5 a12.1 12.1 0 1 0 24.2 0 a12.1 12.1 0 1 0 -24.2 0zM1454.99 3388 a12.1 12.1 0 1 0 24.2 0 a12.1 12.1 0 1 0 -24.2 0zM1454.99 3509 a12.1 12.1 0 1 0 24.2 0 a12.1 12.1 0 1 0 -24.2 0zM1350.2 3569.5 a12.1 12.1 0 1 0 24.2 0 a12.1 12.1 0 1 0 -24.2 0zM1350.2 3690.5 a12.1 12.1 0 1 0 24.2 0 a12.1 12.1 0 1 0 -24.2 0zM1454.99 3751 a12.1 12.1 0 1 0 24.2 0 a12.1 12.1 0 1 0 -24.2 0zM1454.99 3872 a12.1 12.1 0 1 0 24.2 0 a12.1 12.1 0 1 0 -24.2 0zM1350.2 3932.5 a12.1 12.1 0 1 0 24.2 0 a12.1 12.1 0 1 0 -24.2 0zM1350.2 4053.5 a12.1 12.1 0 1 0 24.2 0 a12.1 12.1 0 1 0 -24.2 0zM1454.99 4114 a12.1 12.1 0 1 0 24.2 0 a12.1 12.1 0 1 0 -24.2 0zM1454.99 4235 a12.1 12.1 0 1 0 24.2 0 a12.1 12.1 0 1 0 -24.2 0zM1350.2 4295.5 a12.1 12.1 0 1 0 24.2 0 a12.1 12.1 0 1 0 -24.2 0zM1350.2 4416.5 a12.1 12.1 0 1 0 24.2 0 a12.1 12.1 0 1 0 -24.2 0zM1454.99 4477 a12.1 12.1 0 1 0 24.2 0 a12.1 12.1 0 1 0 -24.2 0zM1454.99 4598 a12.1 12.1 0 1 0 24.2 0 a12.1 12.1 0 1 0 -24.2 0zM1350.2 4658.5 a12.1 12.1 0 1 0 24.2 0 a12.1 12.1 0 1 0 -24.2 0zM1350.2 4779.5 a12.1 12.1 0 1 0 24.2 0 a12.1 12.1 0 1 0 -24.2 0zM1454.99 4840 a12.1 12.1 0 1 0 24.2 0 a12.1 12.1 0 1 0 -24.2 0zM1454.99 4961 a12.1 12.1 0 1 0 24.2 0 a12.1 12.1 0 1 0 -24.2 0zM1350.2 5021.5 a12.1 12.1 0 1 0 24.2 0 a12.1 12.1 0 1 0 -24.2 0zM1350.2 5142.5 a12.1 12.1 0 1 0 24.2 0 a12.1 12.1 0 1 0 -24.2 0zM1454.99 5203 a12.1 12.1 0 1 0 24.2 0 a12.1 12.1 0 1 0 -24.2 0zM1454.99 5324 a12.1 12.1 0 1 0 24.2 0 a12.1 12.1 0 1 0 -24.2 0zM1350.2 5384.5 a12.1 12.1 0 1 0 24.2 0 a12.1 12.1 0 1 0 -24.2 0zM1350.2 5505.5 a12.1 12.1 0 1 0 24.2 0 a12.1 12.1 0 1 0 -24.2 0zM1454.99 5566 a12.1 12.1 0 1 0 24.2 0 a12.1 12.1 0 1 0 -24.2 0zM1454.99 5687 a12.1 12.1 0 1 0 24.2 0 a12.1 12.1 0 1 0 -24.2 0zM1350.2 5747.5 a12.1 12.1 0 1 0 24.2 0 a12.1 12.1 0 1 0 -24.2 0zM1350.2 5868.5 a12.1 12.1 0 1 0 24.2 0 a12.1 12.1 0 1 0 -24.2 0zM1454.99 5929 a12.1 12.1 0 1 0 24.2 0 a12.1 12.1 0 1 0 -24.2 0zM1454.99 6050 a12.1 12.1 0 1 0 24.2 0 a12.1 12.1 0 1 0 -24.2 0zM1350.2 6110.5 a12.1 12.1 0 1 0 24.2 0 a12.1 12.1 0 1 0 -24.2 0z" fill="rgba(30, 141, 209, 0.1)"></path></g><defs><mask id="SvgjsMask1015"><rect width="1440" height="6000" fill="#ffffff"></rect></mask></defs></svg>