<svg xmlns="http://www.w3.org/2000/svg" version="1.1" xmlns:xlink="http://www.w3.org/1999/xlink" xmlns:svgjs="http://svgjs.com/svgjs" width="1600" height="6620" preserveAspectRatio="none" viewBox="0 0 1600 6620"><g mask="url(&quot;#SvgjsMask3313&quot;)" fill="none"><rect width="1600" height="6620" x="0" y="0" fill="rgba(255, 255, 255, 1)"></rect><path d="M224.96 552.17L338.42 617.67L338.42 748.67L224.96 814.17L111.51 748.67L111.51 617.67zM111.51 748.67L224.96 814.17L224.96 945.17L111.51 1010.67L-1.94 945.17L-1.94 814.17zM111.51 2320.67L224.96 2386.17L224.96 2517.17L111.51 2582.67L-1.94 2517.17L-1.94 2386.17zM111.51 5071.67L224.96 5137.17L224.96 5268.17L111.51 5333.67L-1.94 5268.17L-1.94 5137.17zM111.51 5464.67L224.96 5530.17L224.96 5661.17L111.51 5726.67L-1.94 5661.17L-1.94 5530.17zM224.96 5661.17L338.42 5726.67L338.42 5857.67L224.96 5923.17L111.51 5857.67L111.51 5726.67zM451.87 945.17L565.32 1010.67L565.32 1141.67L451.87 1207.17L338.42 1141.67L338.42 1010.67zM451.87 1731.17L565.32 1796.67L565.32 1927.67L451.87 1993.17L338.42 1927.67L338.42 1796.67zM451.87 2517.17L565.32 2582.67L565.32 2713.67L451.87 2779.17L338.42 2713.67L338.42 2582.67zM338.42 3106.67L451.87 3172.17L451.87 3303.17L338.42 3368.67L224.96 3303.17L224.96 3172.17zM338.42 3892.67L451.87 3958.17L451.87 4089.17L338.42 4154.67L224.96 4089.17L224.96 3958.17zM338.42 5464.67L451.87 5530.17L451.87 5661.17L338.42 5726.67L224.96 5661.17L224.96 5530.17zM565.32 -37.33L678.77 28.17L678.77 159.17L565.32 224.67L451.87 159.17L451.87 28.17zM678.77 159.17L792.23 224.67L792.23 355.67L678.77 421.17L565.32 355.67L565.32 224.67zM565.32 1534.67L678.77 1600.17L678.77 1731.17L565.32 1796.67L451.87 1731.17L451.87 1600.17zM678.77 6447.17L792.23 6512.67L792.23 6643.67L678.77 6709.17L565.32 6643.67L565.32 6512.67zM565.32 6643.67L678.77 6709.17L678.77 6840.17L565.32 6905.67L451.87 6840.17L451.87 6709.17zM905.68 2517.17L1019.13 2582.67L1019.13 2713.67L905.68 2779.17L792.23 2713.67L792.23 2582.67zM1019.13 748.67L1132.58 814.17L1132.58 945.17L1019.13 1010.67L905.68 945.17L905.68 814.17zM1019.13 1534.67L1132.58 1600.17L1132.58 1731.17L1019.13 1796.67L905.68 1731.17L905.68 1600.17zM1132.58 4089.17L1246.04 4154.67L1246.04 4285.67L1132.58 4351.17L1019.13 4285.67L1019.13 4154.67zM1019.13 4678.67L1132.58 4744.17L1132.58 4875.17L1019.13 4940.67L905.68 4875.17L905.68 4744.17zM1132.58 4875.17L1246.04 4940.67L1246.04 5071.67L1132.58 5137.17L1019.13 5071.67L1019.13 4940.67zM1132.58 5661.17L1246.04 5726.67L1246.04 5857.67L1132.58 5923.17L1019.13 5857.67L1019.13 5726.67zM1132.58 6054.17L1246.04 6119.67L1246.04 6250.67L1132.58 6316.17L1019.13 6250.67L1019.13 6119.67zM1019.13 6643.67L1132.58 6709.17L1132.58 6840.17L1019.13 6905.67L905.68 6840.17L905.68 6709.17zM1246.04 1141.67L1359.49 1207.17L1359.49 1338.17L1246.04 1403.67L1132.58 1338.17L1132.58 1207.17zM1359.49 1338.17L1472.94 1403.67L1472.94 1534.67L1359.49 1600.17L1246.04 1534.67L1246.04 1403.67zM1246.04 2320.67L1359.49 2386.17L1359.49 2517.17L1246.04 2582.67L1132.58 2517.17L1132.58 2386.17zM1246.04 3106.67L1359.49 3172.17L1359.49 3303.17L1246.04 3368.67L1132.58 3303.17L1132.58 3172.17zM1359.49 4482.17L1472.94 4547.67L1472.94 4678.67L1359.49 4744.17L1246.04 4678.67L1246.04 4547.67zM1586.39 552.17L1699.85 617.67L1699.85 748.67L1586.39 814.17L1472.94 748.67L1472.94 617.67zM1472.94 1534.67L1586.39 1600.17L1586.39 1731.17L1472.94 1796.67L1359.49 1731.17L1359.49 1600.17zM1472.94 1927.67L1586.39 1993.17L1586.39 2124.17L1472.94 2189.67L1359.49 2124.17L1359.49 1993.17zM1586.39 3303.17L1699.85 3368.67L1699.85 3499.67L1586.39 3565.17L1472.94 3499.67L1472.94 3368.67zM1472.94 4678.67L1586.39 4744.17L1586.39 4875.17L1472.94 4940.67L1359.49 4875.17L1359.49 4744.17zM1472.94 6250.67L1586.39 6316.17L1586.39 6447.17L1472.94 6512.67L1359.49 6447.17L1359.49 6316.17zM1699.85 1534.67L1813.3 1600.17L1813.3 1731.17L1699.85 1796.67L1586.39 1731.17L1586.39 1600.17zM1813.3 3696.17L1926.75 3761.67L1926.75 3892.67L1813.3 3958.17L1699.85 3892.67L1699.85 3761.67zM1699.85 3892.67L1813.3 3958.17L1813.3 4089.17L1699.85 4154.67L1586.39 4089.17L1586.39 3958.17zM1699.85 5464.67L1813.3 5530.17L1813.3 5661.17L1699.85 5726.67L1586.39 5661.17L1586.39 5530.17zM1699.85 5857.67L1813.3 5923.17L1813.3 6054.17L1699.85 6119.67L1586.39 6054.17L1586.39 5923.17zM1813.3 6447.17L1926.75 6512.67L1926.75 6643.67L1813.3 6709.17L1699.85 6643.67L1699.85 6512.67z" stroke="url(#SvgjsLinearGradient3314)" stroke-width="2"></path><path d="M211.86 552.17 a13.1 13.1 0 1 0 26.2 0 a13.1 13.1 0 1 0 -26.2 0zM325.32 617.67 a13.1 13.1 0 1 0 26.2 0 a13.1 13.1 0 1 0 -26.2 0zM325.32 748.67 a13.1 13.1 0 1 0 26.2 0 a13.1 13.1 0 1 0 -26.2 0zM211.86 814.17 a13.1 13.1 0 1 0 26.2 0 a13.1 13.1 0 1 0 -26.2 0zM98.41 748.67 a13.1 13.1 0 1 0 26.2 0 a13.1 13.1 0 1 0 -26.2 0zM98.41 617.67 a13.1 13.1 0 1 0 26.2 0 a13.1 13.1 0 1 0 -26.2 0zM211.86 945.17 a13.1 13.1 0 1 0 26.2 0 a13.1 13.1 0 1 0 -26.2 0zM98.41 1010.67 a13.1 13.1 0 1 0 26.2 0 a13.1 13.1 0 1 0 -26.2 0zM-15.04 945.17 a13.1 13.1 0 1 0 26.2 0 a13.1 13.1 0 1 0 -26.2 0zM-15.04 814.17 a13.1 13.1 0 1 0 26.2 0 a13.1 13.1 0 1 0 -26.2 0zM98.41 2320.67 a13.1 13.1 0 1 0 26.2 0 a13.1 13.1 0 1 0 -26.2 0zM211.86 2386.17 a13.1 13.1 0 1 0 26.2 0 a13.1 13.1 0 1 0 -26.2 0zM211.86 2517.17 a13.1 13.1 0 1 0 26.2 0 a13.1 13.1 0 1 0 -26.2 0zM98.41 2582.67 a13.1 13.1 0 1 0 26.2 0 a13.1 13.1 0 1 0 -26.2 0zM-15.04 2517.17 a13.1 13.1 0 1 0 26.2 0 a13.1 13.1 0 1 0 -26.2 0zM-15.04 2386.17 a13.1 13.1 0 1 0 26.2 0 a13.1 13.1 0 1 0 -26.2 0zM98.41 5071.67 a13.1 13.1 0 1 0 26.2 0 a13.1 13.1 0 1 0 -26.2 0zM211.86 5137.17 a13.1 13.1 0 1 0 26.2 0 a13.1 13.1 0 1 0 -26.2 0zM211.86 5268.17 a13.1 13.1 0 1 0 26.2 0 a13.1 13.1 0 1 0 -26.2 0zM98.41 5333.67 a13.1 13.1 0 1 0 26.2 0 a13.1 13.1 0 1 0 -26.2 0zM-15.04 5268.17 a13.1 13.1 0 1 0 26.2 0 a13.1 13.1 0 1 0 -26.2 0zM-15.04 5137.17 a13.1 13.1 0 1 0 26.2 0 a13.1 13.1 0 1 0 -26.2 0zM98.41 5464.67 a13.1 13.1 0 1 0 26.2 0 a13.1 13.1 0 1 0 -26.2 0zM211.86 5530.17 a13.1 13.1 0 1 0 26.2 0 a13.1 13.1 0 1 0 -26.2 0zM211.86 5661.17 a13.1 13.1 0 1 0 26.2 0 a13.1 13.1 0 1 0 -26.2 0zM98.41 5726.67 a13.1 13.1 0 1 0 26.2 0 a13.1 13.1 0 1 0 -26.2 0zM-15.04 5661.17 a13.1 13.1 0 1 0 26.2 0 a13.1 13.1 0 1 0 -26.2 0zM-15.04 5530.17 a13.1 13.1 0 1 0 26.2 0 a13.1 13.1 0 1 0 -26.2 0zM325.32 5726.67 a13.1 13.1 0 1 0 26.2 0 a13.1 13.1 0 1 0 -26.2 0zM325.32 5857.67 a13.1 13.1 0 1 0 26.2 0 a13.1 13.1 0 1 0 -26.2 0zM211.86 5923.17 a13.1 13.1 0 1 0 26.2 0 a13.1 13.1 0 1 0 -26.2 0zM98.41 5857.67 a13.1 13.1 0 1 0 26.2 0 a13.1 13.1 0 1 0 -26.2 0zM438.77 945.17 a13.1 13.1 0 1 0 26.2 0 a13.1 13.1 0 1 0 -26.2 0zM552.22 1010.67 a13.1 13.1 0 1 0 26.2 0 a13.1 13.1 0 1 0 -26.2 0zM552.22 1141.67 a13.1 13.1 0 1 0 26.2 0 a13.1 13.1 0 1 0 -26.2 0zM438.77 1207.17 a13.1 13.1 0 1 0 26.2 0 a13.1 13.1 0 1 0 -26.2 0zM325.32 1141.67 a13.1 13.1 0 1 0 26.2 0 a13.1 13.1 0 1 0 -26.2 0zM325.32 1010.67 a13.1 13.1 0 1 0 26.2 0 a13.1 13.1 0 1 0 -26.2 0zM438.77 1731.17 a13.1 13.1 0 1 0 26.2 0 a13.1 13.1 0 1 0 -26.2 0zM552.22 1796.67 a13.1 13.1 0 1 0 26.2 0 a13.1 13.1 0 1 0 -26.2 0zM552.22 1927.67 a13.1 13.1 0 1 0 26.2 0 a13.1 13.1 0 1 0 -26.2 0zM438.77 1993.17 a13.1 13.1 0 1 0 26.2 0 a13.1 13.1 0 1 0 -26.2 0zM325.32 1927.67 a13.1 13.1 0 1 0 26.2 0 a13.1 13.1 0 1 0 -26.2 0zM325.32 1796.67 a13.1 13.1 0 1 0 26.2 0 a13.1 13.1 0 1 0 -26.2 0zM438.77 2517.17 a13.1 13.1 0 1 0 26.2 0 a13.1 13.1 0 1 0 -26.2 0zM552.22 2582.67 a13.1 13.1 0 1 0 26.2 0 a13.1 13.1 0 1 0 -26.2 0zM552.22 2713.67 a13.1 13.1 0 1 0 26.2 0 a13.1 13.1 0 1 0 -26.2 0zM438.77 2779.17 a13.1 13.1 0 1 0 26.2 0 a13.1 13.1 0 1 0 -26.2 0zM325.32 2713.67 a13.1 13.1 0 1 0 26.2 0 a13.1 13.1 0 1 0 -26.2 0zM325.32 2582.67 a13.1 13.1 0 1 0 26.2 0 a13.1 13.1 0 1 0 -26.2 0zM325.32 3106.67 a13.1 13.1 0 1 0 26.2 0 a13.1 13.1 0 1 0 -26.2 0zM438.77 3172.17 a13.1 13.1 0 1 0 26.2 0 a13.1 13.1 0 1 0 -26.2 0zM438.77 3303.17 a13.1 13.1 0 1 0 26.2 0 a13.1 13.1 0 1 0 -26.2 0zM325.32 3368.67 a13.1 13.1 0 1 0 26.2 0 a13.1 13.1 0 1 0 -26.2 0zM211.86 3303.17 a13.1 13.1 0 1 0 26.2 0 a13.1 13.1 0 1 0 -26.2 0zM211.86 3172.17 a13.1 13.1 0 1 0 26.2 0 a13.1 13.1 0 1 0 -26.2 0zM325.32 3892.67 a13.1 13.1 0 1 0 26.2 0 a13.1 13.1 0 1 0 -26.2 0zM438.77 3958.17 a13.1 13.1 0 1 0 26.2 0 a13.1 13.1 0 1 0 -26.2 0zM438.77 4089.17 a13.1 13.1 0 1 0 26.2 0 a13.1 13.1 0 1 0 -26.2 0zM325.32 4154.67 a13.1 13.1 0 1 0 26.2 0 a13.1 13.1 0 1 0 -26.2 0zM211.86 4089.17 a13.1 13.1 0 1 0 26.2 0 a13.1 13.1 0 1 0 -26.2 0zM211.86 3958.17 a13.1 13.1 0 1 0 26.2 0 a13.1 13.1 0 1 0 -26.2 0zM325.32 5464.67 a13.1 13.1 0 1 0 26.2 0 a13.1 13.1 0 1 0 -26.2 0zM438.77 5530.17 a13.1 13.1 0 1 0 26.2 0 a13.1 13.1 0 1 0 -26.2 0zM438.77 5661.17 a13.1 13.1 0 1 0 26.2 0 a13.1 13.1 0 1 0 -26.2 0zM552.22 -37.33 a13.1 13.1 0 1 0 26.2 0 a13.1 13.1 0 1 0 -26.2 0zM665.67 28.17 a13.1 13.1 0 1 0 26.2 0 a13.1 13.1 0 1 0 -26.2 0zM665.67 159.17 a13.1 13.1 0 1 0 26.2 0 a13.1 13.1 0 1 0 -26.2 0zM552.22 224.67 a13.1 13.1 0 1 0 26.2 0 a13.1 13.1 0 1 0 -26.2 0zM438.77 159.17 a13.1 13.1 0 1 0 26.2 0 a13.1 13.1 0 1 0 -26.2 0zM438.77 28.17 a13.1 13.1 0 1 0 26.2 0 a13.1 13.1 0 1 0 -26.2 0zM779.13 224.67 a13.1 13.1 0 1 0 26.2 0 a13.1 13.1 0 1 0 -26.2 0zM779.13 355.67 a13.1 13.1 0 1 0 26.2 0 a13.1 13.1 0 1 0 -26.2 0zM665.67 421.17 a13.1 13.1 0 1 0 26.2 0 a13.1 13.1 0 1 0 -26.2 0zM552.22 355.67 a13.1 13.1 0 1 0 26.2 0 a13.1 13.1 0 1 0 -26.2 0zM552.22 1534.67 a13.1 13.1 0 1 0 26.2 0 a13.1 13.1 0 1 0 -26.2 0zM665.67 1600.17 a13.1 13.1 0 1 0 26.2 0 a13.1 13.1 0 1 0 -26.2 0zM665.67 1731.17 a13.1 13.1 0 1 0 26.2 0 a13.1 13.1 0 1 0 -26.2 0zM438.77 1600.17 a13.1 13.1 0 1 0 26.2 0 a13.1 13.1 0 1 0 -26.2 0zM665.67 6447.17 a13.1 13.1 0 1 0 26.2 0 a13.1 13.1 0 1 0 -26.2 0zM779.13 6512.67 a13.1 13.1 0 1 0 26.2 0 a13.1 13.1 0 1 0 -26.2 0zM779.13 6643.67 a13.1 13.1 0 1 0 26.2 0 a13.1 13.1 0 1 0 -26.2 0zM665.67 6709.17 a13.1 13.1 0 1 0 26.2 0 a13.1 13.1 0 1 0 -26.2 0zM552.22 6643.67 a13.1 13.1 0 1 0 26.2 0 a13.1 13.1 0 1 0 -26.2 0zM552.22 6512.67 a13.1 13.1 0 1 0 26.2 0 a13.1 13.1 0 1 0 -26.2 0zM665.67 6840.17 a13.1 13.1 0 1 0 26.2 0 a13.1 13.1 0 1 0 -26.2 0zM552.22 6905.67 a13.1 13.1 0 1 0 26.2 0 a13.1 13.1 0 1 0 -26.2 0zM438.77 6840.17 a13.1 13.1 0 1 0 26.2 0 a13.1 13.1 0 1 0 -26.2 0zM438.77 6709.17 a13.1 13.1 0 1 0 26.2 0 a13.1 13.1 0 1 0 -26.2 0zM892.58 2517.17 a13.1 13.1 0 1 0 26.2 0 a13.1 13.1 0 1 0 -26.2 0zM1006.03 2582.67 a13.1 13.1 0 1 0 26.2 0 a13.1 13.1 0 1 0 -26.2 0zM1006.03 2713.67 a13.1 13.1 0 1 0 26.2 0 a13.1 13.1 0 1 0 -26.2 0zM892.58 2779.17 a13.1 13.1 0 1 0 26.2 0 a13.1 13.1 0 1 0 -26.2 0zM779.13 2713.67 a13.1 13.1 0 1 0 26.2 0 a13.1 13.1 0 1 0 -26.2 0zM779.13 2582.67 a13.1 13.1 0 1 0 26.2 0 a13.1 13.1 0 1 0 -26.2 0zM1006.03 748.67 a13.1 13.1 0 1 0 26.2 0 a13.1 13.1 0 1 0 -26.2 0zM1119.48 814.17 a13.1 13.1 0 1 0 26.2 0 a13.1 13.1 0 1 0 -26.2 0zM1119.48 945.17 a13.1 13.1 0 1 0 26.2 0 a13.1 13.1 0 1 0 -26.2 0zM1006.03 1010.67 a13.1 13.1 0 1 0 26.2 0 a13.1 13.1 0 1 0 -26.2 0zM892.58 945.17 a13.1 13.1 0 1 0 26.2 0 a13.1 13.1 0 1 0 -26.2 0zM892.58 814.17 a13.1 13.1 0 1 0 26.2 0 a13.1 13.1 0 1 0 -26.2 0zM1006.03 1534.67 a13.1 13.1 0 1 0 26.2 0 a13.1 13.1 0 1 0 -26.2 0zM1119.48 1600.17 a13.1 13.1 0 1 0 26.2 0 a13.1 13.1 0 1 0 -26.2 0zM1119.48 1731.17 a13.1 13.1 0 1 0 26.2 0 a13.1 13.1 0 1 0 -26.2 0zM1006.03 1796.67 a13.1 13.1 0 1 0 26.2 0 a13.1 13.1 0 1 0 -26.2 0zM892.58 1731.17 a13.1 13.1 0 1 0 26.2 0 a13.1 13.1 0 1 0 -26.2 0zM892.58 1600.17 a13.1 13.1 0 1 0 26.2 0 a13.1 13.1 0 1 0 -26.2 0zM1119.48 4089.17 a13.1 13.1 0 1 0 26.2 0 a13.1 13.1 0 1 0 -26.2 0zM1232.94 4154.67 a13.1 13.1 0 1 0 26.2 0 a13.1 13.1 0 1 0 -26.2 0zM1232.94 4285.67 a13.1 13.1 0 1 0 26.2 0 a13.1 13.1 0 1 0 -26.2 0zM1119.48 4351.17 a13.1 13.1 0 1 0 26.2 0 a13.1 13.1 0 1 0 -26.2 0zM1006.03 4285.67 a13.1 13.1 0 1 0 26.2 0 a13.1 13.1 0 1 0 -26.2 0zM1006.03 4154.67 a13.1 13.1 0 1 0 26.2 0 a13.1 13.1 0 1 0 -26.2 0zM1006.03 4678.67 a13.1 13.1 0 1 0 26.2 0 a13.1 13.1 0 1 0 -26.2 0zM1119.48 4744.17 a13.1 13.1 0 1 0 26.2 0 a13.1 13.1 0 1 0 -26.2 0zM1119.48 4875.17 a13.1 13.1 0 1 0 26.2 0 a13.1 13.1 0 1 0 -26.2 0zM1006.03 4940.67 a13.1 13.1 0 1 0 26.2 0 a13.1 13.1 0 1 0 -26.2 0zM892.58 4875.17 a13.1 13.1 0 1 0 26.2 0 a13.1 13.1 0 1 0 -26.2 0zM892.58 4744.17 a13.1 13.1 0 1 0 26.2 0 a13.1 13.1 0 1 0 -26.2 0zM1232.94 4940.67 a13.1 13.1 0 1 0 26.2 0 a13.1 13.1 0 1 0 -26.2 0zM1232.94 5071.67 a13.1 13.1 0 1 0 26.2 0 a13.1 13.1 0 1 0 -26.2 0zM1119.48 5137.17 a13.1 13.1 0 1 0 26.2 0 a13.1 13.1 0 1 0 -26.2 0zM1006.03 5071.67 a13.1 13.1 0 1 0 26.2 0 a13.1 13.1 0 1 0 -26.2 0zM1119.48 5661.17 a13.1 13.1 0 1 0 26.2 0 a13.1 13.1 0 1 0 -26.2 0zM1232.94 5726.67 a13.1 13.1 0 1 0 26.2 0 a13.1 13.1 0 1 0 -26.2 0zM1232.94 5857.67 a13.1 13.1 0 1 0 26.2 0 a13.1 13.1 0 1 0 -26.2 0zM1119.48 5923.17 a13.1 13.1 0 1 0 26.2 0 a13.1 13.1 0 1 0 -26.2 0zM1006.03 5857.67 a13.1 13.1 0 1 0 26.2 0 a13.1 13.1 0 1 0 -26.2 0zM1006.03 5726.67 a13.1 13.1 0 1 0 26.2 0 a13.1 13.1 0 1 0 -26.2 0zM1119.48 6054.17 a13.1 13.1 0 1 0 26.2 0 a13.1 13.1 0 1 0 -26.2 0zM1232.94 6119.67 a13.1 13.1 0 1 0 26.2 0 a13.1 13.1 0 1 0 -26.2 0zM1232.94 6250.67 a13.1 13.1 0 1 0 26.2 0 a13.1 13.1 0 1 0 -26.2 0zM1119.48 6316.17 a13.1 13.1 0 1 0 26.2 0 a13.1 13.1 0 1 0 -26.2 0zM1006.03 6250.67 a13.1 13.1 0 1 0 26.2 0 a13.1 13.1 0 1 0 -26.2 0zM1006.03 6119.67 a13.1 13.1 0 1 0 26.2 0 a13.1 13.1 0 1 0 -26.2 0zM1006.03 6643.67 a13.1 13.1 0 1 0 26.2 0 a13.1 13.1 0 1 0 -26.2 0zM1119.48 6709.17 a13.1 13.1 0 1 0 26.2 0 a13.1 13.1 0 1 0 -26.2 0zM1119.48 6840.17 a13.1 13.1 0 1 0 26.2 0 a13.1 13.1 0 1 0 -26.2 0zM1006.03 6905.67 a13.1 13.1 0 1 0 26.2 0 a13.1 13.1 0 1 0 -26.2 0zM892.58 6840.17 a13.1 13.1 0 1 0 26.2 0 a13.1 13.1 0 1 0 -26.2 0zM892.58 6709.17 a13.1 13.1 0 1 0 26.2 0 a13.1 13.1 0 1 0 -26.2 0zM1232.94 1141.67 a13.1 13.1 0 1 0 26.2 0 a13.1 13.1 0 1 0 -26.2 0zM1346.39 1207.17 a13.1 13.1 0 1 0 26.2 0 a13.1 13.1 0 1 0 -26.2 0zM1346.39 1338.17 a13.1 13.1 0 1 0 26.2 0 a13.1 13.1 0 1 0 -26.2 0zM1232.94 1403.67 a13.1 13.1 0 1 0 26.2 0 a13.1 13.1 0 1 0 -26.2 0zM1119.48 1338.17 a13.1 13.1 0 1 0 26.2 0 a13.1 13.1 0 1 0 -26.2 0zM1119.48 1207.17 a13.1 13.1 0 1 0 26.2 0 a13.1 13.1 0 1 0 -26.2 0zM1459.84 1403.67 a13.1 13.1 0 1 0 26.2 0 a13.1 13.1 0 1 0 -26.2 0zM1459.84 1534.67 a13.1 13.1 0 1 0 26.2 0 a13.1 13.1 0 1 0 -26.2 0zM1346.39 1600.17 a13.1 13.1 0 1 0 26.2 0 a13.1 13.1 0 1 0 -26.2 0zM1232.94 1534.67 a13.1 13.1 0 1 0 26.2 0 a13.1 13.1 0 1 0 -26.2 0zM1232.94 2320.67 a13.1 13.1 0 1 0 26.2 0 a13.1 13.1 0 1 0 -26.2 0zM1346.39 2386.17 a13.1 13.1 0 1 0 26.2 0 a13.1 13.1 0 1 0 -26.2 0zM1346.39 2517.17 a13.1 13.1 0 1 0 26.2 0 a13.1 13.1 0 1 0 -26.2 0zM1232.94 2582.67 a13.1 13.1 0 1 0 26.2 0 a13.1 13.1 0 1 0 -26.2 0zM1119.48 2517.17 a13.1 13.1 0 1 0 26.2 0 a13.1 13.1 0 1 0 -26.2 0zM1119.48 2386.17 a13.1 13.1 0 1 0 26.2 0 a13.1 13.1 0 1 0 -26.2 0zM1232.94 3106.67 a13.1 13.1 0 1 0 26.2 0 a13.1 13.1 0 1 0 -26.2 0zM1346.39 3172.17 a13.1 13.1 0 1 0 26.2 0 a13.1 13.1 0 1 0 -26.2 0zM1346.39 3303.17 a13.1 13.1 0 1 0 26.2 0 a13.1 13.1 0 1 0 -26.2 0zM1232.94 3368.67 a13.1 13.1 0 1 0 26.2 0 a13.1 13.1 0 1 0 -26.2 0zM1119.48 3303.17 a13.1 13.1 0 1 0 26.2 0 a13.1 13.1 0 1 0 -26.2 0zM1119.48 3172.17 a13.1 13.1 0 1 0 26.2 0 a13.1 13.1 0 1 0 -26.2 0zM1346.39 4482.17 a13.1 13.1 0 1 0 26.2 0 a13.1 13.1 0 1 0 -26.2 0zM1459.84 4547.67 a13.1 13.1 0 1 0 26.2 0 a13.1 13.1 0 1 0 -26.2 0zM1459.84 4678.67 a13.1 13.1 0 1 0 26.2 0 a13.1 13.1 0 1 0 -26.2 0zM1346.39 4744.17 a13.1 13.1 0 1 0 26.2 0 a13.1 13.1 0 1 0 -26.2 0zM1232.94 4678.67 a13.1 13.1 0 1 0 26.2 0 a13.1 13.1 0 1 0 -26.2 0zM1232.94 4547.67 a13.1 13.1 0 1 0 26.2 0 a13.1 13.1 0 1 0 -26.2 0zM1573.29 552.17 a13.1 13.1 0 1 0 26.2 0 a13.1 13.1 0 1 0 -26.2 0zM1686.75 617.67 a13.1 13.1 0 1 0 26.2 0 a13.1 13.1 0 1 0 -26.2 0zM1686.75 748.67 a13.1 13.1 0 1 0 26.2 0 a13.1 13.1 0 1 0 -26.2 0zM1573.29 814.17 a13.1 13.1 0 1 0 26.2 0 a13.1 13.1 0 1 0 -26.2 0zM1459.84 748.67 a13.1 13.1 0 1 0 26.2 0 a13.1 13.1 0 1 0 -26.2 0zM1459.84 617.67 a13.1 13.1 0 1 0 26.2 0 a13.1 13.1 0 1 0 -26.2 0zM1573.29 1600.17 a13.1 13.1 0 1 0 26.2 0 a13.1 13.1 0 1 0 -26.2 0zM1573.29 1731.17 a13.1 13.1 0 1 0 26.2 0 a13.1 13.1 0 1 0 -26.2 0zM1459.84 1796.67 a13.1 13.1 0 1 0 26.2 0 a13.1 13.1 0 1 0 -26.2 0zM1346.39 1731.17 a13.1 13.1 0 1 0 26.2 0 a13.1 13.1 0 1 0 -26.2 0zM1459.84 1927.67 a13.1 13.1 0 1 0 26.2 0 a13.1 13.1 0 1 0 -26.2 0zM1573.29 1993.17 a13.1 13.1 0 1 0 26.2 0 a13.1 13.1 0 1 0 -26.2 0zM1573.29 2124.17 a13.1 13.1 0 1 0 26.2 0 a13.1 13.1 0 1 0 -26.2 0zM1459.84 2189.67 a13.1 13.1 0 1 0 26.2 0 a13.1 13.1 0 1 0 -26.2 0zM1346.39 2124.17 a13.1 13.1 0 1 0 26.2 0 a13.1 13.1 0 1 0 -26.2 0zM1346.39 1993.17 a13.1 13.1 0 1 0 26.2 0 a13.1 13.1 0 1 0 -26.2 0zM1573.29 3303.17 a13.1 13.1 0 1 0 26.2 0 a13.1 13.1 0 1 0 -26.2 0zM1686.75 3368.67 a13.1 13.1 0 1 0 26.2 0 a13.1 13.1 0 1 0 -26.2 0zM1686.75 3499.67 a13.1 13.1 0 1 0 26.2 0 a13.1 13.1 0 1 0 -26.2 0zM1573.29 3565.17 a13.1 13.1 0 1 0 26.2 0 a13.1 13.1 0 1 0 -26.2 0zM1459.84 3499.67 a13.1 13.1 0 1 0 26.2 0 a13.1 13.1 0 1 0 -26.2 0zM1459.84 3368.67 a13.1 13.1 0 1 0 26.2 0 a13.1 13.1 0 1 0 -26.2 0zM1573.29 4744.17 a13.1 13.1 0 1 0 26.2 0 a13.1 13.1 0 1 0 -26.2 0zM1573.29 4875.17 a13.1 13.1 0 1 0 26.2 0 a13.1 13.1 0 1 0 -26.2 0zM1459.84 4940.67 a13.1 13.1 0 1 0 26.2 0 a13.1 13.1 0 1 0 -26.2 0zM1346.39 4875.17 a13.1 13.1 0 1 0 26.2 0 a13.1 13.1 0 1 0 -26.2 0zM1459.84 6250.67 a13.1 13.1 0 1 0 26.2 0 a13.1 13.1 0 1 0 -26.2 0zM1573.29 6316.17 a13.1 13.1 0 1 0 26.2 0 a13.1 13.1 0 1 0 -26.2 0zM1573.29 6447.17 a13.1 13.1 0 1 0 26.2 0 a13.1 13.1 0 1 0 -26.2 0zM1459.84 6512.67 a13.1 13.1 0 1 0 26.2 0 a13.1 13.1 0 1 0 -26.2 0zM1346.39 6447.17 a13.1 13.1 0 1 0 26.2 0 a13.1 13.1 0 1 0 -26.2 0zM1346.39 6316.17 a13.1 13.1 0 1 0 26.2 0 a13.1 13.1 0 1 0 -26.2 0zM1686.75 1534.67 a13.1 13.1 0 1 0 26.2 0 a13.1 13.1 0 1 0 -26.2 0zM1800.2 1600.17 a13.1 13.1 0 1 0 26.2 0 a13.1 13.1 0 1 0 -26.2 0zM1800.2 1731.17 a13.1 13.1 0 1 0 26.2 0 a13.1 13.1 0 1 0 -26.2 0zM1686.75 1796.67 a13.1 13.1 0 1 0 26.2 0 a13.1 13.1 0 1 0 -26.2 0zM1800.2 3696.17 a13.1 13.1 0 1 0 26.2 0 a13.1 13.1 0 1 0 -26.2 0zM1913.65 3761.67 a13.1 13.1 0 1 0 26.2 0 a13.1 13.1 0 1 0 -26.2 0zM1913.65 3892.67 a13.1 13.1 0 1 0 26.2 0 a13.1 13.1 0 1 0 -26.2 0zM1800.2 3958.17 a13.1 13.1 0 1 0 26.2 0 a13.1 13.1 0 1 0 -26.2 0zM1686.75 3892.67 a13.1 13.1 0 1 0 26.2 0 a13.1 13.1 0 1 0 -26.2 0zM1686.75 3761.67 a13.1 13.1 0 1 0 26.2 0 a13.1 13.1 0 1 0 -26.2 0zM1800.2 4089.17 a13.1 13.1 0 1 0 26.2 0 a13.1 13.1 0 1 0 -26.2 0zM1686.75 4154.67 a13.1 13.1 0 1 0 26.2 0 a13.1 13.1 0 1 0 -26.2 0zM1573.29 4089.17 a13.1 13.1 0 1 0 26.2 0 a13.1 13.1 0 1 0 -26.2 0zM1573.29 3958.17 a13.1 13.1 0 1 0 26.2 0 a13.1 13.1 0 1 0 -26.2 0zM1686.75 5464.67 a13.1 13.1 0 1 0 26.2 0 a13.1 13.1 0 1 0 -26.2 0zM1800.2 5530.17 a13.1 13.1 0 1 0 26.2 0 a13.1 13.1 0 1 0 -26.2 0zM1800.2 5661.17 a13.1 13.1 0 1 0 26.2 0 a13.1 13.1 0 1 0 -26.2 0zM1686.75 5726.67 a13.1 13.1 0 1 0 26.2 0 a13.1 13.1 0 1 0 -26.2 0zM1573.29 5661.17 a13.1 13.1 0 1 0 26.2 0 a13.1 13.1 0 1 0 -26.2 0zM1573.29 5530.17 a13.1 13.1 0 1 0 26.2 0 a13.1 13.1 0 1 0 -26.2 0zM1686.75 5857.67 a13.1 13.1 0 1 0 26.2 0 a13.1 13.1 0 1 0 -26.2 0zM1800.2 5923.17 a13.1 13.1 0 1 0 26.2 0 a13.1 13.1 0 1 0 -26.2 0zM1800.2 6054.17 a13.1 13.1 0 1 0 26.2 0 a13.1 13.1 0 1 0 -26.2 0zM1686.75 6119.67 a13.1 13.1 0 1 0 26.2 0 a13.1 13.1 0 1 0 -26.2 0zM1573.29 6054.17 a13.1 13.1 0 1 0 26.2 0 a13.1 13.1 0 1 0 -26.2 0zM1573.29 5923.17 a13.1 13.1 0 1 0 26.2 0 a13.1 13.1 0 1 0 -26.2 0zM1800.2 6447.17 a13.1 13.1 0 1 0 26.2 0 a13.1 13.1 0 1 0 -26.2 0zM1913.65 6512.67 a13.1 13.1 0 1 0 26.2 0 a13.1 13.1 0 1 0 -26.2 0zM1913.65 6643.67 a13.1 13.1 0 1 0 26.2 0 a13.1 13.1 0 1 0 -26.2 0zM1800.2 6709.17 a13.1 13.1 0 1 0 26.2 0 a13.1 13.1 0 1 0 -26.2 0zM1686.75 6643.67 a13.1 13.1 0 1 0 26.2 0 a13.1 13.1 0 1 0 -26.2 0zM1686.75 6512.67 a13.1 13.1 0 1 0 26.2 0 a13.1 13.1 0 1 0 -26.2 0z" fill="url(#SvgjsLinearGradient3314)"></path></g><defs><mask id="SvgjsMask3313"><rect width="1600" height="6620" fill="#ffffff"></rect></mask><linearGradient x1="-1255.04" y1="1255.152" x2="2855.04" y2="5364.848" gradientUnits="userSpaceOnUse" id="SvgjsLinearGradient3314"><stop stop-color="rgba(0, 141, 165, 0)" offset="0"></stop><stop stop-color="rgba(0, 25, 155, 0.12)" offset="0.18"></stop></linearGradient></defs></svg>