<svg xmlns="http://www.w3.org/2000/svg" version="1.1" xmlns:xlink="http://www.w3.org/1999/xlink" xmlns:svgjs="http://svgjs.dev/svgjs" viewBox="0 0 800 800"><circle r="10.5" cx="175" cy="562" fill="hsl(277, 50%, 50%)" opacity="0.62"></circle><circle r="9.5" cx="667" cy="152" fill="hsl(275, 50%, 50%)" opacity="0.47"></circle><circle r="6" cx="384" cy="506" fill="hsl(279, 50%, 50%)" opacity="0.39"></circle><circle r="6.5" cx="317" cy="641" stroke-width="2" stroke="hsl(279, 50%, 50%)" fill="none" opacity="0.61"></circle><circle r="6" cx="211" cy="198" stroke-width="2" stroke="hsl(278, 50%, 50%)" fill="none" opacity="0.65"></circle><circle r="8" cx="265" cy="34" fill="hsl(275, 50%, 50%)" opacity="0.63"></circle><circle r="8.5" cx="544" cy="654" fill="hsl(277, 50%, 50%)" opacity="0.87"></circle><circle r="12.5" cx="22" cy="259" fill="hsl(274, 50%, 50%)" opacity="0.58"></circle><circle r="11.5" cx="578" cy="499" stroke-width="2" stroke="hsl(277, 50%, 50%)" fill="none" opacity="0.69"></circle><circle r="8.5" cx="214" cy="587" stroke-width="2" stroke="hsl(278, 50%, 50%)" fill="none" opacity="0.37"></circle><circle r="6.5" cx="708" cy="385" stroke-width="2" stroke="hsl(276, 50%, 50%)" fill="none" opacity="0.28"></circle><circle r="14.5" cx="36" cy="718" stroke-width="2" stroke="hsl(274, 50%, 50%)" fill="none" opacity="0.83"></circle><circle r="4.5" cx="321" cy="583" fill="hsl(279, 50%, 50%)" opacity="0.78"></circle><circle r="8" cx="55" cy="521" fill="hsl(275, 50%, 50%)" opacity="0.96"></circle><circle r="5" cx="368" cy="376" stroke-width="2" stroke="hsl(279, 50%, 50%)" fill="none" opacity="0.25"></circle><circle r="6" cx="706" cy="360" stroke-width="2" stroke="hsl(276, 50%, 50%)" fill="none" opacity="0.12"></circle><circle r="14.5" cx="712" cy="213" stroke-width="2" stroke="hsl(276, 50%, 50%)" fill="none" opacity="0.11"></circle><circle r="6.5" cx="340" cy="767" fill="hsl(279, 50%, 50%)" opacity="0.21"></circle><circle r="9.5" cx="645" cy="540" fill="hsl(276, 50%, 50%)" opacity="0.54"></circle><circle r="7" cx="301" cy="332" stroke-width="2" stroke="hsl(279, 50%, 50%)" fill="none" opacity="0.12"></circle><circle r="12" cx="550" cy="454" stroke-width="2" stroke="hsl(277, 50%, 50%)" fill="none" opacity="0.74"></circle><circle r="9" cx="612" cy="417" stroke-width="2" stroke="hsl(276, 50%, 50%)" fill="none" opacity="0.66"></circle><circle r="11" cx="708" cy="418" stroke-width="2" stroke="hsl(276, 50%, 50%)" fill="none" opacity="0.75"></circle><circle r="11" cx="158" cy="652" stroke-width="2" stroke="hsl(277, 50%, 50%)" fill="none" opacity="0.87"></circle><circle r="6.5" cx="366" cy="268" fill="hsl(279, 50%, 50%)" opacity="0.52"></circle><circle r="10" cx="146" cy="386" fill="hsl(276, 50%, 50%)" opacity="0.64"></circle><circle r="6.5" cx="306" cy="126" stroke-width="2" stroke="hsl(278, 50%, 50%)" fill="none" opacity="0.14"></circle><circle r="7.5" cx="450" cy="598" fill="hsl(278, 50%, 50%)" opacity="0.46"></circle><circle r="9" cx="425" cy="135" stroke-width="2" stroke="hsl(278, 50%, 50%)" fill="none" opacity="0.48"></circle><circle r="13.5" cx="143" cy="134" fill="hsl(275, 50%, 50%)" opacity="0.62"></circle><circle r="5.5" cx="723" cy="317" fill="hsl(276, 50%, 50%)" opacity="0.65"></circle><circle r="15.5" cx="29" cy="167" fill="hsl(274, 50%, 50%)" opacity="0.74"></circle><circle r="5.5" cx="250" cy="771" stroke-width="2" stroke="hsl(279, 50%, 50%)" fill="none" opacity="0.88"></circle><circle r="6.5" cx="394" cy="399" stroke-width="2" stroke="hsl(279, 50%, 50%)" fill="none" opacity="0.93"></circle><circle r="7.5" cx="429" cy="333" stroke-width="2" stroke="hsl(279, 50%, 50%)" fill="none" opacity="0.12"></circle><circle r="5" cx="332" cy="609" stroke-width="2" stroke="hsl(279, 50%, 50%)" fill="none" opacity="0.33"></circle><circle r="9" cx="111" cy="113" fill="hsl(275, 50%, 50%)" opacity="0.41"></circle><circle r="6.5" cx="269" cy="313" fill="hsl(279, 50%, 50%)" opacity="0.21"></circle><circle r="5.5" cx="281" cy="226" fill="hsl(279, 50%, 50%)" opacity="0.82"></circle><circle r="9.5" cx="775" cy="273" stroke-width="2" stroke="hsl(276, 50%, 50%)" fill="none" opacity="0.17"></circle><circle r="9.5" cx="699" cy="734" fill="hsl(276, 50%, 50%)" opacity="0.87"></circle><circle r="7.5" cx="390" cy="439" stroke-width="2" stroke="hsl(279, 50%, 50%)" fill="none" opacity="0.83"></circle><circle r="9.5" cx="617" cy="225" stroke-width="2" stroke="hsl(276, 50%, 50%)" fill="none" opacity="0.59"></circle><circle r="9.5" cx="486" cy="420" fill="hsl(278, 50%, 50%)" opacity="0.71"></circle><circle r="6" cx="377" cy="760" stroke-width="2" stroke="hsl(279, 50%, 50%)" fill="none" opacity="0.51"></circle><circle r="6.5" cx="297" cy="673" stroke-width="2" stroke="hsl(279, 50%, 50%)" fill="none" opacity="0.20"></circle><circle r="11" cx="631" cy="147" fill="hsl(275, 50%, 50%)" opacity="0.59"></circle><circle r="12.5" cx="75" cy="403" stroke-width="2" stroke="hsl(275, 50%, 50%)" fill="none" opacity="0.72"></circle><circle r="10.5" cx="210" cy="706" stroke-width="2" stroke="hsl(278, 50%, 50%)" fill="none" opacity="0.91"></circle><circle r="10.5" cx="520" cy="132" fill="hsl(277, 50%, 50%)" opacity="0.24"></circle><circle r="13" cx="472" cy="28" stroke-width="2" stroke="hsl(277, 50%, 50%)" fill="none" opacity="0.58"></circle><circle r="8" cx="145" cy="315" fill="hsl(276, 50%, 50%)" opacity="0.34"></circle><circle r="14.5" cx="668" cy="457" fill="hsl(276, 50%, 50%)" opacity="0.96"></circle><circle r="9.5" cx="185" cy="402" fill="hsl(277, 50%, 50%)" opacity="0.19"></circle><circle r="12" cx="100" cy="60" stroke-width="2" stroke="hsl(275, 50%, 50%)" fill="none" opacity="0.28"></circle><circle r="4.5" cx="252" cy="224" fill="hsl(279, 50%, 50%)" opacity="0.65"></circle><circle r="7.5" cx="148" cy="285" stroke-width="2" stroke="hsl(276, 50%, 50%)" fill="none" opacity="0.58"></circle><circle r="5" cx="414" cy="252" stroke-width="2" stroke="hsl(279, 50%, 50%)" fill="none" opacity="0.83"></circle><circle r="10" cx="607" cy="592" fill="hsl(276, 50%, 50%)" opacity="0.71"></circle><circle r="7.5" cx="584" cy="720" stroke-width="2" stroke="hsl(277, 50%, 50%)" fill="none" opacity="0.60"></circle><circle r="8.5" cx="500" cy="223" fill="hsl(277, 50%, 50%)" opacity="0.54"></circle><circle r="8.5" cx="27" cy="61" stroke-width="2" stroke="hsl(275, 50%, 50%)" fill="none" opacity="0.66"></circle><circle r="11.5" cx="630" cy="269" stroke-width="2" stroke="hsl(276, 50%, 50%)" fill="none" opacity="0.59"></circle><circle r="7" cx="498" cy="646" fill="hsl(278, 50%, 50%)" opacity="0.79"></circle><circle r="15" cx="120" cy="199" stroke-width="2" stroke="hsl(276, 50%, 50%)" fill="none" opacity="0.28"></circle><circle r="12.5" cx="775" cy="194" stroke-width="2" stroke="hsl(276, 50%, 50%)" fill="none" opacity="0.33"></circle><circle r="9.5" cx="101" cy="585" fill="hsl(275, 50%, 50%)" opacity="0.67"></circle><circle r="7" cx="472" cy="182" stroke-width="2" stroke="hsl(278, 50%, 50%)" fill="none" opacity="0.64"></circle><circle r="6.5" cx="168" cy="505" fill="hsl(277, 50%, 50%)" opacity="0.94"></circle><circle r="12.5" cx="18" cy="639" fill="hsl(274, 50%, 50%)" opacity="0.20"></circle><circle r="4" cx="242" cy="249" stroke-width="2" stroke="hsl(279, 50%, 50%)" fill="none" opacity="0.69"></circle><circle r="10" cx="700" cy="142" stroke-width="2" stroke="hsl(275, 50%, 50%)" fill="none" opacity="0.30"></circle><circle r="10" cx="684" cy="271" stroke-width="2" stroke="hsl(276, 50%, 50%)" fill="none" opacity="0.40"></circle><circle r="13" cx="716" cy="476" stroke-width="2" stroke="hsl(276, 50%, 50%)" fill="none" opacity="0.23"></circle><circle r="12.5" cx="116" cy="674" fill="hsl(276, 50%, 50%)" opacity="0.60"></circle><circle r="8" cx="191" cy="329" stroke-width="2" stroke="hsl(278, 50%, 50%)" fill="none" opacity="0.68"></circle><circle r="8" cx="132" cy="730" fill="hsl(276, 50%, 50%)" opacity="0.46"></circle><circle r="13" cx="734" cy="692" fill="hsl(276, 50%, 50%)" opacity="0.62"></circle><circle r="7" cx="294" cy="774" fill="hsl(279, 50%, 50%)" opacity="0.61"></circle><circle r="8" cx="421" cy="648" stroke-width="2" stroke="hsl(279, 50%, 50%)" fill="none" opacity="0.19"></circle><circle r="3.5" cx="319" cy="448" stroke-width="2" stroke="hsl(279, 50%, 50%)" fill="none" opacity="0.84"></circle><circle r="5" cx="708" cy="791" stroke-width="2" stroke="hsl(276, 50%, 50%)" fill="none" opacity="0.84"></circle><circle r="4" cx="233" cy="212" fill="hsl(278, 50%, 50%)" opacity="0.96"></circle><circle r="7" cx="530" cy="700" stroke-width="2" stroke="hsl(277, 50%, 50%)" fill="none" opacity="0.73"></circle><circle r="6" cx="456" cy="496" fill="hsl(278, 50%, 50%)" opacity="0.28"></circle><circle r="11.5" cx="69" cy="682" stroke-width="2" stroke="hsl(275, 50%, 50%)" fill="none" opacity="0.34"></circle><circle r="10" cx="630" cy="505" fill="hsl(276, 50%, 50%)" opacity="0.83"></circle><circle r="10.5" cx="145" cy="246" stroke-width="2" stroke="hsl(276, 50%, 50%)" fill="none" opacity="0.38"></circle><circle r="14.5" cx="85" cy="626" fill="hsl(275, 50%, 50%)" opacity="0.41"></circle><circle r="7" cx="602" cy="694" stroke-width="2" stroke="hsl(276, 50%, 50%)" fill="none" opacity="0.18"></circle><circle r="8" cx="327" cy="281" stroke-width="2" stroke="hsl(279, 50%, 50%)" fill="none" opacity="0.64"></circle><circle r="5.5" cx="447" cy="523" fill="hsl(278, 50%, 50%)" opacity="0.81"></circle><circle r="10" cx="430" cy="71" fill="hsl(277, 50%, 50%)" opacity="0.99"></circle><circle r="15" cx="87" cy="160" fill="hsl(274, 50%, 50%)" opacity="0.82"></circle><circle r="5.5" cx="460" cy="629" stroke-width="2" stroke="hsl(278, 50%, 50%)" fill="none" opacity="0.75"></circle><circle r="8.5" cx="237" cy="55" fill="hsl(276, 50%, 50%)" opacity="0.52"></circle><circle r="9.5" cx="782" cy="429" stroke-width="2" stroke="hsl(276, 50%, 50%)" fill="none" opacity="0.28"></circle><circle r="8" cx="614" cy="736" stroke-width="2" stroke="hsl(276, 50%, 50%)" fill="none" opacity="0.66"></circle><circle r="11.5" cx="675" cy="700" fill="hsl(276, 50%, 50%)" opacity="0.91"></circle><circle r="5" cx="480" cy="682" stroke-width="2" stroke="hsl(278, 50%, 50%)" fill="none" opacity="0.23"></circle><circle r="11.5" cx="144" cy="22" fill="hsl(276, 50%, 50%)" opacity="0.71"></circle><circle r="8" cx="83" cy="117" fill="hsl(274, 50%, 50%)" opacity="0.94"></circle><circle r="10.5" cx="763" cy="238" fill="hsl(276, 50%, 50%)" opacity="0.24"></circle><circle r="8.5" cx="22" cy="403" fill="hsl(274, 50%, 50%)" opacity="0.30"></circle><circle r="7" cx="409" cy="476" stroke-width="2" stroke="hsl(279, 50%, 50%)" fill="none" opacity="0.59"></circle><circle r="6.5" cx="253" cy="12" fill="hsl(275, 50%, 50%)" opacity="0.73"></circle><circle r="10.5" cx="580" cy="297" fill="hsl(277, 50%, 50%)" opacity="0.99"></circle><circle r="11" cx="692" cy="546" stroke-width="2" stroke="hsl(276, 50%, 50%)" fill="none" opacity="0.68"></circle><circle r="6" cx="213" cy="230" stroke-width="2" stroke="hsl(278, 50%, 50%)" fill="none" opacity="0.17"></circle><circle r="8.5" cx="769" cy="307" stroke-width="2" stroke="hsl(276, 50%, 50%)" fill="none" opacity="0.80"></circle><circle r="4" cx="381" cy="237" fill="hsl(279, 50%, 50%)" opacity="0.52"></circle><circle r="10.5" cx="747" cy="167" fill="hsl(275, 50%, 50%)" opacity="0.58"></circle><circle r="6.5" cx="434" cy="176" fill="hsl(279, 50%, 50%)" opacity="0.52"></circle><circle r="10" cx="317" cy="89" stroke-width="2" stroke="hsl(277, 50%, 50%)" fill="none" opacity="0.27"></circle><circle r="7" cx="309" cy="162" fill="hsl(279, 50%, 50%)" opacity="0.35"></circle><circle r="7.5" cx="503" cy="736" fill="hsl(277, 50%, 50%)" opacity="0.31"></circle><circle r="8.5" cx="210" cy="16" fill="hsl(276, 50%, 50%)" opacity="0.64"></circle></svg>