<svg xmlns="http://www.w3.org/2000/svg" xmlns:xlink="http://www.w3.org/1999/xlink" width="95" zoomAndPan="magnify" viewBox="0 0 71.25 30.000001" height="40" preserveAspectRatio="xMidYMid meet" version="1.0"><defs><g/><clipPath id="7ecddea170"><path d="M 61 20 L 69.738281 20 L 69.738281 24 L 61 24 Z M 61 20 " clip-rule="nonzero"/></clipPath></defs><g fill="#000000" fill-opacity="1"><g transform="translate(23.66247, 23.510454)"><g><path d="M 5.289062 -1.917969 C 4.761719 -1.421875 3.277344 -0.269531 2.425781 -0.152344 C 2.414062 -0.152344 2.414062 -0.152344 2.398438 -0.152344 C 2.4375 -0.363281 2.460938 -0.5625 2.542969 -0.792969 C 2.609375 -1.007812 2.6875 -1.222656 2.710938 -1.449219 C 2.726562 -1.480469 2.726562 -1.523438 2.710938 -1.578125 C 2.707031 -1.71875 2.546875 -1.902344 2.375 -2.011719 C 2.273438 -2.082031 2.160156 -2.121094 2.058594 -2.089844 C 1.972656 -2.074219 1.902344 -2.042969 1.820312 -2.015625 C 1.410156 -2.53125 0.683594 -2.617188 0.125 -2.191406 C -0.5625 -1.652344 -1.011719 -0.761719 -1.179688 0.0820312 C -1.230469 0.367188 -0.820312 0.828125 -0.523438 0.707031 C 0.320312 0.347656 0.945312 -0.402344 1.6875 -0.917969 C 1.621094 -0.675781 1.582031 -0.429688 1.675781 -0.164062 C 1.796875 0.230469 2.160156 0.566406 2.585938 0.613281 C 3.011719 0.648438 3.421875 0.410156 3.757812 0.203125 C 4.5 -0.265625 5.15625 -0.863281 5.796875 -1.460938 C 6.046875 -1.707031 5.554688 -2.179688 5.289062 -1.917969 Z M 0.179688 -0.871094 C 0.179688 -0.871094 0.195312 -0.886719 0.195312 -0.886719 C 0.347656 -1.085938 0.511719 -1.289062 0.695312 -1.449219 C 0.820312 -1.550781 0.945312 -1.667969 1.101562 -1.714844 C 1.15625 -1.714844 1.214844 -1.730469 1.269531 -1.746094 C 1.269531 -1.734375 1.269531 -1.734375 1.285156 -1.734375 C 0.890625 -1.496094 0.542969 -1.175781 0.179688 -0.871094 Z M 0.179688 -0.871094 "/></g></g></g><g fill="#000000" fill-opacity="1"><g transform="translate(29.260326, 23.391628)"><g><path d="M 3.21875 -1.800781 C 2.828125 -1.367188 1.453125 -0.597656 0.417969 -0.433594 C 0.347656 -0.960938 0.714844 -1.75 0.835938 -2.121094 C 1.074219 -2.878906 1.316406 -3.636719 1.570312 -4.382812 C 2.09375 -5.914062 2.65625 -7.433594 3.25 -8.9375 C 3.371094 -9.253906 2.648438 -9.835938 2.5 -9.464844 C 1.960938 -8.085938 1.449219 -6.699219 0.96875 -5.292969 C 0.726562 -4.621094 0.511719 -3.949219 0.285156 -3.261719 C 0.0859375 -2.617188 -0.167969 -1.957031 -0.296875 -1.289062 C -0.386719 -0.800781 -0.332031 -0.320312 0.015625 0.0703125 C 0.335938 0.449219 0.761719 0.367188 1.199219 0.214844 C 2.101562 -0.0742188 3.011719 -0.703125 3.652344 -1.414062 C 3.886719 -1.6875 3.453125 -2.078125 3.21875 -1.800781 Z M 3.21875 -1.800781 "/></g></g></g><g fill="#000000" fill-opacity="1"><g transform="translate(32.755442, 23.317436)"><g><path d="M 5.289062 -1.917969 C 4.761719 -1.421875 3.277344 -0.269531 2.425781 -0.152344 C 2.414062 -0.152344 2.414062 -0.152344 2.398438 -0.152344 C 2.4375 -0.363281 2.460938 -0.5625 2.542969 -0.792969 C 2.609375 -1.007812 2.6875 -1.222656 2.710938 -1.449219 C 2.726562 -1.480469 2.726562 -1.523438 2.710938 -1.578125 C 2.707031 -1.71875 2.546875 -1.902344 2.375 -2.011719 C 2.273438 -2.082031 2.160156 -2.121094 2.058594 -2.089844 C 1.972656 -2.074219 1.902344 -2.042969 1.820312 -2.015625 C 1.410156 -2.53125 0.683594 -2.617188 0.125 -2.191406 C -0.5625 -1.652344 -1.011719 -0.761719 -1.179688 0.0820312 C -1.230469 0.367188 -0.820312 0.828125 -0.523438 0.707031 C 0.320312 0.347656 0.945312 -0.402344 1.6875 -0.917969 C 1.621094 -0.675781 1.582031 -0.429688 1.675781 -0.164062 C 1.796875 0.230469 2.160156 0.566406 2.585938 0.613281 C 3.011719 0.648438 3.421875 0.410156 3.757812 0.203125 C 4.5 -0.265625 5.15625 -0.863281 5.796875 -1.460938 C 6.046875 -1.707031 5.554688 -2.179688 5.289062 -1.917969 Z M 0.179688 -0.871094 C 0.179688 -0.871094 0.195312 -0.886719 0.195312 -0.886719 C 0.347656 -1.085938 0.511719 -1.289062 0.695312 -1.449219 C 0.820312 -1.550781 0.945312 -1.667969 1.101562 -1.714844 C 1.15625 -1.714844 1.214844 -1.730469 1.269531 -1.746094 C 1.269531 -1.734375 1.269531 -1.734375 1.285156 -1.734375 C 0.890625 -1.496094 0.542969 -1.175781 0.179688 -0.871094 Z M 0.179688 -0.871094 "/></g></g></g><g fill="#000000" fill-opacity="1"><g transform="translate(38.353299, 23.19861)"><g><path d="M 6.566406 -1.972656 C 5.769531 -1.5 4.78125 -1.039062 3.863281 -0.75 C 3.957031 -1.050781 4.09375 -1.351562 4.15625 -1.679688 C 4.234375 -2.078125 4.210938 -2.476562 3.894531 -2.769531 C 3.472656 -3.144531 3.105469 -2.953125 2.699219 -2.703125 C 1.871094 -2.1875 1.101562 -1.601562 0.40625 -0.933594 C 0.5 -1.234375 0.605469 -1.546875 0.726562 -1.847656 C 0.984375 -2.550781 1.253906 -3.238281 1.566406 -3.914062 C 2.164062 -5.261719 2.875 -6.570312 3.671875 -7.824219 C 3.878906 -8.140625 3.183594 -8.753906 3.003906 -8.480469 C 2.054688 -6.996094 1.222656 -5.425781 0.542969 -3.808594 C 0.207031 -3.003906 -0.101562 -2.1875 -0.371094 -1.355469 C -0.597656 -0.683594 -0.667969 -0.0703125 -0.046875 0.398438 C 0.0507812 0.46875 0.28125 0.578125 0.378906 0.445312 C 1.238281 -0.539062 2.257812 -1.382812 3.382812 -2.046875 C 3.328125 -1.863281 3.261719 -1.660156 3.195312 -1.476562 C 3.101562 -1.21875 3.007812 -0.917969 3.027344 -0.632812 C 3.113281 -0.0078125 3.730469 0.234375 4.25 0.0390625 C 5.195312 -0.296875 6.0625 -0.9375 6.921875 -1.441406 C 7.269531 -1.660156 6.847656 -2.148438 6.566406 -1.972656 Z M 6.566406 -1.972656 "/></g></g></g><g fill="#000000" fill-opacity="1"><g transform="translate(45.229849, 23.05264)"><g><path d="M 4.949219 -1.910156 C 4.503906 -1.417969 3.554688 -0.574219 2.976562 -0.433594 C 2.976562 -0.476562 2.988281 -0.519531 2.988281 -0.5625 C 3.078125 -0.976562 3.195312 -1.402344 3.316406 -1.820312 C 3.394531 -2.089844 2.871094 -2.648438 2.605469 -2.402344 C 1.964844 -1.789062 1.367188 -1.167969 0.683594 -0.613281 C 0.472656 -0.449219 0.265625 -0.277344 0.0273438 -0.144531 C 0.0664062 -0.269531 0.105469 -0.398438 0.160156 -0.515625 C 0.28125 -0.800781 0.417969 -1.089844 0.609375 -1.335938 C 0.847656 -1.625 0.164062 -2.25 -0.0546875 -1.976562 C -0.5 -1.4375 -1.128906 -0.261719 -0.601562 0.398438 C -0.207031 0.886719 0.300781 0.761719 0.761719 0.46875 C 1.269531 0.144531 1.730469 -0.265625 2.175781 -0.6875 C 2.175781 -0.65625 2.175781 -0.644531 2.175781 -0.628906 C 2.113281 -0.214844 2.234375 0.195312 2.625 0.414062 C 2.984375 0.617188 3.320312 0.441406 3.628906 0.222656 C 4.289062 -0.246094 4.855469 -0.871094 5.398438 -1.449219 C 5.648438 -1.710938 5.199219 -2.171875 4.949219 -1.910156 Z M 4.949219 -1.910156 "/></g></g></g><g fill="#000000" fill-opacity="1"><g transform="translate(50.458306, 22.941655)"><g><path d="M 5.453125 -8.230469 C 5.425781 -8.246094 5.398438 -8.246094 5.367188 -8.246094 C 5.355469 -8.246094 5.355469 -8.246094 5.355469 -8.246094 C 5.296875 -8.242188 5.242188 -8.214844 5.199219 -8.15625 C 5.1875 -8.15625 5.1875 -8.140625 5.1875 -8.128906 C 4.234375 -6.144531 3.222656 -4.132812 1.882812 -2.371094 C 1.839844 -2.300781 1.785156 -2.242188 1.746094 -2.167969 C 1.324219 -2.542969 0.699219 -2.574219 0.210938 -2.195312 C -0.488281 -1.652344 -0.941406 -0.761719 -1.105469 0.0820312 C -1.15625 0.367188 -0.75 0.824219 -0.453125 0.707031 C 0.574219 0.316406 1.386719 -0.355469 2.09375 -1.140625 C 1.867188 -0.523438 1.652344 0.078125 1.449219 0.707031 C 1.34375 1.039062 2.082031 1.589844 2.199219 1.234375 C 3.160156 -1.828125 4.546875 -4.730469 5.921875 -7.601562 C 5.9375 -7.632812 5.9375 -7.644531 5.949219 -7.675781 C 5.972656 -7.875 5.683594 -8.167969 5.453125 -8.230469 Z M 0.03125 -0.511719 C 0.101562 -0.640625 0.183594 -0.769531 0.265625 -0.886719 C 0.417969 -1.089844 0.582031 -1.292969 0.765625 -1.453125 C 0.890625 -1.554688 1.03125 -1.671875 1.1875 -1.714844 C 1.242188 -1.71875 1.285156 -1.734375 1.339844 -1.75 C 1.355469 -1.734375 1.371094 -1.734375 1.382812 -1.734375 C 0.980469 -1.273438 0.550781 -0.835938 0.03125 -0.511719 Z M 0.03125 -0.511719 "/></g></g></g><g fill="#000000" fill-opacity="1"><g transform="translate(55.217907, 22.840623)"><g><path d="M 5.453125 -8.230469 C 5.425781 -8.246094 5.398438 -8.246094 5.367188 -8.246094 C 5.355469 -8.246094 5.355469 -8.246094 5.355469 -8.246094 C 5.296875 -8.242188 5.242188 -8.214844 5.199219 -8.15625 C 5.1875 -8.15625 5.1875 -8.140625 5.1875 -8.128906 C 4.234375 -6.144531 3.222656 -4.132812 1.882812 -2.371094 C 1.839844 -2.300781 1.785156 -2.242188 1.746094 -2.167969 C 1.324219 -2.542969 0.699219 -2.574219 0.210938 -2.195312 C -0.488281 -1.652344 -0.941406 -0.761719 -1.105469 0.0820312 C -1.15625 0.367188 -0.75 0.824219 -0.453125 0.707031 C 0.574219 0.316406 1.386719 -0.355469 2.09375 -1.140625 C 1.867188 -0.523438 1.652344 0.078125 1.449219 0.707031 C 1.34375 1.039062 2.082031 1.589844 2.199219 1.234375 C 3.160156 -1.828125 4.546875 -4.730469 5.921875 -7.601562 C 5.9375 -7.632812 5.9375 -7.644531 5.949219 -7.675781 C 5.972656 -7.875 5.683594 -8.167969 5.453125 -8.230469 Z M 0.03125 -0.511719 C 0.101562 -0.640625 0.183594 -0.769531 0.265625 -0.886719 C 0.417969 -1.089844 0.582031 -1.292969 0.765625 -1.453125 C 0.890625 -1.554688 1.03125 -1.671875 1.1875 -1.714844 C 1.242188 -1.71875 1.285156 -1.734375 1.339844 -1.75 C 1.355469 -1.734375 1.371094 -1.734375 1.382812 -1.734375 C 0.980469 -1.273438 0.550781 -0.835938 0.03125 -0.511719 Z M 0.03125 -0.511719 "/></g></g></g><g fill="#000000" fill-opacity="1"><g transform="translate(59.977507, 22.73959)"><g><path d="M 2.632812 -1.804688 C 1.976562 -1.234375 0.628906 -0.46875 0.0625 -0.355469 C 0.078125 -0.414062 0.101562 -0.484375 0.128906 -0.542969 C 0.292969 -1 0.480469 -1.417969 0.730469 -1.835938 C 0.878906 -2.121094 0.167969 -2.71875 -0.0234375 -2.359375 C -0.324219 -1.828125 -0.777344 -1.09375 -0.75 -0.46875 C -0.722656 0.0859375 -0.1875 0.585938 0.363281 0.460938 C 0.847656 0.351562 1.308594 0.015625 1.699219 -0.261719 C 2.191406 -0.613281 2.664062 -0.996094 3.125 -1.402344 C 3.378906 -1.621094 2.914062 -2.050781 2.632812 -1.804688 Z M 1.324219 -3.269531 C 1.527344 -3.6875 1.554688 -3.769531 1.554688 -3.769531 C 1.71875 -4.058594 1.011719 -4.640625 0.820312 -4.28125 C 0.820312 -4.28125 0.738281 -4.136719 0.585938 -3.792969 C 0.453125 -3.476562 1.160156 -2.925781 1.324219 -3.269531 Z M 1.324219 -3.269531 "/></g></g></g><g clip-path="url(#7ecddea170)"><g fill="#000000" fill-opacity="1"><g transform="translate(62.946936, 22.676557)"><g><path d="M 5.628906 -1.953125 C 4.671875 -1.476562 3.601562 -1 2.632812 -0.496094 C 2.824219 -0.914062 3.027344 -1.328125 3.261719 -1.730469 C 3.4375 -2.035156 2.960938 -2.523438 2.648438 -2.414062 C 1.914062 -2.171875 1.226562 -1.804688 0.597656 -1.363281 C 0.597656 -1.378906 0.609375 -1.390625 0.625 -1.40625 C 0.773438 -1.695312 0.0664062 -2.289062 -0.125 -1.929688 C -0.480469 -1.269531 -0.808594 -0.566406 -0.976562 0.164062 C -1.042969 0.421875 -0.503906 1.035156 -0.269531 0.746094 C 0.3125 0.0078125 1.023438 -0.605469 1.824219 -1.0625 C 1.6875 -0.789062 1.582031 -0.503906 1.542969 -0.21875 C 1.484375 0.265625 1.949219 0.726562 2.445312 0.601562 C 2.9375 0.476562 3.414062 0.0820312 3.835938 -0.179688 C 4.507812 -0.636719 5.195312 -1.078125 5.925781 -1.433594 C 6.277344 -1.613281 5.941406 -2.101562 5.628906 -1.953125 Z M 5.628906 -1.953125 "/></g></g></g></g><g fill="#1da1f2" fill-opacity="1"><g transform="translate(0.786289, 21.158689)"><g><path d="M 26.65625 -3.824219 C 26.464844 -4.304688 25.984375 -4.65625 25.507812 -4.71875 C 22.382812 -5.101562 19.195312 -3.21875 16.675781 -1.59375 C 16.355469 -1.402344 16.039062 -1.210938 15.75 -0.988281 C 14.792969 -1.273438 13.804688 -1.433594 12.945312 -1.625 C 10.839844 -2.167969 8.671875 -2.613281 6.601562 -3.21875 C 5.261719 -3.601562 3.347656 -4.207031 2.773438 -5.613281 C 1.976562 -7.589844 3.761719 -9.566406 5.070312 -10.839844 C 7.972656 -13.644531 11.574219 -15.71875 15.464844 -16.898438 C 16.515625 -17.21875 17.566406 -17.472656 18.652344 -17.632812 C 19.609375 -17.792969 21.363281 -18.238281 21.96875 -17.21875 C 23.242188 -15.144531 21.363281 -12.59375 20.183594 -11.03125 C 19.671875 -10.363281 21.203125 -8.925781 21.648438 -9.535156 C 22.894531 -11.222656 24.265625 -13.105469 24.007812 -15.335938 C 23.816406 -17.027344 22.734375 -18.714844 21.042969 -19.289062 C 19.128906 -19.960938 16.578125 -19.195312 14.699219 -18.683594 C 12.5625 -18.046875 10.488281 -17.1875 8.546875 -16.039062 C 6.664062 -14.953125 4.910156 -13.613281 3.347656 -12.085938 C 1.945312 -10.679688 0.636719 -8.863281 0.957031 -6.792969 C 1.65625 -2.742188 6.535156 -1.691406 9.820312 -0.894531 C 11.253906 -0.542969 12.691406 -0.191406 14.125 0.160156 C 13.613281 0.542969 13.136719 0.925781 12.625 1.339844 C 11.382812 2.390625 9.914062 3.570312 9.914062 5.355469 C 9.949219 5.996094 10.746094 6.757812 11.382812 6.601562 C 13.296875 6.21875 15.113281 5.386719 16.707031 4.242188 C 18.015625 3.285156 19.449219 2.007812 18.140625 0.445312 C 18.046875 0.320312 17.917969 0.191406 17.824219 0.09375 C 17.917969 0.03125 18.046875 -0.0625 18.140625 -0.128906 C 20.46875 -1.625 23.5 -3.378906 26.367188 -2.996094 C 26.878906 -2.933594 26.816406 -3.570312 26.65625 -3.824219 Z M 16.738281 1.464844 C 15.496094 2.679688 14.0625 3.636719 12.464844 4.273438 C 13.039062 3.601562 13.804688 3.0625 14.378906 2.582031 C 15.144531 1.976562 15.910156 1.402344 16.707031 0.828125 C 17.21875 1.019531 17.089844 1.085938 16.738281 1.464844 Z M 16.738281 1.464844 "/></g></g></g></svg>